<svg width="736" height="176" viewBox="0 0 736 176" fill="none" xmlns="http://www.w3.org/2000/svg">
<mask id="mask0_40_261" style="mask-type:alpha" maskUnits="userSpaceOnUse" x="74" y="18" width="594" height="156">
<path d="M297.396 22H316.276V78H297.396V22ZM279.956 78H261.076V22H279.956V78ZM298.676 57.36H278.676V41.84H298.676V57.36ZM348.973 78.8C343.639 78.8 338.973 77.8133 334.973 75.84C331.026 73.8667 327.959 71.1733 325.773 67.76C323.586 64.2933 322.493 60.4 322.493 56.08C322.493 51.6533 323.559 47.7333 325.693 44.32C327.879 40.9067 330.839 38.24 334.573 36.32C338.359 34.4 342.599 33.44 347.293 33.44C351.613 33.44 355.586 34.2933 359.213 36C362.893 37.7067 365.826 40.24 368.013 43.6C370.253 46.96 371.373 51.12 371.373 56.08C371.373 56.72 371.346 57.44 371.293 58.24C371.239 58.9867 371.186 59.68 371.133 60.32H337.453V51.6H361.533L354.733 53.92C354.733 52.2133 354.413 50.7733 353.773 49.6C353.186 48.3733 352.359 47.44 351.293 46.8C350.226 46.1067 348.946 45.76 347.453 45.76C345.959 45.76 344.653 46.1067 343.533 46.8C342.466 47.44 341.639 48.3733 341.053 49.6C340.466 50.7733 340.173 52.2133 340.173 53.92V56.64C340.173 58.5067 340.546 60.1067 341.293 61.44C342.039 62.7733 343.106 63.7867 344.493 64.48C345.879 65.12 347.559 65.44 349.533 65.44C351.559 65.44 353.213 65.1733 354.493 64.64C355.826 64.1067 357.213 63.3067 358.653 62.24L368.093 71.76C365.959 74.0533 363.319 75.8133 360.173 77.04C357.079 78.2133 353.346 78.8 348.973 78.8ZM377.078 78V18.64H395.158V78H377.078ZM403.172 78V18.64H421.252V78H403.172ZM452.386 78.8C447.426 78.8 443.026 77.84 439.186 75.92C435.399 73.9467 432.412 71.2533 430.226 67.84C428.039 64.4267 426.946 60.5067 426.946 56.08C426.946 51.6533 428.039 47.7333 430.226 44.32C432.412 40.9067 435.399 38.24 439.186 36.32C443.026 34.4 447.426 33.44 452.386 33.44C457.346 33.44 461.746 34.4 465.586 36.32C469.426 38.24 472.412 40.9067 474.546 44.32C476.732 47.7333 477.826 51.6533 477.826 56.08C477.826 60.5067 476.732 64.4267 474.546 67.84C472.412 71.2533 469.426 73.9467 465.586 75.92C461.746 77.84 457.346 78.8 452.386 78.8ZM452.386 64.72C453.719 64.72 454.919 64.4 455.986 63.76C457.052 63.12 457.906 62.16 458.546 60.88C459.186 59.5467 459.506 57.9467 459.506 56.08C459.506 54.16 459.186 52.5867 458.546 51.36C457.906 50.08 457.052 49.12 455.986 48.48C454.919 47.84 453.719 47.52 452.386 47.52C451.052 47.52 449.852 47.84 448.786 48.48C447.719 49.12 446.866 50.08 446.226 51.36C445.586 52.5867 445.266 54.16 445.266 56.08C445.266 57.9467 445.586 59.5467 446.226 60.88C446.866 62.16 447.719 63.12 448.786 63.76C449.852 64.4 451.052 64.72 452.386 64.72Z" fill="white"/>
<path d="M74.2691 161V119H83.9891V161H74.2691ZM91.6766 136.4L95.6366 122L96.9566 127.46C95.2366 127.46 93.8166 126.96 92.6966 125.96C91.6166 124.92 91.0766 123.52 91.0766 121.76C91.0766 120.04 91.6366 118.66 92.7566 117.62C93.8766 116.54 95.2566 116 96.8966 116C98.5766 116 99.9566 116.54 101.037 117.62C102.117 118.66 102.657 120.04 102.657 121.76C102.657 122.28 102.617 122.8 102.537 123.32C102.497 123.8 102.357 124.38 102.117 125.06C101.917 125.74 101.577 126.64 101.097 127.76L97.6166 136.4H91.6766ZM150.34 128.24C152.9 128.24 155.16 128.76 157.12 129.8C159.12 130.8 160.68 132.36 161.8 134.48C162.96 136.56 163.54 139.24 163.54 142.52V161H154.18V143.96C154.18 141.36 153.64 139.44 152.56 138.2C151.48 136.96 149.96 136.34 148 136.34C146.64 136.34 145.42 136.66 144.34 137.3C143.26 137.9 142.42 138.82 141.82 140.06C141.22 141.3 140.92 142.88 140.92 144.8V161H131.56V143.96C131.56 141.36 131.02 139.44 129.94 138.2C128.9 136.96 127.4 136.34 125.44 136.34C124.08 136.34 122.86 136.66 121.78 137.3C120.7 137.9 119.86 138.82 119.26 140.06C118.66 141.3 118.36 142.88 118.36 144.8V161H109V128.72H117.94V137.54L116.26 134.96C117.38 132.76 118.96 131.1 121 129.98C123.08 128.82 125.44 128.24 128.08 128.24C131.04 128.24 133.62 129 135.82 130.52C138.06 132 139.54 134.28 140.26 137.36L136.96 136.46C138.04 133.94 139.76 131.94 142.12 130.46C144.52 128.98 147.26 128.24 150.34 128.24ZM189.582 161V119H208.662C213.222 119 217.242 119.88 220.722 121.64C224.202 123.36 226.922 125.78 228.882 128.9C230.842 132.02 231.822 135.72 231.822 140C231.822 144.24 230.842 147.94 228.882 151.1C226.922 154.22 224.202 156.66 220.722 158.42C217.242 160.14 213.222 161 208.662 161H189.582ZM199.302 153.02H208.182C210.982 153.02 213.402 152.5 215.442 151.46C217.522 150.38 219.122 148.86 220.242 146.9C221.402 144.94 221.982 142.64 221.982 140C221.982 137.32 221.402 135.02 220.242 133.1C219.122 131.14 217.522 129.64 215.442 128.6C213.402 127.52 210.982 126.98 208.182 126.98H199.302V153.02ZM279.832 128.24C282.392 128.24 284.652 128.76 286.612 129.8C288.612 130.8 290.172 132.36 291.292 134.48C292.452 136.56 293.032 139.24 293.032 142.52V161H283.672V143.96C283.672 141.36 283.132 139.44 282.052 138.2C280.972 136.96 279.452 136.34 277.492 136.34C276.132 136.34 274.912 136.66 273.832 137.3C272.752 137.9 271.912 138.82 271.312 140.06C270.712 141.3 270.412 142.88 270.412 144.8V161H261.052V143.96C261.052 141.36 260.512 139.44 259.432 138.2C258.392 136.96 256.892 136.34 254.932 136.34C253.572 136.34 252.352 136.66 251.272 137.3C250.192 137.9 249.352 138.82 248.752 140.06C248.152 141.3 247.852 142.88 247.852 144.8V161H238.492V128.72H247.432V137.54L245.752 134.96C246.872 132.76 248.452 131.1 250.492 129.98C252.572 128.82 254.932 128.24 257.572 128.24C260.532 128.24 263.112 129 265.312 130.52C267.552 132 269.032 134.28 269.752 137.36L266.452 136.46C267.532 133.94 269.252 131.94 271.612 130.46C274.012 128.98 276.752 128.24 279.832 128.24ZM301.422 161V128.72H310.782V161H301.422ZM306.102 124.22C304.382 124.22 302.982 123.72 301.902 122.72C300.822 121.72 300.282 120.48 300.282 119C300.282 117.52 300.822 116.28 301.902 115.28C302.982 114.28 304.382 113.78 306.102 113.78C307.822 113.78 309.222 114.26 310.302 115.22C311.382 116.14 311.922 117.34 311.922 118.82C311.922 120.38 311.382 121.68 310.302 122.72C309.262 123.72 307.862 124.22 306.102 124.22ZM332.668 161.48C328.868 161.48 325.908 160.52 323.788 158.6C321.668 156.64 320.608 153.74 320.608 149.9V121.58H329.968V149.78C329.968 151.14 330.328 152.2 331.048 152.96C331.768 153.68 332.748 154.04 333.988 154.04C335.468 154.04 336.728 153.64 337.768 152.84L340.288 159.44C339.328 160.12 338.168 160.64 336.808 161C335.488 161.32 334.108 161.48 332.668 161.48ZM315.628 136.64V129.44H338.008V136.64H315.628ZM345.543 161V128.72H354.483V137.84L353.223 135.2C354.183 132.92 355.723 131.2 357.843 130.04C359.963 128.84 362.543 128.24 365.583 128.24V136.88C365.183 136.84 364.823 136.82 364.503 136.82C364.183 136.78 363.843 136.76 363.483 136.76C360.923 136.76 358.843 137.5 357.243 138.98C355.683 140.42 354.903 142.68 354.903 145.76V161H345.543ZM376.341 173.12C374.661 173.12 373.001 172.86 371.361 172.34C369.721 171.82 368.381 171.1 367.341 170.18L370.761 163.52C371.481 164.16 372.301 164.66 373.221 165.02C374.181 165.38 375.121 165.56 376.041 165.56C377.361 165.56 378.401 165.24 379.161 164.6C379.961 164 380.681 162.98 381.321 161.54L383.001 157.58L383.721 156.56L395.301 128.72H404.301L389.721 162.98C388.681 165.58 387.481 167.62 386.121 169.1C384.801 170.58 383.321 171.62 381.681 172.22C380.081 172.82 378.301 173.12 376.341 173.12ZM381.861 162.26L367.461 128.72H377.121L388.281 155.72L381.861 162.26ZM434.473 151.4L433.933 140.18L454.033 119H464.833L446.713 138.5L441.313 144.26L434.473 151.4ZM425.773 161V119H435.433V161H425.773ZM454.513 161L439.573 142.7L445.933 135.8L465.853 161H454.513ZM483.539 161.48C480.099 161.48 477.039 160.76 474.359 159.32C471.719 157.88 469.619 155.92 468.059 153.44C466.539 150.92 465.779 148.06 465.779 144.86C465.779 141.62 466.539 138.76 468.059 136.28C469.619 133.76 471.719 131.8 474.359 130.4C477.039 128.96 480.099 128.24 483.539 128.24C486.939 128.24 489.979 128.96 492.659 130.4C495.339 131.8 497.439 133.74 498.959 136.22C500.479 138.7 501.239 141.58 501.239 144.86C501.239 148.06 500.479 150.92 498.959 153.44C497.439 155.92 495.339 157.88 492.659 159.32C489.979 160.76 486.939 161.48 483.539 161.48ZM483.539 153.8C485.099 153.8 486.499 153.44 487.739 152.72C488.979 152 489.959 150.98 490.679 149.66C491.399 148.3 491.759 146.7 491.759 144.86C491.759 142.98 491.399 141.38 490.679 140.06C489.959 138.74 488.979 137.72 487.739 137C486.499 136.28 485.099 135.92 483.539 135.92C481.979 135.92 480.579 136.28 479.339 137C478.099 137.72 477.099 138.74 476.339 140.06C475.619 141.38 475.259 142.98 475.259 144.86C475.259 146.7 475.619 148.3 476.339 149.66C477.099 150.98 478.099 152 479.339 152.72C480.579 153.44 481.979 153.8 483.539 153.8ZM507.496 161V116.48H516.856V161H507.496ZM540.903 161.48C537.463 161.48 534.403 160.76 531.723 159.32C529.083 157.88 526.983 155.92 525.423 153.44C523.903 150.92 523.143 148.06 523.143 144.86C523.143 141.62 523.903 138.76 525.423 136.28C526.983 133.76 529.083 131.8 531.723 130.4C534.403 128.96 537.463 128.24 540.903 128.24C544.303 128.24 547.343 128.96 550.023 130.4C552.703 131.8 554.803 133.74 556.323 136.22C557.843 138.7 558.603 141.58 558.603 144.86C558.603 148.06 557.843 150.92 556.323 153.44C554.803 155.92 552.703 157.88 550.023 159.32C547.343 160.76 544.303 161.48 540.903 161.48ZM540.903 153.8C542.463 153.8 543.863 153.44 545.103 152.72C546.343 152 547.323 150.98 548.043 149.66C548.763 148.3 549.123 146.7 549.123 144.86C549.123 142.98 548.763 141.38 548.043 140.06C547.323 138.74 546.343 137.72 545.103 137C543.863 136.28 542.463 135.92 540.903 135.92C539.343 135.92 537.943 136.28 536.703 137C535.463 137.72 534.463 138.74 533.703 140.06C532.983 141.38 532.623 142.98 532.623 144.86C532.623 146.7 532.983 148.3 533.703 149.66C534.463 150.98 535.463 152 536.703 152.72C537.943 153.44 539.343 153.8 540.903 153.8ZM575.719 161.48C572.959 161.48 570.299 161.16 567.739 160.52C565.219 159.84 563.219 159 561.739 158L564.859 151.28C566.339 152.2 568.079 152.96 570.079 153.56C572.119 154.12 574.119 154.4 576.079 154.4C578.239 154.4 579.759 154.14 580.639 153.62C581.559 153.1 582.019 152.38 582.019 151.46C582.019 150.7 581.659 150.14 580.939 149.78C580.259 149.38 579.339 149.08 578.179 148.88C577.019 148.68 575.739 148.48 574.339 148.28C572.979 148.08 571.599 147.82 570.199 147.5C568.799 147.14 567.519 146.62 566.359 145.94C565.199 145.26 564.259 144.34 563.539 143.18C562.859 142.02 562.519 140.52 562.519 138.68C562.519 136.64 563.099 134.84 564.259 133.28C565.459 131.72 567.179 130.5 569.419 129.62C571.659 128.7 574.339 128.24 577.459 128.24C579.659 128.24 581.899 128.48 584.179 128.96C586.459 129.44 588.359 130.14 589.879 131.06L586.759 137.72C585.199 136.8 583.619 136.18 582.019 135.86C580.459 135.5 578.939 135.32 577.459 135.32C575.379 135.32 573.859 135.6 572.899 136.16C571.939 136.72 571.459 137.44 571.459 138.32C571.459 139.12 571.799 139.72 572.479 140.12C573.199 140.52 574.139 140.84 575.299 141.08C576.459 141.32 577.719 141.54 579.079 141.74C580.479 141.9 581.879 142.16 583.279 142.52C584.679 142.88 585.939 143.4 587.059 144.08C588.219 144.72 589.159 145.62 589.879 146.78C590.599 147.9 590.959 149.38 590.959 151.22C590.959 153.22 590.359 155 589.159 156.56C587.959 158.08 586.219 159.28 583.939 160.16C581.699 161.04 578.959 161.48 575.719 161.48ZM612.094 161.48C608.654 161.48 605.594 160.76 602.914 159.32C600.274 157.88 598.174 155.92 596.614 153.44C595.094 150.92 594.334 148.06 594.334 144.86C594.334 141.62 595.094 138.76 596.614 136.28C598.174 133.76 600.274 131.8 602.914 130.4C605.594 128.96 608.654 128.24 612.094 128.24C615.494 128.24 618.534 128.96 621.214 130.4C623.894 131.8 625.994 133.74 627.514 136.22C629.034 138.7 629.794 141.58 629.794 144.86C629.794 148.06 629.034 150.92 627.514 153.44C625.994 155.92 623.894 157.88 621.214 159.32C618.534 160.76 615.494 161.48 612.094 161.48ZM612.094 153.8C613.654 153.8 615.054 153.44 616.294 152.72C617.534 152 618.514 150.98 619.234 149.66C619.954 148.3 620.314 146.7 620.314 144.86C620.314 142.98 619.954 141.38 619.234 140.06C618.514 138.74 617.534 137.72 616.294 137C615.054 136.28 613.654 135.92 612.094 135.92C610.534 135.92 609.134 136.28 607.894 137C606.654 137.72 605.654 138.74 604.894 140.06C604.174 141.38 603.814 142.98 603.814 144.86C603.814 146.7 604.174 148.3 604.894 149.66C605.654 150.98 606.654 152 607.894 152.72C609.134 153.44 610.534 153.8 612.094 153.8ZM643.932 161L630.372 128.72H640.032L651.312 156.5H646.512L658.212 128.72H667.212L653.592 161H643.932Z" fill="white"/>
</mask>
<g mask="url(#mask0_40_261)">
<path fill-rule="evenodd" clip-rule="evenodd" d="M259 367.984H1114V-45.9984H259V367.984Z" fill="white"/>
<path fill-rule="evenodd" clip-rule="evenodd" d="M450.46 365.124C446.724 363.91 442.862 362.651 439.101 361.492C421.017 355.917 400.55 348.741 386.529 334.027C375.947 322.921 373.142 308.05 370.429 293.665C369.688 289.729 368.922 285.664 368.007 281.742C365.771 272.148 363.015 262.527 359.581 252.332C358.528 249.191 357.529 245.909 356.565 242.73C354.491 235.896 352.345 228.835 349.374 222.325C344.907 212.555 336.174 209.839 329.064 208.559C320.109 206.956 310.618 205.015 301.698 200.561C287.768 193.6 277.668 181.566 269.917 162.692C265.955 153.04 262.406 143.04 259 133.243V141.884C261.595 149.199 264.309 156.554 267.256 163.73C275.167 183.001 286.007 195.864 300.39 203.048C309.658 207.676 319.382 209.671 328.545 211.315C338.206 213.047 343.651 216.679 346.751 223.464C349.649 229.805 351.767 236.779 353.813 243.524C354.784 246.718 355.789 250.027 356.858 253.201C360.263 263.314 362.994 272.855 365.21 282.363C366.112 286.232 366.87 290.268 367.608 294.17C370.394 308.947 373.278 324.229 384.428 335.932C398.926 351.147 419.803 358.478 438.238 364.158C441.975 365.312 445.826 366.565 449.551 367.779C449.778 367.851 450.008 367.925 450.234 368H459.383C456.391 367.056 453.417 366.087 450.46 365.124Z" fill="url(#paint0_linear_40_261)"/>
<path fill-rule="evenodd" clip-rule="evenodd" d="M634.228 41.7741C625.399 34.8333 616.27 27.6573 609.635 18.4431C599.41 4.23522 598.919 -15.4711 608.384 -31.757C611.702 -37.4646 615.931 -42.2621 620.805 -45.9985H619.665C615.013 -42.2891 610.966 -37.6164 607.76 -32.1006C598.161 -15.5821 598.666 4.41682 609.045 18.8441C615.737 28.1423 624.911 35.3494 633.778 42.3162C639.258 46.6254 644.93 51.0791 649.932 55.9715C662.796 68.5452 669.54 86.051 668.431 103.995C667.288 122.417 658.131 139.502 643.305 150.867C620.953 167.995 593.499 166.644 566.948 165.344C552.65 164.643 537.863 163.915 524.037 166.081C519.901 166.729 515.719 167.247 511.673 167.746C507.084 168.312 502.335 168.898 497.639 169.68C489.376 171.054 481.051 172.779 473.001 174.45C470.158 175.037 467.316 175.63 464.47 176.202L462.834 176.533C444.862 180.171 424.489 184.302 405.807 182.509C394.719 181.445 386.175 177.61 381.746 171.714C378.371 167.217 377.387 161.597 378.824 155.01C381.346 143.427 388.36 133.256 395.14 123.418C398.835 118.061 402.651 112.522 405.661 106.859C411.238 96.3571 415.572 85.0403 419.761 74.0975C420.809 71.3651 421.852 68.6363 422.913 65.924C424.628 61.5506 426.434 57.1271 428.18 52.8486C431.743 44.1289 435.427 35.1134 438.506 26.0367C447.138 0.590096 449.138 -22.6035 444.619 -45.9985H443.888C448.418 -22.6772 446.432 0.441883 437.824 25.8178C434.752 34.8706 431.075 43.8797 427.516 52.5891C425.766 56.871 423.96 61.2947 422.245 65.6748C421.181 68.3865 420.137 71.1189 419.09 73.8513C414.904 84.7775 410.58 96.0739 405.024 106.538C402.036 112.165 398.226 117.687 394.545 123.027C387.726 132.923 380.674 143.151 378.121 154.865C376.642 161.654 377.669 167.462 381.169 172.126C385.719 178.19 394.445 182.125 405.733 183.203C424.527 185.009 444.96 180.865 462.981 177.22L464.616 176.889C467.462 176.31 470.307 175.724 473.15 175.131C481.194 173.466 489.511 171.741 497.757 170.374C502.44 169.592 507.181 169.006 511.764 168.439C515.816 167.941 520.005 167.423 524.149 166.772C537.901 164.619 552.65 165.344 566.911 166.041C593.596 167.351 621.186 168.702 643.747 151.415C658.735 139.927 667.992 122.66 669.143 104.039C670.266 85.8926 663.446 68.1911 650.442 55.4761C645.409 50.5575 639.726 46.0932 634.228 41.7741Z" fill="url(#paint1_linear_40_261)"/>
<path fill-rule="evenodd" clip-rule="evenodd" d="M620.468 47.6432C615.381 43.0001 610.123 38.1991 605.446 33.0752C591.051 17.3038 585.949 -0.275707 590.284 -19.1667C592.57 -29.1262 596.503 -38.3133 601.596 -45.9985H600.746C595.725 -38.3202 591.849 -29.1935 589.586 -19.3218C585.194 -0.195114 590.349 17.5903 604.91 33.5397C609.607 38.6876 614.879 43.4991 619.978 48.1516C628.331 55.7761 636.97 63.66 643.282 73.2115C653.696 88.9622 654.232 107.377 644.713 122.475C633.248 140.668 613.927 147.197 599.74 149.472C585.849 151.699 571.414 152.211 557.458 152.703C549.845 152.972 541.978 153.249 534.307 153.804C520.04 154.832 505.714 156.955 491.856 159.003C483.949 160.176 475.777 161.385 467.698 162.379L467.608 162.389C453.825 164.087 439.571 165.845 426.208 162.79C419.552 161.271 414.734 158.578 411.881 154.795C406.614 147.804 409.181 138.418 412.267 129.405C415.28 120.601 418.185 111.599 420.993 102.893C424.826 91.0102 428.789 78.7199 433.086 66.7664C435.201 60.8802 437.535 54.9172 439.79 49.1494C445.245 35.2073 450.888 20.7913 454.04 6.00382C457.602 -10.7071 458.134 -28.1891 455.636 -45.9985H454.913C457.415 -28.2366 456.893 -10.8012 453.337 5.86224C450.196 20.5923 444.566 34.9818 439.122 48.8996C436.86 54.6707 434.526 60.6411 432.411 66.534C428.111 78.501 424.145 90.7949 420.307 102.684C417.5 111.387 414.598 120.386 411.585 129.183C409.265 135.975 405.375 147.339 411.304 155.209C414.261 159.131 419.218 161.91 426.044 163.47C431.416 164.7 436.92 165.158 442.472 165.158C450.863 165.158 459.366 164.111 467.698 163.083L467.789 163.073C475.874 162.076 484.053 160.866 491.964 159.697C505.807 157.645 520.119 155.529 534.36 154.498C542.017 153.946 549.879 153.67 557.48 153.4C571.462 152.908 585.921 152.396 599.857 150.162C614.193 147.865 633.712 141.258 645.326 122.842C654.99 107.509 654.454 88.814 643.89 72.8342C637.525 63.2082 628.853 55.2945 620.468 47.6432Z" fill="url(#paint2_linear_40_261)"/>
<path fill-rule="evenodd" clip-rule="evenodd" d="M591.005 31.8281C579.457 17.3647 575.43 -0.0572395 579.354 -18.5472C580.773 -25.2215 583.475 -35.3824 588.306 -45.9987H587.522C582.749 -35.4265 580.067 -25.336 578.653 -18.6886C574.68 0.0103836 578.759 17.6241 590.438 32.2595C594.619 37.4952 599.632 42.5957 604.939 47.9997C621.164 64.5086 637.939 81.58 633.208 104.79C628.477 127.98 601.205 134.907 577.972 138.35C569.998 139.533 561.835 140.372 553.941 141.187C549.518 141.645 544.949 142.117 540.461 142.643C535.543 143.219 530.613 143.825 525.683 144.435C509.057 146.487 491.867 148.609 474.921 149.468C451.215 150.674 437.278 144.926 433.496 132.397C430.988 124.089 431.994 114.82 433.239 106.044C433.402 104.901 433.43 103.301 433.461 101.448C433.542 96.9669 433.653 90.8284 436.022 88.9958L436.116 88.8843C437.362 86.5863 437.671 83.9218 437.967 81.3445C438.082 80.3405 438.193 79.3938 438.353 78.4639C439.052 74.441 440.412 70.4219 441.728 66.5339L442.177 65.1994C444.716 57.639 447.729 50.1056 450.644 42.8151C451.918 39.6245 453.239 36.323 454.503 33.0646C462.188 13.2205 466.196 -6.82887 466.412 -26.5316C466.484 -32.9936 466.105 -39.5637 465.667 -45.9987H464.95C465.388 -39.5637 465.767 -32.9903 465.695 -26.5388C465.479 -6.91995 461.484 13.0522 453.831 32.8156C452.568 36.073 451.25 39.372 449.976 42.5625C447.057 49.8599 444.041 57.403 441.498 64.9806L441.046 66.3145C439.723 70.2259 438.353 74.2729 437.647 78.3458C437.483 79.2958 437.365 80.2963 437.254 81.2664C436.968 83.7568 436.669 86.3269 435.514 88.4971C432.939 90.5789 432.832 96.5929 432.745 101.435C432.714 103.267 432.686 104.847 432.529 105.949C431.273 114.8 430.257 124.153 432.807 132.592C436.363 144.374 448.522 150.324 468.986 150.324C470.902 150.324 472.896 150.273 474.956 150.169C491.93 149.307 509.133 147.184 525.773 145.129C530.703 144.519 535.626 143.912 540.545 143.336C545.029 142.811 549.597 142.339 554.015 141.884C561.921 141.069 570.092 140.223 578.08 139.041C599.715 135.833 629.041 128.809 633.912 104.925C638.717 81.3611 621.808 64.1553 605.457 47.5145C600.162 42.1278 595.163 37.037 591.005 31.8281Z" fill="url(#paint3_linear_40_261)"/>
<path fill-rule="evenodd" clip-rule="evenodd" d="M575.501 47.7707C566.244 36.3866 556.674 24.6186 553.747 10.2252C550.797 -4.30888 555.423 -18.7527 559.892 -32.7211C561.291 -37.0871 562.713 -41.582 563.884 -45.9985H563.143C561.986 -41.6521 560.584 -37.2287 559.208 -32.93C554.707 -18.8767 550.056 -4.34614 553.046 10.3638C556.001 24.918 565.629 36.7576 574.94 48.2055C577.18 50.9613 579.497 53.8082 581.646 56.6115C595.568 74.7814 597.993 89.5385 588.848 100.474C579.879 111.201 563.748 115.025 551.963 117.818C538.729 120.955 523.094 124.159 507.47 124.159H507.467C501.734 124.159 496.213 123.718 491.067 122.849C472.28 119.672 461.84 107.519 460.03 86.7584C459.993 69.8286 466.766 53.9973 473.313 38.684C474.02 37.0407 474.723 35.3996 475.415 33.7591C483.037 15.7071 486.715 -0.758156 486.983 -18.0586L487.024 -20.8986C487.142 -28.9708 487.268 -37.559 488.068 -45.9985H487.344C486.551 -37.559 486.426 -28.9777 486.307 -20.9055L486.266 -18.0683C485.998 -0.858898 482.338 15.5252 474.751 33.4928C474.058 35.13 473.356 36.7708 472.652 38.4152C466.077 53.7917 459.276 69.6906 459.317 86.7887C461.154 107.937 471.797 120.302 490.942 123.539C496.132 124.416 501.692 124.86 507.467 124.86H507.47C523.171 124.86 538.858 121.642 552.134 118.495C564.015 115.683 580.283 111.825 589.403 100.916C598.785 89.7 596.366 74.6531 582.221 56.1937C580.064 53.3804 577.747 50.5302 575.501 47.7707Z" fill="url(#paint4_linear_40_261)"/>
<path fill-rule="evenodd" clip-rule="evenodd" d="M427.721 -29.2674C426.312 -34.9985 424.078 -40.6449 421.198 -45.9984H420.395C423.327 -40.6013 425.599 -34.8969 427.025 -29.1026C431.287 -11.7952 429.158 6.66442 420.123 30.75C412.111 52.1041 402.989 71.0757 393.008 87.1394C384.808 100.336 374.677 111.02 363.951 122.33C361.178 125.258 358.308 128.283 355.5 131.332C352.585 134.493 349.683 137.757 346.876 140.914C342.948 145.334 338.885 149.899 334.738 154.256C333.934 155.094 333.116 155.978 332.278 156.88C326.98 162.581 320.975 169.039 313.857 171.485C311.909 172.153 309.919 172.496 307.936 172.496H307.932C293.779 172.489 282.201 155.314 277.88 147.929C270.091 134.614 264.344 120.133 259 105.865V107.896C264.166 121.609 269.767 135.47 277.258 148.276C282.703 157.581 293.929 173.19 307.932 173.19H307.936C309.998 173.19 312.072 172.84 314.093 172.146C321.386 169.64 327.453 163.11 332.807 157.349C333.646 156.449 334.463 155.57 335.263 154.731C339.42 150.368 343.484 145.796 347.419 141.376C350.223 138.219 353.124 134.958 356.033 131.797C358.837 128.755 361.707 125.73 364.48 122.805C375.23 111.468 385.385 100.76 393.62 87.5032C403.625 71.3992 412.768 52.387 420.798 30.9893C429.881 6.76929 432.018 -11.8151 427.721 -29.2674Z" fill="url(#paint5_linear_40_261)"/>
<path fill-rule="evenodd" clip-rule="evenodd" d="M550.769 41.6058C546.978 37.5795 543.061 33.4152 539.735 29.1331C533.364 20.9362 530.164 13.8408 529.659 6.8056C529.106 -0.919617 532.324 -8.18308 535.438 -15.2117C536.2 -16.9262 536.986 -18.7017 537.692 -20.4369C540.107 -26.3496 544.174 -36.3391 545.357 -45.9985H544.636C543.453 -36.4608 539.414 -26.5516 537.028 -20.6963C536.322 -18.9713 535.539 -17.1994 534.781 -15.4877C531.632 -8.38539 528.379 -1.04105 528.943 6.85666C529.458 14.0326 532.704 21.2459 539.161 29.5543C542.507 33.8632 546.44 38.0376 550.241 42.0769C558.028 50.3522 566.082 58.9095 570.029 69.4041C575.923 85.0739 564.554 96.3811 551.949 101.741C541.273 106.279 528.549 108.884 517.044 108.884C504.861 108.884 483.545 105.744 477.669 84.7643C476.274 73.0062 479.134 60.3784 486.165 47.2317C488.329 43.1856 490.917 39.1458 493.415 35.2412C498.018 28.0512 502.778 20.6158 505.352 12.5436C508.521 2.60765 507.231 -7.94793 505.982 -18.153C505.032 -25.9389 504.047 -33.9912 505.049 -41.7131C505.226 -43.0807 505.508 -44.5225 505.877 -45.9985H505.143C504.785 -44.5531 504.51 -43.1447 504.336 -41.8006C503.323 -33.9912 504.315 -25.8981 505.272 -18.0683C506.51 -7.93772 507.791 2.54417 504.666 12.3347C502.12 20.3226 497.385 27.718 492.806 34.8706C490.301 38.7856 487.706 42.8386 485.529 46.9082C478.428 60.183 475.544 72.9454 476.97 84.8954C482.978 106.377 504.659 109.584 517.044 109.584H517.048C528.647 109.584 541.471 106.96 552.234 102.381C565.138 96.8964 576.769 85.2865 570.702 69.1648C566.703 58.5388 558.603 49.9304 550.769 41.6058Z" fill="url(#paint6_linear_40_261)"/>
<path fill-rule="evenodd" clip-rule="evenodd" d="M259 28.1258C259.487 27.5462 260.009 26.9771 260.579 26.4243C267.377 19.8544 276.245 15.8759 284.821 12.0284C286.007 11.4922 287.197 10.9603 288.376 10.4213C303.215 3.64884 322.447 -6.03707 339.609 -20.9289C342.562 -23.4929 345.46 -26.3564 348.525 -29.3888C354.749 -35.5375 361.109 -41.8203 368.345 -45.9984H366.964C360.075 -41.7936 353.984 -35.7768 348.017 -29.8773C344.959 -26.8551 342.068 -24.0013 339.132 -21.4511C322.036 -6.61666 302.863 3.03557 288.071 9.78789C286.894 10.3269 285.708 10.8588 284.518 11.3914C275.887 15.2659 266.963 19.2718 260.075 25.9289C259.696 26.2935 259.341 26.6674 259 27.0475V28.1258Z" fill="url(#paint7_linear_40_261)"/>
<path fill-rule="evenodd" clip-rule="evenodd" d="M416.696 -25.7635C414.056 -33.3742 408.945 -41.0222 401.98 -45.9984H400.734C407.995 -41.1436 413.315 -33.324 416.018 -25.5414C420.85 -11.6296 420.151 4.55854 413.885 23.9513C408.051 41.9962 398.884 61.1397 387.368 79.3093C377.227 95.3131 364.376 107.758 348.201 121.521C347.482 122.135 346.737 122.775 345.965 123.435C335.649 132.29 321.521 144.418 307.755 144.418H307.751C305.573 144.418 303.451 144.101 301.447 143.481C287.74 139.23 279.843 125.824 273.347 111.967C267.165 98.7761 262.813 84.8182 259 70.9167V73.5989C262.656 86.6978 266.862 99.8105 272.697 112.259C279.258 126.258 287.256 139.812 301.231 144.148C303.305 144.789 305.497 145.116 307.751 145.116C307.755 145.116 307.755 145.116 307.755 145.116C321.793 145.116 336.039 132.889 346.438 123.96C347.21 123.3 347.955 122.66 348.671 122.051C364.897 108.244 377.791 95.7541 387.977 79.6772C399.524 61.4596 408.719 42.2628 414.567 24.1605C420.885 4.62257 421.581 -11.7111 416.696 -25.7635Z" fill="url(#paint8_linear_40_261)"/>
<path fill-rule="evenodd" clip-rule="evenodd" d="M383.628 -27.2362C375.38 -27.2362 365.572 -22.9508 354.478 -14.5008C337.949 -1.91054 320.352 8.99915 303.799 18.9141C302.804 19.5106 301.795 20.1073 300.783 20.7034C294.256 24.5476 287.511 28.5266 282.452 34.0756C275.355 41.8651 273.584 51.9659 273.351 59.0681C273.288 61.0316 273.306 63.1783 273.41 65.6306C276.381 83.8948 281.012 102.526 294.625 114.796C299.52 119.203 305.264 121.44 311.696 121.44H311.7C323.553 121.44 335.729 114.001 343.86 108.405C371.111 89.653 391.954 59.3709 402.547 23.146C406.263 10.4377 410.041 -7.80312 399.994 -19.4497C395.533 -24.615 390.029 -27.2362 383.628 -27.2362ZM311.7 122.138H311.696C305.076 122.138 299.168 119.84 294.141 115.308C280.364 102.893 275.692 84.1274 272.697 65.6982C272.589 63.188 272.572 61.025 272.634 59.0438C272.874 51.827 274.676 41.5552 281.916 33.6105C287.044 27.9843 293.842 23.9782 300.414 20.1037C301.423 19.5075 302.428 18.9141 303.424 18.3182C319.959 8.41264 337.535 -2.48325 354.039 -15.0528C365.259 -23.6008 375.216 -27.9367 383.628 -27.9367C390.249 -27.9367 395.94 -25.2311 400.543 -19.9015C410.809 -7.99826 406.997 10.4749 403.236 23.3378C392.601 59.7145 371.66 90.131 344.274 108.978C336.067 114.628 323.755 122.138 311.7 122.138Z" fill="url(#paint9_linear_40_261)"/>
<mask id="path-14-inside-1_40_261" fill="white">
<path fill-rule="evenodd" clip-rule="evenodd" d="M290.732 72.5513C292.11 80.7747 296.124 95.1713 307.57 99.9489C310.726 101.266 314.118 101.933 317.656 101.933C327.244 101.933 338.175 97.1353 350.146 87.6686C369.535 72.3421 384.592 45.9077 388.513 20.3226C389.741 12.3112 389.793 1.95763 383.068 -1.8967C380.973 -3.09591 378.556 -3.70587 375.877 -3.70587C366.727 -3.70587 355.89 3.30174 348.72 7.9377C347.913 8.46017 347.144 8.95558 346.42 9.41733C342.266 12.0586 337.973 14.6218 333.82 17.0981C325.407 22.1152 316.713 27.3032 308.875 33.3511C303.249 37.6907 298.573 42.8822 294.155 49.6812C290.196 55.7797 290.439 63.4102 290.676 70.789C290.693 71.3783 290.715 71.9681 290.732 72.5513ZM317.656 104.733H317.652C313.729 104.729 309.954 103.988 306.44 102.519C293.692 97.1993 289.34 81.6813 287.882 72.9045L287.865 72.7196C287.848 72.1097 287.831 71.4964 287.81 70.8765C287.57 63.4378 287.302 55.0079 291.731 48.1855C296.326 41.11 301.207 35.699 307.094 31.1577C315.067 25.0057 323.838 19.7733 332.32 14.7129C336.456 12.2433 340.736 9.6933 344.851 7.07518C345.572 6.6173 346.333 6.12519 347.133 5.60631C354.592 0.78516 365.861 -6.50232 375.877 -6.50232C379.074 -6.50232 381.982 -5.7643 384.523 -4.30895C391.028 -0.57938 393.324 7.84659 391.352 20.7338C387.33 46.9725 371.866 74.101 351.952 89.8412C339.459 99.7228 327.919 104.733 317.656 104.733Z"/>
</mask>
<path fill-rule="evenodd" clip-rule="evenodd" d="M290.732 72.5513C292.11 80.7747 296.124 95.1713 307.57 99.9489C310.726 101.266 314.118 101.933 317.656 101.933C327.244 101.933 338.175 97.1353 350.146 87.6686C369.535 72.3421 384.592 45.9077 388.513 20.3226C389.741 12.3112 389.793 1.95763 383.068 -1.8967C380.973 -3.09591 378.556 -3.70587 375.877 -3.70587C366.727 -3.70587 355.89 3.30174 348.72 7.9377C347.913 8.46017 347.144 8.95558 346.42 9.41733C342.266 12.0586 337.973 14.6218 333.82 17.0981C325.407 22.1152 316.713 27.3032 308.875 33.3511C303.249 37.6907 298.573 42.8822 294.155 49.6812C290.196 55.7797 290.439 63.4102 290.676 70.789C290.693 71.3783 290.715 71.9681 290.732 72.5513ZM317.656 104.733H317.652C313.729 104.729 309.954 103.988 306.44 102.519C293.692 97.1993 289.34 81.6813 287.882 72.9045L287.865 72.7196C287.848 72.1097 287.831 71.4964 287.81 70.8765C287.57 63.4378 287.302 55.0079 291.731 48.1855C296.326 41.11 301.207 35.699 307.094 31.1577C315.067 25.0057 323.838 19.7733 332.32 14.7129C336.456 12.2433 340.736 9.6933 344.851 7.07518C345.572 6.6173 346.333 6.12519 347.133 5.60631C354.592 0.78516 365.861 -6.50232 375.877 -6.50232C379.074 -6.50232 381.982 -5.7643 384.523 -4.30895C391.028 -0.57938 393.324 7.84659 391.352 20.7338C387.33 46.9725 371.866 74.101 351.952 89.8412C339.459 99.7228 327.919 104.733 317.656 104.733Z" fill="url(#paint10_linear_40_261)"/>
<path d="M290.732 72.5513L284.734 72.7271L284.746 73.1377L284.814 73.5429L290.732 72.5513ZM307.57 99.9489L309.882 94.4119L309.881 94.4118L307.57 99.9489ZM350.146 87.6686L346.426 82.9616L346.425 82.9623L350.146 87.6686ZM388.513 20.3226L382.582 19.4133L382.582 19.4139L388.513 20.3226ZM383.068 -1.8967L386.052 -7.10225L386.049 -7.10378L383.068 -1.8967ZM348.72 7.9377L345.462 2.89917L345.46 2.90088L348.72 7.9377ZM346.42 9.41733L349.639 14.4804L349.647 14.4759L346.42 9.41733ZM333.82 17.0981L330.747 11.9444L330.746 11.9449L333.82 17.0981ZM308.875 33.3511L312.54 38.102L312.54 38.1014L308.875 33.3511ZM294.155 49.6812L289.124 46.4119L289.123 46.4139L294.155 49.6812ZM290.676 70.789L296.674 70.615L296.674 70.6058L296.673 70.5965L290.676 70.789ZM317.652 104.733L317.647 110.733H317.652V104.733ZM306.44 102.519L308.754 96.9835L308.75 96.9821L306.44 102.519ZM287.882 72.9045L281.908 73.457L281.928 73.6733L281.964 73.8876L287.882 72.9045ZM287.865 72.7196L281.868 72.8934L281.873 73.0831L281.891 73.2721L287.865 72.7196ZM287.81 70.8765L281.813 71.07L281.813 71.0778L287.81 70.8765ZM291.731 48.1855L286.699 44.9173L286.698 44.9185L291.731 48.1855ZM307.094 31.1577L310.759 35.9084L310.759 35.9081L307.094 31.1577ZM332.32 14.7129L335.394 19.8655L335.395 19.8647L332.32 14.7129ZM344.851 7.07518L341.633 2.01128L341.631 2.01278L344.851 7.07518ZM347.133 5.60631L343.876 0.567261L343.869 0.571905L347.133 5.60631ZM384.523 -4.30895L387.507 -9.51426L387.505 -9.51506L384.523 -4.30895ZM391.352 20.7338L397.282 21.6429L397.283 21.6415L391.352 20.7338ZM351.952 89.8412L348.231 85.1341L348.23 85.1354L351.952 89.8412ZM284.814 73.5429C285.554 77.9588 287.032 84.2581 290.007 90.221C292.974 96.1681 297.721 102.339 305.259 105.486L309.881 94.4118C305.974 92.7808 302.99 89.365 300.744 84.8636C298.506 80.3779 297.287 75.3671 296.649 71.5597L284.814 73.5429ZM305.259 105.486C309.173 107.12 313.353 107.933 317.656 107.933V95.9333C314.883 95.9333 312.279 95.4128 309.882 94.4119L305.259 105.486ZM317.656 107.933C329.188 107.933 341.422 102.217 353.868 92.3749L346.425 82.9623C334.928 92.0537 325.3 95.9333 317.656 95.9333V107.933ZM353.867 92.3755C374.507 76.0598 390.305 48.2378 394.443 21.2313L382.582 19.4139C378.879 43.5776 364.563 68.6243 346.426 82.9616L353.867 92.3755ZM394.443 21.2319C395.099 16.9559 395.516 11.6478 394.692 6.67407C393.874 1.7328 391.631 -3.9042 386.052 -7.10225L380.084 3.30885C381.229 3.96513 382.323 5.43207 382.853 8.63402C383.378 11.8035 383.155 15.6779 382.582 19.4133L394.443 21.2319ZM386.049 -7.10378C382.953 -8.87601 379.489 -9.70587 375.877 -9.70587V2.29413C377.623 2.29413 378.993 2.68419 380.087 3.31039L386.049 -7.10378ZM375.877 -9.70587C369.926 -9.70587 363.937 -7.47511 358.912 -5.0086C353.797 -2.49784 349.01 0.605274 345.462 2.89917L351.978 12.9762C355.6 10.6342 359.816 7.9155 364.2 5.76346C368.674 3.56718 372.679 2.29413 375.877 2.29413V-9.70587ZM345.46 2.90088C344.658 3.41945 343.902 3.90696 343.193 4.35879L349.647 14.4759C350.386 14.0042 351.167 13.5009 351.98 12.9745L345.46 2.90088ZM343.201 4.35422C339.131 6.94218 334.91 9.46281 330.747 11.9444L336.892 22.2518C341.037 19.7809 345.402 17.1751 349.639 14.4804L343.201 4.35422ZM330.746 11.9449C322.387 16.9304 313.379 22.2969 305.21 28.6009L312.54 38.1014C320.047 32.3094 328.427 27.3001 336.893 22.2513L330.746 11.9449ZM305.21 28.6003C298.977 33.4083 293.858 39.1266 289.124 46.4119L299.186 52.9505C303.288 46.6378 307.521 41.9731 312.54 38.102L305.21 28.6003ZM289.123 46.4139C283.955 54.3733 284.457 64.0515 284.679 70.9815L296.673 70.5965C296.422 62.7689 296.436 57.186 299.188 52.9485L289.123 46.4139ZM284.679 70.9631C284.687 71.249 284.728 72.504 284.734 72.7271L296.729 72.3754C296.702 71.4322 296.7 71.5076 296.674 70.615L284.679 70.9631ZM317.656 98.7327H317.652V110.733H317.656V98.7327ZM317.657 98.7327C314.495 98.7301 311.508 98.1351 308.754 96.9835L304.125 108.055C308.399 109.842 312.962 110.729 317.647 110.733L317.657 98.7327ZM308.75 96.9821C304.144 95.0598 300.758 91.1795 298.278 86.2925C295.796 81.4038 294.477 75.9902 293.801 71.9214L281.964 73.8876C282.746 78.5957 284.331 85.3294 287.577 91.724C290.824 98.1202 295.988 104.659 304.129 108.056L308.75 96.9821ZM293.857 72.3521L293.84 72.1671L281.891 73.2721L281.908 73.457L293.857 72.3521ZM293.863 72.5459C293.845 71.9451 293.828 71.3128 293.806 70.6752L281.813 71.0778C281.833 71.68 281.85 72.2742 281.868 72.8934L293.863 72.5459ZM293.807 70.683C293.554 62.8563 293.532 56.4303 296.763 51.4525L286.698 44.9185C281.072 53.5856 281.585 64.0193 281.813 71.07L293.807 70.683ZM296.763 51.4537C301.039 44.8697 305.475 39.9841 310.759 35.9084L303.429 26.4071C296.939 31.414 291.614 37.3503 286.699 44.9173L296.763 51.4537ZM310.759 35.9081C318.401 30.0116 326.86 24.9574 335.394 19.8655L329.245 9.56031C320.817 14.5893 311.733 19.9999 303.429 26.4074L310.759 35.9081ZM335.395 19.8647C339.515 17.4052 343.871 14.81 348.072 12.1376L341.631 2.01278C337.6 4.5766 333.398 7.08129 329.244 9.56113L335.395 19.8647ZM348.069 12.1391C348.814 11.6657 349.595 11.161 350.398 10.6407L343.869 0.571905C343.071 1.08933 342.329 1.56894 341.633 2.01128L348.069 12.1391ZM350.39 10.6454C354.157 8.21077 358.543 5.38315 363.163 3.14314C367.851 0.870885 372.204 -0.502319 375.877 -0.502319V-12.5023C369.534 -12.5023 363.245 -10.2318 357.929 -7.65501C352.547 -5.04599 347.569 -1.8193 343.876 0.567266L350.39 10.6454ZM375.877 -0.502319C378.126 -0.502319 379.99 0.00896645 381.54 0.897148L387.505 -9.51506C383.975 -11.5376 380.022 -12.5023 375.877 -12.5023V-0.502319ZM381.538 0.896351C384.567 2.63228 387.321 7.41097 385.421 19.8262L397.283 21.6415C399.327 8.28222 397.49 -3.79104 387.507 -9.51426L381.538 0.896351ZM385.421 19.8247C381.617 44.6397 366.895 70.3816 348.231 85.1341L355.672 94.5483C376.836 77.8204 393.042 49.3053 397.282 21.6429L385.421 19.8247ZM348.23 85.1354C336.245 94.6151 326.002 98.7327 317.656 98.7327V110.733C329.837 110.733 342.673 104.83 355.674 94.5471L348.23 85.1354Z" fill="url(#paint11_linear_40_261)" mask="url(#path-14-inside-1_40_261)"/>
<path fill-rule="evenodd" clip-rule="evenodd" d="M356.492 27.8662C349.475 27.8662 339.88 32.6266 336.265 34.4192C327.668 38.684 307.949 50.6416 310.545 69.5084C313.154 78.7331 319.865 80.6775 325.035 80.6775C329.971 80.6808 335.827 78.8578 341.104 75.6775C347.92 71.5709 353.772 65.5801 358.026 58.3497C360.218 54.6237 367.128 41.7506 364.042 32.5024C363.015 29.4264 360.476 27.8662 356.492 27.8662ZM325.035 81.3777C319.614 81.3777 312.583 79.343 309.845 69.6469C307.177 50.2911 327.206 38.1286 335.941 33.796C339.594 31.9835 349.301 27.1687 356.492 27.1687C360.823 27.1687 363.593 28.8901 364.727 32.2866C367.903 41.8077 360.875 54.9099 358.649 58.6969C354.335 66.028 348.4 72.106 341.48 76.2739C336.094 79.518 330.1 81.3777 325.035 81.3777Z" fill="url(#paint12_linear_40_261)"/>
<path fill-rule="evenodd" clip-rule="evenodd" d="M520.805 51.4773C515.176 51.4773 509.631 54.1551 505.585 58.825C501.32 63.7474 499.389 70.2232 500.415 76.1425C503.125 85.2458 513.698 89.3394 522.969 89.3394C522.973 89.3394 522.973 89.3394 522.973 89.3394C532.474 89.3394 540.302 85.3438 543.401 78.9083C545.109 75.3609 545.106 71.5066 543.384 67.4569C540.26 60.0921 532.662 54.563 526.921 52.5386C524.925 51.8339 522.865 51.4773 520.805 51.4773ZM522.973 90.0399C522.973 90.0399 522.973 90.0399 522.969 90.0399C513.43 90.0363 502.541 85.7881 499.716 76.2974C498.644 70.1384 500.638 63.451 505.038 58.374C509.221 53.5459 514.964 50.7796 520.805 50.7796C522.948 50.7796 525.088 51.1503 527.165 51.8811C533.048 53.9566 540.841 59.6303 544.048 67.1872C545.824 71.3686 545.824 75.5224 544.048 79.205C540.83 85.8861 532.756 90.0399 522.973 90.0399Z" fill="url(#paint13_linear_40_261)"/>
<path fill-rule="evenodd" clip-rule="evenodd" d="M71 410.988H1447V88.0012H71V410.988Z" fill="white"/>
<path fill-rule="evenodd" clip-rule="evenodd" d="M114.711 88.0012C111.99 88.7058 109.151 89.3341 106.206 89.8779C94.8401 91.9756 82.9758 92.7902 71 93.0297V93.5816C83.0996 93.3426 95.0983 92.5146 106.626 90.3882C110.265 89.7153 113.742 88.9132 117.04 88.0012H114.711Z" fill="url(#paint14_linear_40_261)"/>
<path fill-rule="evenodd" clip-rule="evenodd" d="M155.483 88.0012C143.484 94.4149 127.387 99.3725 108.989 102.088C96.6266 103.912 83.861 104.8 71 105.229V105.776C83.9619 105.347 96.8445 104.451 109.331 102.608C128.277 99.8112 144.816 94.6647 157.023 88.0012H155.483Z" fill="url(#paint15_linear_40_261)"/>
<path fill-rule="evenodd" clip-rule="evenodd" d="M182.351 88.0012C182.016 88.2245 181.697 88.448 181.355 88.6713C163.03 100.642 136.026 108.977 103.273 112.776C92.5894 114.013 81.6268 114.881 71 115.557V116.106C81.7108 115.43 92.7679 114.555 103.547 113.307C136.576 109.477 163.803 101.068 182.291 88.9895C182.794 88.6612 183.276 88.3323 183.763 88.0012H182.351Z" fill="url(#paint16_linear_40_261)"/>
<path fill-rule="evenodd" clip-rule="evenodd" d="M674.876 156.481C660.666 151.066 645.975 145.467 635.298 138.278C618.841 127.193 618.052 111.818 633.284 99.1123C638.623 94.6592 645.429 90.9163 653.273 88.0011H651.438C643.953 90.8952 637.439 94.5408 632.279 98.8442C616.832 111.732 617.643 127.335 634.348 138.591C645.118 145.845 659.882 151.468 674.151 156.904C682.971 160.266 692.099 163.741 700.148 167.558C720.853 177.368 731.705 191.026 729.92 205.026C728.081 219.399 713.344 232.728 689.484 241.595C653.511 254.958 609.328 253.904 566.598 252.889C543.587 252.342 519.79 251.775 497.539 253.465C490.883 253.97 484.153 254.375 477.641 254.763C470.255 255.205 462.613 255.662 455.055 256.272C441.757 257.345 428.359 258.69 415.404 259.994C410.828 260.452 406.254 260.914 401.674 261.361L399.042 261.619C370.118 264.457 337.332 267.681 307.265 266.282C289.42 265.451 275.669 262.46 268.542 257.86C263.111 254.351 261.526 249.966 263.839 244.827C267.899 235.79 279.186 227.855 290.098 220.179C296.045 216 302.186 211.678 307.03 207.26C316.005 199.066 322.981 190.237 329.722 181.7C331.408 179.568 333.087 177.439 334.795 175.323C337.555 171.91 340.461 168.459 343.271 165.121C349.005 158.318 354.934 151.284 359.889 144.203C373.78 124.349 376.999 106.254 369.727 88.0011H368.55C375.841 106.196 372.644 124.234 358.791 144.032C353.848 151.095 347.93 158.124 342.203 164.919C339.386 168.259 336.479 171.711 333.72 175.128C332.007 177.244 330.326 179.376 328.642 181.507C321.905 190.032 314.946 198.845 306.005 207.01C301.196 211.4 295.064 215.708 289.14 219.874C278.167 227.595 266.817 235.575 262.709 244.714C260.328 250.011 261.981 254.542 267.613 258.181C274.937 262.912 288.979 265.982 307.146 266.824C337.392 268.232 370.275 264.999 399.278 262.155L401.909 261.897C406.489 261.446 411.069 260.988 415.644 260.526C428.589 259.227 441.975 257.881 455.246 256.814C462.782 256.204 470.412 255.747 477.787 255.305C484.309 254.916 491.05 254.511 497.719 254.004C519.851 252.324 543.587 252.889 566.539 253.434C609.484 254.456 653.887 255.51 690.195 242.023C714.317 233.059 729.214 219.588 731.067 205.06C732.874 190.902 721.898 177.091 700.969 167.171C692.869 163.334 683.723 159.851 674.876 156.481Z" fill="url(#paint17_linear_40_261)"/>
<path fill-rule="evenodd" clip-rule="evenodd" d="M652.731 161.06C644.544 157.437 636.082 153.692 628.555 149.694C605.388 137.389 597.178 123.674 604.154 108.935C607.832 101.165 614.162 93.9971 622.358 88.0011H620.992C612.91 93.9917 606.672 101.112 603.03 108.814C595.962 123.737 604.259 137.613 627.693 150.057C635.252 154.073 643.737 157.827 651.942 161.457C665.386 167.405 679.288 173.556 689.448 181.008C706.207 193.297 707.07 207.664 691.75 219.443C673.298 233.637 642.205 238.732 619.373 240.506C597.017 242.244 573.786 242.643 551.325 243.027C539.074 243.237 526.413 243.453 514.067 243.886C491.106 244.688 468.05 246.344 445.749 247.942C433.023 248.857 419.871 249.801 406.87 250.576L406.724 250.584C384.542 251.909 361.603 253.281 340.097 250.897C329.386 249.712 321.631 247.611 317.04 244.659C308.564 239.205 312.695 231.882 317.662 224.85C322.511 217.982 327.185 210.958 331.704 204.166C337.874 194.895 344.251 185.306 351.166 175.98C354.571 171.387 358.327 166.735 361.955 162.235C370.734 151.358 379.816 140.11 384.888 128.573C390.622 115.535 391.478 101.896 387.458 88.0011H386.294C390.32 101.859 389.48 115.462 383.758 128.463C378.702 139.955 369.642 151.182 360.88 162.04C357.241 166.543 353.484 171.201 350.08 175.799C343.16 185.135 336.777 194.727 330.601 204.003C326.083 210.793 321.413 217.814 316.564 224.677C312.83 229.976 306.57 238.842 316.111 244.982C320.87 248.042 328.848 250.211 339.834 251.428C348.478 252.387 357.336 252.745 366.272 252.745C379.777 252.745 393.461 251.927 406.87 251.126L407.015 251.118C420.028 250.34 433.191 249.396 445.923 248.484C468.201 246.883 491.234 245.232 514.152 244.428C526.475 243.997 539.129 243.781 551.361 243.571C573.864 243.187 597.132 242.787 619.561 241.045C642.631 239.252 674.046 234.098 692.736 219.73C708.29 207.767 707.427 193.181 690.425 180.714C680.182 173.204 666.225 167.03 652.731 161.06Z" fill="url(#paint18_linear_40_261)"/>
<path fill-rule="evenodd" clip-rule="evenodd" d="M605.314 148.721C586.729 137.437 580.248 123.844 586.564 109.419C588.848 104.211 593.196 96.2839 600.971 88.0011H599.71C592.027 96.2494 587.711 104.122 585.436 109.308C579.042 123.897 585.605 137.639 604.402 149.058C611.13 153.143 619.198 157.122 627.739 161.338C653.85 174.218 680.848 187.537 673.234 205.646C665.62 223.739 621.73 229.143 584.34 231.829C571.506 232.752 558.37 233.406 545.665 234.042C538.546 234.4 531.194 234.768 523.972 235.178C516.056 235.628 508.122 236.1 500.188 236.576C473.43 238.177 445.766 239.833 418.494 240.503C380.342 241.444 357.913 236.96 351.826 227.184C347.79 220.702 349.408 213.471 351.413 206.624C351.675 205.732 351.72 204.484 351.77 203.038C351.9 199.542 352.079 194.753 355.892 193.323L356.042 193.236C358.047 191.443 358.546 189.365 359.022 187.354C359.206 186.57 359.385 185.832 359.643 185.106C360.768 181.968 362.957 178.832 365.074 175.799L365.796 174.757C369.883 168.859 374.732 162.981 379.424 157.293C381.474 154.804 383.6 152.228 385.634 149.686C398.001 134.204 404.451 118.561 404.799 103.189C404.916 98.1476 404.306 93.0216 403.601 88.0011H402.447C403.152 93.0216 403.763 98.1502 403.646 103.184C403.298 118.49 396.87 134.072 384.552 149.492C382.52 152.033 380.398 154.607 378.349 157.096C373.651 162.79 368.797 168.675 364.705 174.587L363.976 175.627C361.848 178.679 359.643 181.836 358.506 185.014C358.243 185.755 358.053 186.536 357.874 187.293C357.414 189.236 356.933 191.241 355.074 192.934C350.931 194.558 350.758 199.25 350.618 203.028C350.567 204.458 350.523 205.69 350.271 206.55C348.249 213.455 346.614 220.753 350.718 227.337C356.441 236.529 376.009 241.171 408.942 241.171C412.026 241.171 415.235 241.132 418.55 241.05C445.867 240.377 473.553 238.721 500.333 237.118C508.267 236.642 516.19 236.169 524.106 235.719C531.322 235.31 538.675 234.941 545.784 234.586C558.507 233.95 571.657 233.291 584.514 232.368C619.331 229.865 666.528 224.385 674.367 205.751C682.1 187.367 654.887 173.943 628.573 160.96C620.051 156.757 612.006 152.785 605.314 148.721Z" fill="url(#paint19_linear_40_261)"/>
<path fill-rule="evenodd" clip-rule="evenodd" d="M580.363 161.16C565.466 152.278 550.063 143.096 545.353 131.867C540.606 120.527 548.05 109.258 555.242 98.3601C557.494 94.9538 559.783 91.4469 561.668 88.0011H560.475C558.613 91.3922 556.356 94.8433 554.141 98.1971C546.899 109.161 539.413 120.498 544.225 131.975C548.981 143.33 564.475 152.567 579.459 161.499C583.065 163.649 586.794 165.87 590.252 168.057C612.658 182.233 616.561 193.747 601.842 202.279C587.408 210.648 561.448 213.631 542.482 215.81C521.184 218.258 496.022 220.757 470.877 220.757H470.872C461.645 220.757 452.76 220.413 444.478 219.735C414.244 217.256 397.442 207.775 394.53 191.578C394.469 178.369 405.37 166.017 415.907 154.07C417.043 152.788 418.175 151.508 419.288 150.228C431.555 136.144 437.475 123.297 437.905 109.8L437.972 107.584C438.163 101.286 438.364 94.5856 439.652 88.0011H438.487C437.211 94.5856 437.009 101.281 436.819 107.579L436.752 109.792C436.321 123.219 430.43 136.002 418.22 150.02C417.105 151.297 415.975 152.577 414.843 153.86C404.261 165.857 393.315 178.261 393.382 191.601C396.339 208.101 413.466 217.748 444.277 220.274C452.63 220.958 461.578 221.304 470.872 221.304H470.877C496.146 221.304 521.391 218.794 542.757 216.339C561.879 214.144 588.059 211.134 602.737 202.623C617.836 193.873 613.942 182.133 591.178 167.731C587.706 165.536 583.977 163.312 580.363 161.16Z" fill="url(#paint20_linear_40_261)"/>
<path fill-rule="evenodd" clip-rule="evenodd" d="M71 128.076C73.48 127.748 75.9545 127.424 78.396 127.107C104.425 123.705 131.34 120.188 154.76 113.388C176.921 106.951 193.774 98.1423 210.039 88.0012H208.589C192.559 97.9582 175.919 106.601 154.156 112.923C130.875 119.684 104.039 123.19 78.0882 126.581C75.7541 126.886 73.3791 127.196 71 127.509V128.076Z" fill="url(#paint21_linear_40_261)"/>
<path fill-rule="evenodd" clip-rule="evenodd" d="M342.533 101.055C340.265 96.5833 336.67 92.178 332.034 88.0012H330.742C335.461 92.2121 339.117 96.6626 341.412 101.183C348.272 114.686 344.844 129.089 330.305 147.88C317.41 164.54 302.73 179.342 286.666 191.875C273.469 202.171 257.166 210.506 239.904 219.33C235.441 221.614 230.822 223.975 226.303 226.354C221.612 228.82 216.942 231.367 212.424 233.83C206.103 237.278 199.563 240.84 192.889 244.239C191.596 244.893 190.279 245.582 188.931 246.286C180.403 250.734 170.739 255.773 159.284 257.681C156.149 258.202 152.946 258.47 149.755 258.47H149.749C126.972 258.464 108.339 245.064 101.385 239.303C88.849 228.914 79.6 217.616 71 206.485V208.069C79.3142 218.768 88.3284 229.582 100.383 239.573C109.146 246.833 127.213 259.011 149.749 259.011H149.755C153.075 259.011 156.412 258.738 159.665 258.196C171.401 256.241 181.165 251.147 189.782 246.652C191.132 245.95 192.447 245.264 193.735 244.609C200.425 241.206 206.965 237.639 213.298 234.19C217.81 231.727 222.479 229.182 227.161 226.717C231.673 224.343 236.292 221.983 240.754 219.701C258.056 210.856 274.399 202.502 287.651 192.159C303.754 179.594 318.468 164.761 331.391 148.067C346.009 129.17 349.447 114.671 342.533 101.055Z" fill="url(#paint22_linear_40_261)"/>
<path fill-rule="evenodd" clip-rule="evenodd" d="M540.56 156.35C534.46 153.208 528.155 149.959 522.803 146.618C512.55 140.223 507.399 134.688 506.587 129.199C505.698 123.171 510.876 117.505 515.887 112.021C517.114 110.683 518.379 109.298 519.515 107.944C523.401 103.331 529.946 95.5373 531.85 88.0011H530.689C528.787 95.4424 522.287 103.173 518.446 107.742C517.31 109.088 516.05 110.47 514.83 111.806C509.762 117.347 504.527 123.077 505.434 129.239C506.263 134.837 511.487 140.465 521.878 146.947C527.264 150.309 533.593 153.566 539.711 156.717C552.242 163.174 565.204 169.85 571.557 178.038C581.042 190.263 562.746 199.085 542.459 203.267C525.277 206.807 504.801 208.84 486.285 208.84C466.677 208.84 432.373 206.39 422.917 190.022C420.671 180.848 425.274 170.996 436.589 160.739C440.072 157.582 444.238 154.43 448.258 151.384C455.665 145.774 463.325 139.973 467.468 133.675C472.568 125.923 470.492 117.688 468.481 109.726C466.953 103.652 465.368 97.3692 466.981 91.3446C467.266 90.2776 467.72 89.1527 468.313 88.0011H467.132C466.555 89.1288 466.112 90.2276 465.833 91.2763C464.203 97.3692 465.799 103.683 467.339 109.792C469.332 117.696 471.393 125.874 466.365 133.512C462.266 139.745 454.646 145.514 447.277 151.095C443.247 154.149 439.069 157.312 435.565 160.487C424.138 170.843 419.496 180.801 421.791 190.124C431.46 206.884 466.353 209.386 486.285 209.386H486.291C504.958 209.386 525.596 207.339 542.918 203.766C563.686 199.487 582.404 190.429 572.639 177.851C566.204 169.561 553.169 162.844 540.56 156.35Z" fill="url(#paint23_linear_40_261)"/>
<path fill-rule="evenodd" clip-rule="evenodd" d="M71 145.833C71.7839 145.38 72.6232 144.936 73.5419 144.505C84.482 139.379 98.7539 136.275 112.555 133.274C114.464 132.855 116.379 132.44 118.277 132.02C142.158 126.736 173.108 119.179 200.728 107.56C205.481 105.56 210.146 103.326 215.077 100.96C225.095 96.1628 235.33 91.2609 246.975 88.0012H244.752C233.666 91.2818 223.863 95.9761 214.261 100.579C209.339 102.937 204.686 105.163 199.961 107.153C172.448 118.727 141.592 126.257 117.785 131.525C115.892 131.946 113.983 132.361 112.068 132.777C98.1769 135.799 83.8161 138.925 72.7301 144.119C72.1201 144.403 71.549 144.695 71 144.991V145.833Z" fill="url(#paint24_linear_40_261)"/>
<path fill-rule="evenodd" clip-rule="evenodd" d="M324.789 103.788C320.54 97.8506 312.315 91.8837 301.106 88.0012H299.101C310.786 91.7889 319.347 97.8898 323.697 103.962C331.475 114.816 330.349 127.446 320.266 142.576C310.876 156.654 296.123 171.59 277.59 185.766C261.27 198.252 240.587 207.962 214.557 218.7C213.399 219.178 212.201 219.678 210.958 220.193C194.356 227.101 171.619 236.563 149.464 236.563H149.458C145.953 236.563 142.538 236.316 139.312 235.832C117.253 232.515 104.543 222.056 94.0902 211.245C84.1408 200.954 77.137 190.064 71 179.218V181.311C76.8842 191.53 83.6532 201.761 93.0435 211.473C103.603 222.395 116.474 232.97 138.965 236.353C142.303 236.853 145.83 237.108 149.458 237.108C149.464 237.108 149.464 237.108 149.464 237.108C172.056 237.108 194.983 227.568 211.719 220.602C212.962 220.087 214.16 219.588 215.313 219.112C241.427 208.34 262.177 198.596 278.571 186.053C297.153 171.84 311.951 156.862 321.363 142.739C331.53 127.496 332.651 114.752 324.789 103.788Z" fill="url(#paint25_linear_40_261)"/>
<path fill-rule="evenodd" clip-rule="evenodd" d="M271.571 102.639C258.297 102.639 242.512 105.983 224.658 112.576C198.058 122.398 169.737 130.91 143.097 138.646C141.496 139.111 139.872 139.577 138.244 140.042C127.739 143.041 116.884 146.145 108.742 150.475C97.3206 156.552 94.4709 164.433 94.0957 169.974C93.9952 171.506 94.0228 173.18 94.1911 175.094C98.9727 189.343 106.425 203.879 128.333 213.453C136.211 216.891 145.455 218.636 155.807 218.636H155.813C174.889 218.636 194.485 212.832 207.57 208.466C251.427 193.836 284.97 170.21 302.019 141.947C307.999 132.032 314.078 117.801 297.909 108.714C290.731 104.684 281.873 102.639 271.571 102.639ZM155.813 219.18H155.807C145.152 219.18 135.645 217.388 127.555 213.852C105.383 204.166 97.8641 189.525 93.0435 175.146C92.8692 173.188 92.8417 171.5 92.9426 169.955C93.3288 164.324 96.229 156.31 107.88 150.112C116.133 145.722 127.073 142.597 137.65 139.574C139.273 139.109 140.892 138.646 142.493 138.181C169.105 130.453 197.391 121.952 223.952 112.145C242.009 105.476 258.033 102.093 271.571 102.093C282.226 102.093 291.386 104.204 298.793 108.362C315.316 117.649 309.18 132.061 303.128 142.097C286.011 170.478 252.311 194.209 208.236 208.913C195.028 213.321 175.213 219.18 155.813 219.18Z" fill="url(#paint26_linear_40_261)"/>
<mask id="path-32-inside-2_40_261" fill="white">
<path fill-rule="evenodd" clip-rule="evenodd" d="M122.068 180.493C124.286 186.909 130.746 198.141 149.167 201.869C154.246 202.896 159.704 203.417 165.398 203.417C180.829 203.417 198.421 199.674 217.687 192.288C248.89 180.33 273.123 159.706 279.432 139.745C281.409 133.494 281.492 125.416 270.67 122.409C267.299 121.474 263.408 120.998 259.097 120.998C244.371 120.998 226.931 126.465 215.391 130.082C214.093 130.49 212.855 130.876 211.69 131.236C205.005 133.297 198.097 135.297 191.411 137.229C177.873 141.143 163.881 145.191 151.267 149.909C142.213 153.295 134.688 157.346 127.577 162.65C121.205 167.408 121.597 173.361 121.978 179.118C122.006 179.578 122.04 180.038 122.068 180.493ZM165.398 205.601H165.392C159.078 205.598 153.003 205.02 147.347 203.874C126.832 199.724 119.828 187.616 117.482 180.769L117.455 180.625C117.426 180.149 117.399 179.67 117.365 179.187C116.979 173.383 116.548 166.806 123.676 161.483C131.072 155.963 138.926 151.741 148.4 148.198C161.232 143.398 175.348 139.316 188.998 135.368C195.655 133.441 202.542 131.452 209.165 129.409C210.325 129.052 211.55 128.668 212.838 128.263C224.842 124.502 242.977 118.816 259.097 118.816C264.242 118.816 268.922 119.392 273.011 120.527C283.481 123.437 287.175 130.011 284.001 140.065C277.528 160.537 252.641 181.702 220.593 193.983C200.487 201.692 181.916 205.601 165.398 205.601Z"/>
</mask>
<path fill-rule="evenodd" clip-rule="evenodd" d="M122.068 180.493C124.286 186.909 130.746 198.141 149.167 201.869C154.246 202.896 159.704 203.417 165.398 203.417C180.829 203.417 198.421 199.674 217.687 192.288C248.89 180.33 273.123 159.706 279.432 139.745C281.409 133.494 281.492 125.416 270.67 122.409C267.299 121.474 263.408 120.998 259.097 120.998C244.371 120.998 226.931 126.465 215.391 130.082C214.093 130.49 212.855 130.876 211.69 131.236C205.005 133.297 198.097 135.297 191.411 137.229C177.873 141.143 163.881 145.191 151.267 149.909C142.213 153.295 134.688 157.346 127.577 162.65C121.205 167.408 121.597 173.361 121.978 179.118C122.006 179.578 122.04 180.038 122.068 180.493ZM165.398 205.601H165.392C159.078 205.598 153.003 205.02 147.347 203.874C126.832 199.724 119.828 187.616 117.482 180.769L117.455 180.625C117.426 180.149 117.399 179.67 117.365 179.187C116.979 173.383 116.548 166.806 123.676 161.483C131.072 155.963 138.926 151.741 148.4 148.198C161.232 143.398 175.348 139.316 188.998 135.368C195.655 133.441 202.542 131.452 209.165 129.409C210.325 129.052 211.55 128.668 212.838 128.263C224.842 124.502 242.977 118.816 259.097 118.816C264.242 118.816 268.922 119.392 273.011 120.527C283.481 123.437 287.175 130.011 284.001 140.065C277.528 160.537 252.641 181.702 220.593 193.983C200.487 201.692 181.916 205.601 165.398 205.601Z" fill="url(#paint27_linear_40_261)"/>
<path d="M122.068 180.493L116.079 180.855L116.129 181.676L116.397 182.453L122.068 180.493ZM149.167 201.869L150.357 195.988L150.357 195.988L149.167 201.869ZM217.687 192.288L215.54 186.685L215.539 186.685L217.687 192.288ZM279.432 139.745L273.711 137.935L273.711 137.936L279.432 139.745ZM270.67 122.409L272.276 116.628L272.275 116.628L270.67 122.409ZM215.391 130.082L213.597 124.357L213.595 124.357L215.391 130.082ZM211.69 131.236L213.458 136.97L213.463 136.969L211.69 131.236ZM191.411 137.229L189.746 131.465L189.745 131.465L191.411 137.229ZM151.267 149.909L153.368 155.529L153.369 155.529L151.267 149.909ZM127.577 162.65L123.99 157.841L123.988 157.842L127.577 162.65ZM121.978 179.118L127.968 178.76L127.967 178.741L127.965 178.722L121.978 179.118ZM165.392 205.601L165.39 211.601H165.392V205.601ZM147.347 203.874L148.539 197.994L148.537 197.993L147.347 203.874ZM117.482 180.769L111.588 181.893L111.668 182.311L111.806 182.714L117.482 180.769ZM117.455 180.625L111.465 180.982L111.488 181.369L111.561 181.749L117.455 180.625ZM117.365 179.187L111.378 179.585L111.379 179.593L111.38 179.601L117.365 179.187ZM123.676 161.483L120.087 156.675L120.085 156.676L123.676 161.483ZM148.4 148.198L150.502 153.818L150.502 153.818L148.4 148.198ZM188.998 135.368L190.665 141.132L190.666 141.131L188.998 135.368ZM209.165 129.409L207.398 123.675L207.397 123.676L209.165 129.409ZM212.838 128.263L211.044 122.538L211.039 122.539L212.838 128.263ZM273.011 120.527L274.617 114.746L274.616 114.746L273.011 120.527ZM284.001 140.065L289.722 141.874L289.723 141.872L284.001 140.065ZM220.593 193.983L218.446 188.38L218.445 188.381L220.593 193.983ZM116.397 182.453C119.145 190.402 127.024 203.51 147.977 207.75L150.357 195.988C134.468 192.773 129.426 183.416 127.739 178.533L116.397 182.453ZM147.977 207.749C153.484 208.864 159.343 209.417 165.398 209.417V197.417C160.064 197.417 155.008 196.929 150.357 195.988L147.977 207.749ZM165.398 209.417C181.764 209.417 200.1 205.456 219.835 197.89L215.539 186.685C196.742 193.892 179.893 197.417 165.398 197.417V209.417ZM219.834 197.89C235.999 191.695 250.463 183.22 261.783 173.587C273.035 164.011 281.542 152.978 285.153 141.553L273.711 137.936C271.013 146.473 264.249 155.732 254.006 164.448C243.832 173.107 230.578 180.922 215.54 186.685L219.834 197.89ZM285.153 141.554C286.298 137.933 287.22 132.874 285.529 127.922C283.677 122.501 279.185 118.548 272.276 116.628L269.064 128.19C272.977 129.278 273.854 130.867 274.173 131.8C274.651 133.2 274.543 135.306 273.711 137.935L285.153 141.554ZM272.275 116.628C268.278 115.519 263.833 114.998 259.097 114.998V126.998C262.984 126.998 266.319 127.429 269.065 128.191L272.275 116.628ZM259.097 114.998C243.278 114.998 224.918 120.808 213.597 124.357L217.186 135.807C228.944 132.122 245.464 126.998 259.097 126.998V114.998ZM213.595 124.357C212.3 124.763 211.072 125.147 209.917 125.504L213.463 136.969C214.639 136.605 215.885 136.216 217.188 135.807L213.595 124.357ZM209.923 125.503C203.296 127.545 196.437 129.531 189.746 131.465L193.077 142.993C199.756 141.063 206.714 139.049 213.458 136.97L209.923 125.503ZM189.745 131.465C176.253 135.366 162.033 139.476 149.164 144.29L153.369 155.529C165.729 150.906 179.492 146.921 193.078 142.993L189.745 131.465ZM149.165 144.289C139.625 147.857 131.592 152.169 123.99 157.841L131.165 167.459C137.784 162.522 144.8 158.733 153.368 155.529L149.165 144.289ZM123.988 157.842C119.64 161.089 117.365 165.002 116.401 169.152C115.515 172.969 115.812 176.801 115.992 179.515L127.965 178.722C127.764 175.678 127.675 173.656 128.09 171.867C128.428 170.412 129.143 168.969 131.167 167.458L123.988 157.842ZM115.989 179.477C116.005 179.733 116.022 179.985 116.037 180.212C116.053 180.446 116.067 180.653 116.079 180.855L128.057 180.131C128.042 179.879 128.025 179.628 128.01 179.404C127.994 179.171 127.98 178.963 127.968 178.76L115.989 179.477ZM165.398 199.601H165.392V211.601H165.398V199.601ZM165.395 199.601C159.439 199.599 153.765 199.053 148.539 197.994L146.156 209.755C152.24 210.988 158.716 211.598 165.39 211.601L165.395 199.601ZM148.537 197.993C130.478 194.34 124.945 184.038 123.158 178.824L111.806 182.714C114.712 191.195 123.186 205.108 146.158 209.755L148.537 197.993ZM123.376 179.645L123.348 179.5L111.561 181.749L111.588 181.893L123.376 179.645ZM123.444 180.267C123.417 179.81 123.387 179.292 123.351 178.772L111.38 179.601C111.411 180.048 111.436 180.488 111.465 180.982L123.444 180.267ZM123.352 178.788C123.15 175.746 123.05 173.566 123.534 171.567C123.945 169.869 124.838 168.103 127.266 166.291L120.085 156.676C115.385 160.186 112.93 164.37 111.871 168.743C110.886 172.813 111.195 176.824 111.378 179.585L123.352 178.788ZM127.264 166.291C134.165 161.141 141.51 157.181 150.502 153.818L146.298 142.578C136.343 146.302 127.978 150.785 120.087 156.675L127.264 166.291ZM150.502 153.818C163.081 149.113 176.968 145.093 190.665 141.132L187.33 129.604C173.727 133.539 159.384 137.684 146.298 142.578L150.502 153.818ZM190.666 141.131C197.311 139.208 204.251 137.204 210.933 135.143L207.397 123.676C200.833 125.7 193.999 127.674 187.329 129.604L190.666 141.131ZM210.932 135.143C212.108 134.78 213.348 134.392 214.637 133.987L211.039 122.539C209.753 122.943 208.541 123.323 207.398 123.675L210.932 135.143ZM214.632 133.989C226.822 130.169 244.059 124.816 259.097 124.816V112.816C241.895 112.816 222.862 118.834 211.044 122.538L214.632 133.989ZM259.097 124.816C263.81 124.816 267.936 125.345 271.405 126.308L274.616 114.746C269.908 113.438 264.674 112.816 259.097 112.816V124.816ZM271.404 126.308C275.789 127.527 277.63 129.203 278.393 130.558C279.131 131.871 279.573 134.16 278.279 138.259L289.723 141.872C291.603 135.916 291.785 129.891 288.852 124.676C285.943 119.503 280.702 116.437 274.617 114.746L271.404 126.308ZM278.28 138.257C275.501 147.047 268.534 156.568 258.001 165.525C247.537 174.423 233.907 182.455 218.446 188.38L222.74 199.586C239.327 193.23 254.165 184.539 265.775 174.666C277.316 164.853 286.029 153.556 289.722 141.874L278.28 138.257ZM218.445 188.381C198.827 195.903 180.996 199.601 165.398 199.601V211.601C182.835 211.601 202.147 207.482 222.741 199.585L218.445 188.381Z" fill="url(#paint28_linear_40_261)" mask="url(#path-32-inside-2_40_261)"/>
<path fill-rule="evenodd" clip-rule="evenodd" d="M227.899 145.63C216.606 145.63 201.165 149.344 195.346 150.743C181.512 154.07 149.777 163.399 153.954 178.119C158.154 185.316 168.954 186.833 177.274 186.833C185.218 186.836 194.641 185.414 203.135 182.932C214.104 179.728 223.521 175.054 230.368 169.413C233.896 166.506 245.016 156.463 240.049 149.247C238.397 146.847 234.311 145.63 227.899 145.63ZM177.274 187.38C168.55 187.38 157.235 185.792 152.828 178.227C148.534 163.126 180.768 153.637 194.826 150.257C200.705 148.842 216.326 145.086 227.899 145.086C234.87 145.086 239.327 146.429 241.152 149.079C246.264 156.507 234.954 166.73 231.37 169.684C224.429 175.404 214.877 180.146 203.74 183.398C195.073 185.929 185.426 187.38 177.274 187.38Z" fill="url(#paint29_linear_40_261)"/>
<path fill-rule="evenodd" clip-rule="evenodd" d="M492.338 164.051C483.279 164.051 474.355 166.141 467.843 169.784C460.979 173.625 457.872 178.677 459.523 183.295C463.885 190.397 480.9 193.591 495.82 193.591C495.826 193.591 495.826 193.591 495.826 193.591C511.117 193.591 523.715 190.474 528.703 185.453C531.451 182.685 531.446 179.678 528.676 176.519C523.648 170.773 511.42 166.459 502.181 164.879C498.968 164.33 495.653 164.051 492.338 164.051ZM495.826 194.138C495.826 194.138 495.826 194.138 495.82 194.138C480.469 194.135 462.944 190.821 458.398 183.416C456.673 178.611 459.881 173.393 466.963 169.432C473.694 165.665 482.938 163.507 492.338 163.507C495.787 163.507 499.23 163.796 502.573 164.366C512.041 165.986 524.582 170.412 529.744 176.308C532.602 179.571 532.602 182.811 529.744 185.684C524.566 190.897 511.571 194.138 495.826 194.138Z" fill="url(#paint30_linear_40_261)"/>
</g>
<defs>
<linearGradient id="paint0_linear_40_261" x1="359.192" y1="133.243" x2="359.192" y2="368" gradientUnits="userSpaceOnUse">
<stop stop-color="#45207E"/>
<stop offset="1" stop-color="#FF3CE0"/>
</linearGradient>
<linearGradient id="paint1_linear_40_261" x1="523.364" y1="-45.9985" x2="523.364" y2="183.64" gradientUnits="userSpaceOnUse">
<stop stop-color="#45207E"/>
<stop offset="1" stop-color="#FF3CE0"/>
</linearGradient>
<linearGradient id="paint2_linear_40_261" x1="530.192" y1="-45.9985" x2="530.192" y2="165.158" gradientUnits="userSpaceOnUse">
<stop stop-color="#45207E"/>
<stop offset="1" stop-color="#FF3CE0"/>
</linearGradient>
<linearGradient id="paint3_linear_40_261" x1="532.985" y1="-45.9987" x2="532.985" y2="150.324" gradientUnits="userSpaceOnUse">
<stop stop-color="#45207E"/>
<stop offset="1" stop-color="#FF3CE0"/>
</linearGradient>
<linearGradient id="paint4_linear_40_261" x1="527.159" y1="-45.9985" x2="527.159" y2="124.86" gradientUnits="userSpaceOnUse">
<stop stop-color="#45207E"/>
<stop offset="1" stop-color="#FF3CE0"/>
</linearGradient>
<linearGradient id="paint5_linear_40_261" x1="344.427" y1="-45.9984" x2="344.427" y2="173.19" gradientUnits="userSpaceOnUse">
<stop stop-color="#45207E"/>
<stop offset="1" stop-color="#FF3CE0"/>
</linearGradient>
<linearGradient id="paint6_linear_40_261" x1="524.486" y1="-45.9985" x2="524.486" y2="109.584" gradientUnits="userSpaceOnUse">
<stop stop-color="#45207E"/>
<stop offset="1" stop-color="#FF3CE0"/>
</linearGradient>
<linearGradient id="paint7_linear_40_261" x1="313.673" y1="-45.9984" x2="313.673" y2="28.1258" gradientUnits="userSpaceOnUse">
<stop stop-color="#45207E"/>
<stop offset="1" stop-color="#FF3CE0"/>
</linearGradient>
<linearGradient id="paint8_linear_40_261" x1="339.45" y1="-45.9984" x2="339.45" y2="145.116" gradientUnits="userSpaceOnUse">
<stop stop-color="#45207E"/>
<stop offset="1" stop-color="#FF3CE0"/>
</linearGradient>
<linearGradient id="paint9_linear_40_261" x1="339.878" y1="-27.9367" x2="339.878" y2="122.138" gradientUnits="userSpaceOnUse">
<stop stop-color="#45207E"/>
<stop offset="1" stop-color="#FF3CE0"/>
</linearGradient>
<linearGradient id="paint10_linear_40_261" x1="339.867" y1="-6.50232" x2="339.867" y2="104.733" gradientUnits="userSpaceOnUse">
<stop stop-color="#45207E"/>
<stop offset="1" stop-color="#FF3CE0"/>
</linearGradient>
<linearGradient id="paint11_linear_40_261" x1="339.867" y1="-6.50232" x2="339.867" y2="104.733" gradientUnits="userSpaceOnUse">
<stop stop-color="#45207E"/>
<stop offset="1" stop-color="#FF3CE0"/>
</linearGradient>
<linearGradient id="paint12_linear_40_261" x1="337.57" y1="27.1687" x2="337.57" y2="81.3777" gradientUnits="userSpaceOnUse">
<stop stop-color="#45207E"/>
<stop offset="1" stop-color="#FF3CE0"/>
</linearGradient>
<linearGradient id="paint13_linear_40_261" x1="522.406" y1="50.7796" x2="522.406" y2="90.0399" gradientUnits="userSpaceOnUse">
<stop stop-color="#45207E"/>
<stop offset="1" stop-color="#FF3CE0"/>
</linearGradient>
<linearGradient id="paint14_linear_40_261" x1="94.0198" y1="88.0012" x2="94.0198" y2="93.5816" gradientUnits="userSpaceOnUse">
<stop stop-color="#45207E"/>
<stop offset="1" stop-color="#FF3CE0"/>
</linearGradient>
<linearGradient id="paint15_linear_40_261" x1="114.011" y1="88.0012" x2="114.011" y2="105.776" gradientUnits="userSpaceOnUse">
<stop stop-color="#45207E"/>
<stop offset="1" stop-color="#FF3CE0"/>
</linearGradient>
<linearGradient id="paint16_linear_40_261" x1="127.382" y1="88.0012" x2="127.382" y2="116.106" gradientUnits="userSpaceOnUse">
<stop stop-color="#45207E"/>
<stop offset="1" stop-color="#FF3CE0"/>
</linearGradient>
<linearGradient id="paint17_linear_40_261" x1="496.457" y1="88.0011" x2="496.457" y2="267.164" gradientUnits="userSpaceOnUse">
<stop stop-color="#45207E"/>
<stop offset="1" stop-color="#FF3CE0"/>
</linearGradient>
<linearGradient id="paint18_linear_40_261" x1="507.444" y1="88.0011" x2="507.444" y2="252.745" gradientUnits="userSpaceOnUse">
<stop stop-color="#45207E"/>
<stop offset="1" stop-color="#FF3CE0"/>
</linearGradient>
<linearGradient id="paint19_linear_40_261" x1="511.94" y1="88.0011" x2="511.94" y2="241.171" gradientUnits="userSpaceOnUse">
<stop stop-color="#45207E"/>
<stop offset="1" stop-color="#FF3CE0"/>
</linearGradient>
<linearGradient id="paint20_linear_40_261" x1="502.564" y1="88.0011" x2="502.564" y2="221.304" gradientUnits="userSpaceOnUse">
<stop stop-color="#45207E"/>
<stop offset="1" stop-color="#FF3CE0"/>
</linearGradient>
<linearGradient id="paint21_linear_40_261" x1="140.519" y1="88.0012" x2="140.519" y2="128.076" gradientUnits="userSpaceOnUse">
<stop stop-color="#45207E"/>
<stop offset="1" stop-color="#FF3CE0"/>
</linearGradient>
<linearGradient id="paint22_linear_40_261" x1="208.483" y1="88.0012" x2="208.483" y2="259.011" gradientUnits="userSpaceOnUse">
<stop stop-color="#45207E"/>
<stop offset="1" stop-color="#FF3CE0"/>
</linearGradient>
<linearGradient id="paint23_linear_40_261" x1="498.262" y1="88.0011" x2="498.262" y2="209.386" gradientUnits="userSpaceOnUse">
<stop stop-color="#45207E"/>
<stop offset="1" stop-color="#FF3CE0"/>
</linearGradient>
<linearGradient id="paint24_linear_40_261" x1="158.988" y1="88.0012" x2="158.988" y2="145.833" gradientUnits="userSpaceOnUse">
<stop stop-color="#45207E"/>
<stop offset="1" stop-color="#FF3CE0"/>
</linearGradient>
<linearGradient id="paint25_linear_40_261" x1="200.472" y1="88.0012" x2="200.472" y2="237.108" gradientUnits="userSpaceOnUse">
<stop stop-color="#45207E"/>
<stop offset="1" stop-color="#FF3CE0"/>
</linearGradient>
<linearGradient id="paint26_linear_40_261" x1="201.162" y1="102.093" x2="201.162" y2="219.18" gradientUnits="userSpaceOnUse">
<stop stop-color="#45207E"/>
<stop offset="1" stop-color="#FF3CE0"/>
</linearGradient>
<linearGradient id="paint27_linear_40_261" x1="201.143" y1="118.816" x2="201.143" y2="205.601" gradientUnits="userSpaceOnUse">
<stop stop-color="#45207E"/>
<stop offset="1" stop-color="#FF3CE0"/>
</linearGradient>
<linearGradient id="paint28_linear_40_261" x1="201.143" y1="118.816" x2="201.143" y2="205.601" gradientUnits="userSpaceOnUse">
<stop stop-color="#45207E"/>
<stop offset="1" stop-color="#FF3CE0"/>
</linearGradient>
<linearGradient id="paint29_linear_40_261" x1="197.448" y1="145.086" x2="197.448" y2="187.38" gradientUnits="userSpaceOnUse">
<stop stop-color="#45207E"/>
<stop offset="1" stop-color="#FF3CE0"/>
</linearGradient>
<linearGradient id="paint30_linear_40_261" x1="494.914" y1="163.507" x2="494.914" y2="194.138" gradientUnits="userSpaceOnUse">
<stop stop-color="#45207E"/>
<stop offset="1" stop-color="#FF3CE0"/>
</linearGradient>
</defs>
</svg>
