<svg width="43" height="32" viewBox="0 0 43 32" fill="none" xmlns="http://www.w3.org/2000/svg">
<path d="M11.3672 9.36258C11.4997 14.3853 9.23462 15.8062 7.83657 15.8613L7.83532 15.9164V16.2468C8.62632 16.3753 9.62335 16.8196 10.3739 18.0092C11.1244 19.1988 11.3856 20.4141 11.4224 20.8731V24.0673C11.5144 25.2606 12.0969 29.013 14.3486 30.2907C16.6002 31.5684 18.7267 32.0347 19.1498 31.998C19.1498 29.4095 18.5967 22.6354 18.5967 21.3136C18.5967 19.6614 17.3826 18.1744 16.2788 17.1831C15.3958 16.39 14.1817 16.0449 13.6851 15.9715C14.2001 15.9164 15.5393 15.5199 16.7755 14.3743C18.0117 13.2288 18.5047 11.2535 18.5967 10.409L19.1498 0C16.6848 0.422234 11.2348 4.33983 11.3672 9.36258Z" fill="black"/>
<path d="M30.5263 16.7948C30.5263 19.1155 28.6412 20.9968 26.3158 20.9968C23.9904 20.9968 22.1053 19.1155 22.1053 16.7948C22.1053 14.4742 23.9904 12.5929 26.3158 12.5929C28.6412 12.5929 30.5263 14.4742 30.5263 16.7948Z" fill="black"/>
<path d="M42.1053 16.7948C42.1053 19.1155 40.2201 20.9968 37.8947 20.9968C35.5693 20.9968 33.6842 19.1155 33.6842 16.7948C33.6842 14.4742 35.5693 12.5929 37.8947 12.5929C40.2201 12.5929 42.1053 14.4742 42.1053 16.7948Z" fill="black"/>
<path d="M5.57383 28.5283H7.50535V14.2642H0V23.2412C0 27.8675 3.91824 28.5283 5.57383 28.5283Z" fill="black"/>
<path d="M1.93162 3.08416L9.59033e-05 3.08416L9.46538e-05 17.3483H7.50545L7.50545 8.37127C7.50545 3.74505 3.58721 3.08416 1.93162 3.08416Z" fill="black"/>
</svg>
