<svg width="745" height="408" viewBox="0 0 745 408" fill="none" xmlns="http://www.w3.org/2000/svg">
<path d="M137 121.055C158.93 121.055 206.895 119.103 223.316 111.294C243.842 101.534 289.632 104.322 292.263 121.055C294.895 137.788 284.895 191.239 306.474 208.436C328.053 225.634 364.368 245.155 397.526 212.619C430.684 180.084 377 154.985 329.632 160.562C282.263 166.14 278.053 195.887 278.053 208.436C278.053 220.986 315.421 233.07 349.105 181.478C382.789 129.886 331.211 90.8433 294.895 88.5194C258.579 86.1954 227.526 115.477 239.632 152.661C251.737 189.845 296.474 174.042 311.737 133.604C327 93.1673 373.316 92.7025 389.105 111.294C404.895 129.886 438.611 184.267 381.737 196.352C324.862 208.436 252.789 178.689 253.842 88.5194C254.895 -1.65077 367 4.85635 389.105 38.7863C411.211 72.7163 438.041 106.646 423.316 124.773C408.59 142.9 327 153.591 329.632 69.9276C332.263 -13.7354 454.368 -6.76353 470.158 16.0114C485.947 38.7863 469.105 78.6748 370.684 117.801C272.263 156.928 337.526 234 403.842 234C470.158 234 498.053 216.338 511.211 188.45C524.368 160.562 507 107.111 459.632 88.5194C412.263 69.9276 331.737 50.4062 301.737 75.5051C271.737 100.604 277 148.013 335.947 156.844C394.895 165.675 420.158 113.618 423.316 79.6882C426.474 45.7583 459.105 32.2792 481.211 35.5328C503.316 38.7863 518.579 61.0965 518.053 97.3504C517.526 133.604 495.947 166.14 459.632 177.295C423.316 188.45 343.842 161.027 370.684 88.5194C397.526 16.0114 463.316 52.2654 470.158 88.5194C477 124.773 398.579 159.633 409.632 202.394C420.684 245.155 480.684 206.112 492.263 181.478C503.842 156.844 485.947 128.492 444.895 124.773C403.842 121.055 367 147.548 370.684 174.971C374.368 202.394 408.579 211.225 440.684 196.352C472.789 181.478 444.895 130.351 444.895 97.3504C444.895 64.35 473.316 62.0261 485.947 62.4909C498.579 62.9556 506.474 69.4628 505.947 88.5194C505.421 107.576 511.211 125.238 543.316 127.097C569 128.585 603.14 123.689 617 121.055" stroke="white"/>
<path d="M503.622 126C512.486 140.604 531.9 174.823 538.649 194.87C545.397 214.918 570.746 219.435 582.578 219.188" stroke="white"/>
<path d="M515 161C515.592 168.713 515.569 188.569 510.734 206.291C505.899 224.013 514.534 252.021 519.455 263.809" stroke="white"/>
<path d="M307 166C292.119 174.094 263.332 195.511 267.227 216.432C271.121 237.352 234.42 232.326 215.583 227.198" stroke="white"/>
<path d="M139.88 117C139.714 118 138.68 120.1 135.88 120.5C132.38 121 140.38 120.5 141.38 123.5" stroke="white"/>
<path d="M219.152 225.042C218.582 225.88 216.765 227.355 214.055 226.547C210.666 225.537 218.142 228.43 217.795 231.573" stroke="white"/>
<path d="M280.401 260.437C281.311 260.884 283.026 262.476 282.605 265.273C282.08 268.769 283.897 260.963 287.058 260.866" stroke="white"/>
<path d="M616.061 124.505C615.975 123.495 616.457 121.204 619.071 120.124C622.339 118.774 614.711 121.237 613 118.578" stroke="white"/>
<path d="M514.75 263.547C515.699 263.192 518.034 263.038 519.78 265.263C521.962 268.045 517.531 261.365 519.63 259" stroke="white"/>
<path d="M578.449 221.667C578.869 220.744 580.411 218.983 583.219 219.322C586.729 219.745 578.872 218.157 578.683 215" stroke="white"/>
<path d="M395.357 338.313C396.152 338.942 397.492 340.862 396.49 343.506C395.237 346.813 398.663 339.566 401.773 340.14" stroke="white"/>
<path d="M396.5 214C385.333 224 355.2 243.5 324 241.5C292.8 239.5 283.667 255.667 283 264" stroke="white"/>
<path d="M0.5 129C0.5 112.708 13.7076 99.5 30 99.5H122.5V120C122.5 136.292 109.292 149.5 93 149.5H0.5V129Z" stroke="white"/>
<path d="M35.9035 120.072C35.3595 120.072 34.8675 119.952 34.4275 119.712C33.9955 119.464 33.6515 119.1 33.3955 118.62C33.1475 118.14 33.0235 117.54 33.0235 116.82C33.0235 116.1 33.1515 115.5 33.4075 115.02C33.6715 114.54 34.0195 114.18 34.4515 113.94C34.8915 113.7 35.3755 113.58 35.9035 113.58C36.5275 113.58 37.0795 113.716 37.5595 113.988C38.0395 114.26 38.4195 114.64 38.6995 115.128C38.9795 115.608 39.1195 116.172 39.1195 116.82C39.1195 117.468 38.9795 118.036 38.6995 118.524C38.4195 119.012 38.0395 119.392 37.5595 119.664C37.0795 119.936 36.5275 120.072 35.9035 120.072ZM32.5315 120V111.096H33.6835V115.332L33.5635 116.808L33.6355 118.284V120H32.5315ZM35.8075 119.064C36.2155 119.064 36.5795 118.972 36.8995 118.788C37.2275 118.604 37.4835 118.344 37.6675 118.008C37.8595 117.664 37.9555 117.268 37.9555 116.82C37.9555 116.364 37.8595 115.972 37.6675 115.644C37.4835 115.308 37.2275 115.048 36.8995 114.864C36.5795 114.68 36.2155 114.588 35.8075 114.588C35.4075 114.588 35.0435 114.68 34.7155 114.864C34.3955 115.048 34.1395 115.308 33.9475 115.644C33.7635 115.972 33.6715 116.364 33.6715 116.82C33.6715 117.268 33.7635 117.664 33.9475 118.008C34.1395 118.344 34.3955 118.604 34.7155 118.788C35.0435 118.972 35.4075 119.064 35.8075 119.064ZM44.6005 120V118.656L44.5405 118.404V116.112C44.5405 115.624 44.3965 115.248 44.1085 114.984C43.8285 114.712 43.4045 114.576 42.8365 114.576C42.4605 114.576 42.0925 114.64 41.7325 114.768C41.3725 114.888 41.0685 115.052 40.8205 115.26L40.3405 114.396C40.6685 114.132 41.0605 113.932 41.5165 113.796C41.9805 113.652 42.4645 113.58 42.9685 113.58C43.8405 113.58 44.5125 113.792 44.9845 114.216C45.4565 114.64 45.6925 115.288 45.6925 116.16V120H44.6005ZM42.5125 120.072C42.0405 120.072 41.6245 119.992 41.2645 119.832C40.9125 119.672 40.6405 119.452 40.4485 119.172C40.2565 118.884 40.1605 118.56 40.1605 118.2C40.1605 117.856 40.2405 117.544 40.4005 117.264C40.5685 116.984 40.8365 116.76 41.2045 116.592C41.5805 116.424 42.0845 116.34 42.7165 116.34H44.7325V117.168H42.7645C42.1885 117.168 41.8005 117.264 41.6005 117.456C41.4005 117.648 41.3005 117.88 41.3005 118.152C41.3005 118.464 41.4245 118.716 41.6725 118.908C41.9205 119.092 42.2645 119.184 42.7045 119.184C43.1365 119.184 43.5125 119.088 43.8325 118.896C44.1605 118.704 44.3965 118.424 44.5405 118.056L44.7685 118.848C44.6165 119.224 44.3485 119.524 43.9645 119.748C43.5805 119.964 43.0965 120.072 42.5125 120.072ZM50.5964 120.072C49.9484 120.072 49.3684 119.932 48.8564 119.652C48.3524 119.372 47.9564 118.988 47.6684 118.5C47.3804 118.012 47.2364 117.452 47.2364 116.82C47.2364 116.188 47.3804 115.628 47.6684 115.14C47.9564 114.652 48.3524 114.272 48.8564 114C49.3684 113.72 49.9484 113.58 50.5964 113.58C51.1724 113.58 51.6844 113.696 52.1324 113.928C52.5884 114.152 52.9404 114.488 53.1884 114.936L52.3124 115.5C52.1044 115.188 51.8484 114.96 51.5444 114.816C51.2484 114.664 50.9284 114.588 50.5844 114.588C50.1684 114.588 49.7964 114.68 49.4684 114.864C49.1404 115.048 48.8804 115.308 48.6884 115.644C48.4964 115.972 48.4004 116.364 48.4004 116.82C48.4004 117.276 48.4964 117.672 48.6884 118.008C48.8804 118.344 49.1404 118.604 49.4684 118.788C49.7964 118.972 50.1684 119.064 50.5844 119.064C50.9284 119.064 51.2484 118.992 51.5444 118.848C51.8484 118.696 52.1044 118.464 52.3124 118.152L53.1884 118.704C52.9404 119.144 52.5884 119.484 52.1324 119.724C51.6844 119.956 51.1724 120.072 50.5964 120.072ZM55.5339 118.464L55.5579 116.988L59.2179 113.64H60.6099L57.8019 116.4L57.1779 116.928L55.5339 118.464ZM54.5979 120V111.096H55.7499V120H54.5979ZM59.4579 120L56.9619 116.904L57.7059 115.98L60.8739 120H59.4579ZM64.5666 120.072C63.8866 120.072 63.2866 119.932 62.7666 119.652C62.2546 119.372 61.8546 118.988 61.5666 118.5C61.2866 118.012 61.1466 117.452 61.1466 116.82C61.1466 116.188 61.2826 115.628 61.5546 115.14C61.8346 114.652 62.2146 114.272 62.6946 114C63.1826 113.72 63.7306 113.58 64.3386 113.58C64.9546 113.58 65.4986 113.716 65.9706 113.988C66.4426 114.26 66.8106 114.644 67.0746 115.14C67.3466 115.628 67.4826 116.2 67.4826 116.856C67.4826 116.904 67.4786 116.96 67.4706 117.024C67.4706 117.088 67.4666 117.148 67.4586 117.204H62.0466V116.376H66.8586L66.3906 116.664C66.3986 116.256 66.3146 115.892 66.1386 115.572C65.9626 115.252 65.7186 115.004 65.4066 114.828C65.1026 114.644 64.7466 114.552 64.3386 114.552C63.9386 114.552 63.5826 114.644 63.2706 114.828C62.9586 115.004 62.7146 115.256 62.5386 115.584C62.3626 115.904 62.2746 116.272 62.2746 116.688V116.88C62.2746 117.304 62.3706 117.684 62.5626 118.02C62.7626 118.348 63.0386 118.604 63.3906 118.788C63.7426 118.972 64.1466 119.064 64.6026 119.064C64.9786 119.064 65.3186 119 65.6226 118.872C65.9346 118.744 66.2066 118.552 66.4386 118.296L67.0746 119.04C66.7866 119.376 66.4266 119.632 65.9946 119.808C65.5706 119.984 65.0946 120.072 64.5666 120.072ZM72.4782 113.58C72.9982 113.58 73.4542 113.68 73.8462 113.88C74.2462 114.08 74.5582 114.384 74.7822 114.792C75.0062 115.2 75.1182 115.716 75.1182 116.34V120H73.9662V116.472C73.9662 115.856 73.8142 115.392 73.5102 115.08C73.2142 114.768 72.7942 114.612 72.2502 114.612C71.8422 114.612 71.4862 114.692 71.1822 114.852C70.8782 115.012 70.6422 115.248 70.4742 115.56C70.3142 115.872 70.2342 116.26 70.2342 116.724V120H69.0822V113.64H70.1862V115.356L70.0062 114.9C70.2142 114.484 70.5342 114.16 70.9662 113.928C71.3982 113.696 71.9022 113.58 72.4782 113.58ZM79.8782 120.072C79.2622 120.072 78.7102 119.936 78.2222 119.664C77.7422 119.392 77.3622 119.012 77.0822 118.524C76.8022 118.036 76.6622 117.468 76.6622 116.82C76.6622 116.172 76.8022 115.608 77.0822 115.128C77.3622 114.64 77.7422 114.26 78.2222 113.988C78.7102 113.716 79.2622 113.58 79.8782 113.58C80.4142 113.58 80.8982 113.7 81.3302 113.94C81.7622 114.18 82.1062 114.54 82.3622 115.02C82.6262 115.5 82.7582 116.1 82.7582 116.82C82.7582 117.54 82.6302 118.14 82.3742 118.62C82.1262 119.1 81.7862 119.464 81.3542 119.712C80.9222 119.952 80.4302 120.072 79.8782 120.072ZM79.9742 119.064C80.3742 119.064 80.7342 118.972 81.0542 118.788C81.3822 118.604 81.6382 118.344 81.8222 118.008C82.0142 117.664 82.1102 117.268 82.1102 116.82C82.1102 116.364 82.0142 115.972 81.8222 115.644C81.6382 115.308 81.3822 115.048 81.0542 114.864C80.7342 114.68 80.3742 114.588 79.9742 114.588C79.5662 114.588 79.2022 114.68 78.8822 114.864C78.5622 115.048 78.3062 115.308 78.1142 115.644C77.9222 115.972 77.8262 116.364 77.8262 116.82C77.8262 117.268 77.9222 117.664 78.1142 118.008C78.3062 118.344 78.5622 118.604 78.8822 118.788C79.2022 118.972 79.5662 119.064 79.9742 119.064ZM82.1462 120V118.284L82.2182 116.808L82.0982 115.332V111.096H83.2502V120H82.1462ZM26.0939 135.072C25.4139 135.072 24.8139 134.932 24.2939 134.652C23.7819 134.372 23.3819 133.988 23.0939 133.5C22.8139 133.012 22.6739 132.452 22.6739 131.82C22.6739 131.188 22.8099 130.628 23.0819 130.14C23.3619 129.652 23.7419 129.272 24.2219 129C24.7099 128.72 25.2579 128.58 25.8659 128.58C26.4819 128.58 27.0259 128.716 27.4979 128.988C27.9699 129.26 28.3379 129.644 28.6019 130.14C28.8739 130.628 29.0099 131.2 29.0099 131.856C29.0099 131.904 29.0059 131.96 28.9979 132.024C28.9979 132.088 28.9939 132.148 28.9859 132.204H23.5739V131.376H28.3859L27.9179 131.664C27.9259 131.256 27.8419 130.892 27.6659 130.572C27.4899 130.252 27.2459 130.004 26.9339 129.828C26.6299 129.644 26.2739 129.552 25.8659 129.552C25.4659 129.552 25.1099 129.644 24.7979 129.828C24.4859 130.004 24.2419 130.256 24.0659 130.584C23.8899 130.904 23.8019 131.272 23.8019 131.688V131.88C23.8019 132.304 23.8979 132.684 24.0899 133.02C24.2899 133.348 24.5659 133.604 24.9179 133.788C25.2699 133.972 25.6739 134.064 26.1299 134.064C26.5059 134.064 26.8459 134 27.1499 133.872C27.4619 133.744 27.7339 133.552 27.9659 133.296L28.6019 134.04C28.3139 134.376 27.9539 134.632 27.5219 134.808C27.0979 134.984 26.6219 135.072 26.0939 135.072ZM34.0056 128.58C34.5256 128.58 34.9816 128.68 35.3736 128.88C35.7736 129.08 36.0856 129.384 36.3096 129.792C36.5336 130.2 36.6456 130.716 36.6456 131.34V135H35.4936V131.472C35.4936 130.856 35.3416 130.392 35.0376 130.08C34.7416 129.768 34.3216 129.612 33.7776 129.612C33.3696 129.612 33.0136 129.692 32.7096 129.852C32.4056 130.012 32.1696 130.248 32.0016 130.56C31.8416 130.872 31.7616 131.26 31.7616 131.724V135H30.6096V128.64H31.7136V130.356L31.5336 129.9C31.7416 129.484 32.0616 129.16 32.4936 128.928C32.9256 128.696 33.4296 128.58 34.0056 128.58ZM41.5615 137.4C40.9775 137.4 40.4095 137.316 39.8575 137.148C39.3135 136.988 38.8695 136.756 38.5255 136.452L39.0775 135.564C39.3735 135.82 39.7375 136.02 40.1695 136.164C40.6015 136.316 41.0535 136.392 41.5255 136.392C42.2775 136.392 42.8295 136.216 43.1815 135.864C43.5335 135.512 43.7095 134.976 43.7095 134.256V132.912L43.8295 131.652L43.7695 130.38V128.64H44.8615V134.136C44.8615 135.256 44.5815 136.08 44.0215 136.608C43.4615 137.136 42.6415 137.4 41.5615 137.4ZM41.4175 134.736C40.8015 134.736 40.2495 134.608 39.7615 134.352C39.2815 134.088 38.8975 133.724 38.6095 133.26C38.3295 132.796 38.1895 132.26 38.1895 131.652C38.1895 131.036 38.3295 130.5 38.6095 130.044C38.8975 129.58 39.2815 129.22 39.7615 128.964C40.2495 128.708 40.8015 128.58 41.4175 128.58C41.9615 128.58 42.4575 128.692 42.9055 128.916C43.3535 129.132 43.7095 129.468 43.9735 129.924C44.2455 130.38 44.3815 130.956 44.3815 131.652C44.3815 132.34 44.2455 132.912 43.9735 133.368C43.7095 133.824 43.3535 134.168 42.9055 134.4C42.4575 134.624 41.9615 134.736 41.4175 134.736ZM41.5495 133.728C41.9735 133.728 42.3495 133.64 42.6775 133.464C43.0055 133.288 43.2615 133.044 43.4455 132.732C43.6375 132.42 43.7335 132.06 43.7335 131.652C43.7335 131.244 43.6375 130.884 43.4455 130.572C43.2615 130.26 43.0055 130.02 42.6775 129.852C42.3495 129.676 41.9735 129.588 41.5495 129.588C41.1255 129.588 40.7455 129.676 40.4095 129.852C40.0815 130.02 39.8215 130.26 39.6295 130.572C39.4455 130.884 39.3535 131.244 39.3535 131.652C39.3535 132.06 39.4455 132.42 39.6295 132.732C39.8215 133.044 40.0815 133.288 40.4095 133.464C40.7455 133.64 41.1255 133.728 41.5495 133.728ZM47.0627 135V128.64H48.2147V135H47.0627ZM47.6387 127.416C47.4147 127.416 47.2267 127.344 47.0747 127.2C46.9307 127.056 46.8587 126.88 46.8587 126.672C46.8587 126.456 46.9307 126.276 47.0747 126.132C47.2267 125.988 47.4147 125.916 47.6387 125.916C47.8627 125.916 48.0467 125.988 48.1907 126.132C48.3427 126.268 48.4187 126.44 48.4187 126.648C48.4187 126.864 48.3467 127.048 48.2027 127.2C48.0587 127.344 47.8707 127.416 47.6387 127.416ZM53.8103 128.58C54.3303 128.58 54.7863 128.68 55.1783 128.88C55.5783 129.08 55.8903 129.384 56.1143 129.792C56.3383 130.2 56.4503 130.716 56.4503 131.34V135H55.2983V131.472C55.2983 130.856 55.1463 130.392 54.8423 130.08C54.5463 129.768 54.1263 129.612 53.5823 129.612C53.1743 129.612 52.8183 129.692 52.5143 129.852C52.2103 130.012 51.9743 130.248 51.8063 130.56C51.6463 130.872 51.5663 131.26 51.5663 131.724V135H50.4143V128.64H51.5183V130.356L51.3383 129.9C51.5463 129.484 51.8663 129.16 52.2983 128.928C52.7303 128.696 53.2343 128.58 53.8103 128.58ZM61.4142 135.072C60.7342 135.072 60.1342 134.932 59.6142 134.652C59.1022 134.372 58.7022 133.988 58.4142 133.5C58.1342 133.012 57.9942 132.452 57.9942 131.82C57.9942 131.188 58.1302 130.628 58.4022 130.14C58.6822 129.652 59.0622 129.272 59.5422 129C60.0302 128.72 60.5782 128.58 61.1862 128.58C61.8022 128.58 62.3462 128.716 62.8182 128.988C63.2902 129.26 63.6582 129.644 63.9222 130.14C64.1942 130.628 64.3302 131.2 64.3302 131.856C64.3302 131.904 64.3262 131.96 64.3182 132.024C64.3182 132.088 64.3142 132.148 64.3062 132.204H58.8942V131.376H63.7062L63.2382 131.664C63.2462 131.256 63.1622 130.892 62.9862 130.572C62.8102 130.252 62.5662 130.004 62.2542 129.828C61.9502 129.644 61.5942 129.552 61.1862 129.552C60.7862 129.552 60.4302 129.644 60.1182 129.828C59.8062 130.004 59.5622 130.256 59.3862 130.584C59.2102 130.904 59.1222 131.272 59.1222 131.688V131.88C59.1222 132.304 59.2182 132.684 59.4102 133.02C59.6102 133.348 59.8862 133.604 60.2382 133.788C60.5902 133.972 60.9942 134.064 61.4502 134.064C61.8262 134.064 62.1662 134 62.4702 133.872C62.7822 133.744 63.0542 133.552 63.2862 133.296L63.9222 134.04C63.6342 134.376 63.2742 134.632 62.8422 134.808C62.4182 134.984 61.9422 135.072 61.4142 135.072ZM68.7619 135.072C68.0819 135.072 67.4819 134.932 66.9619 134.652C66.4499 134.372 66.0499 133.988 65.7619 133.5C65.4819 133.012 65.3419 132.452 65.3419 131.82C65.3419 131.188 65.4779 130.628 65.7499 130.14C66.0299 129.652 66.4099 129.272 66.8899 129C67.3779 128.72 67.9259 128.58 68.5339 128.58C69.1499 128.58 69.6939 128.716 70.1659 128.988C70.6379 129.26 71.0059 129.644 71.2699 130.14C71.5419 130.628 71.6779 131.2 71.6779 131.856C71.6779 131.904 71.6739 131.96 71.6659 132.024C71.6659 132.088 71.6619 132.148 71.6539 132.204H66.2419V131.376H71.0539L70.5859 131.664C70.5939 131.256 70.5099 130.892 70.3339 130.572C70.1579 130.252 69.9139 130.004 69.6019 129.828C69.2979 129.644 68.9419 129.552 68.5339 129.552C68.1339 129.552 67.7779 129.644 67.4659 129.828C67.1539 130.004 66.9099 130.256 66.7339 130.584C66.5579 130.904 66.4699 131.272 66.4699 131.688V131.88C66.4699 132.304 66.5659 132.684 66.7579 133.02C66.9579 133.348 67.2339 133.604 67.5859 133.788C67.9379 133.972 68.3419 134.064 68.7979 134.064C69.1739 134.064 69.5139 134 69.8179 133.872C70.1299 133.744 70.4019 133.552 70.6339 133.296L71.2699 134.04C70.9819 134.376 70.6219 134.632 70.1899 134.808C69.7659 134.984 69.2899 135.072 68.7619 135.072ZM73.2775 135V128.64H74.3815V130.368L74.2735 129.936C74.4495 129.496 74.7455 129.16 75.1615 128.928C75.5775 128.696 76.0895 128.58 76.6975 128.58V129.696C76.6495 129.688 76.6015 129.684 76.5535 129.684C76.5135 129.684 76.4735 129.684 76.4335 129.684C75.8175 129.684 75.3295 129.868 74.9695 130.236C74.6095 130.604 74.4295 131.136 74.4295 131.832V135H73.2775ZM78.1174 135V128.64H79.2694V135H78.1174ZM78.6934 127.416C78.4694 127.416 78.2814 127.344 78.1294 127.2C77.9854 127.056 77.9134 126.88 77.9134 126.672C77.9134 126.456 77.9854 126.276 78.1294 126.132C78.2814 125.988 78.4694 125.916 78.6934 125.916C78.9174 125.916 79.1014 125.988 79.2454 126.132C79.3974 126.268 79.4734 126.44 79.4734 126.648C79.4734 126.864 79.4014 127.048 79.2574 127.2C79.1134 127.344 78.9254 127.416 78.6934 127.416ZM84.865 128.58C85.385 128.58 85.841 128.68 86.233 128.88C86.633 129.08 86.945 129.384 87.169 129.792C87.393 130.2 87.505 130.716 87.505 131.34V135H86.353V131.472C86.353 130.856 86.201 130.392 85.897 130.08C85.601 129.768 85.181 129.612 84.637 129.612C84.229 129.612 83.873 129.692 83.569 129.852C83.265 130.012 83.029 130.248 82.861 130.56C82.701 130.872 82.621 131.26 82.621 131.724V135H81.469V128.64H82.573V130.356L82.393 129.9C82.601 129.484 82.921 129.16 83.353 128.928C83.785 128.696 84.289 128.58 84.865 128.58ZM92.4209 137.4C91.8369 137.4 91.2689 137.316 90.7169 137.148C90.1729 136.988 89.7289 136.756 89.3849 136.452L89.9369 135.564C90.2329 135.82 90.5969 136.02 91.0289 136.164C91.4609 136.316 91.9129 136.392 92.3849 136.392C93.1369 136.392 93.6889 136.216 94.0409 135.864C94.3929 135.512 94.5689 134.976 94.5689 134.256V132.912L94.6889 131.652L94.6289 130.38V128.64H95.7209V134.136C95.7209 135.256 95.4409 136.08 94.8809 136.608C94.3209 137.136 93.5009 137.4 92.4209 137.4ZM92.2769 134.736C91.6609 134.736 91.1089 134.608 90.6209 134.352C90.1409 134.088 89.7569 133.724 89.4689 133.26C89.1889 132.796 89.0489 132.26 89.0489 131.652C89.0489 131.036 89.1889 130.5 89.4689 130.044C89.7569 129.58 90.1409 129.22 90.6209 128.964C91.1089 128.708 91.6609 128.58 92.2769 128.58C92.8209 128.58 93.3169 128.692 93.7649 128.916C94.2129 129.132 94.5689 129.468 94.8329 129.924C95.1049 130.38 95.2409 130.956 95.2409 131.652C95.2409 132.34 95.1049 132.912 94.8329 133.368C94.5689 133.824 94.2129 134.168 93.7649 134.4C93.3169 134.624 92.8209 134.736 92.2769 134.736ZM92.4089 133.728C92.8329 133.728 93.2089 133.64 93.5369 133.464C93.8649 133.288 94.1209 133.044 94.3049 132.732C94.4969 132.42 94.5929 132.06 94.5929 131.652C94.5929 131.244 94.4969 130.884 94.3049 130.572C94.1209 130.26 93.8649 130.02 93.5369 129.852C93.2089 129.676 92.8329 129.588 92.4089 129.588C91.9849 129.588 91.6049 129.676 91.2689 129.852C90.9409 130.02 90.6809 130.26 90.4889 130.572C90.3049 130.884 90.2129 131.244 90.2129 131.652C90.2129 132.06 90.3049 132.42 90.4889 132.732C90.6809 133.044 90.9409 133.288 91.2689 133.464C91.6049 133.64 91.9849 133.728 92.4089 133.728Z" fill="white"/>
<path d="M79.5 228C79.5 211.708 92.7076 198.5 109 198.5H201.5V219C201.5 235.292 188.292 248.5 172 248.5H79.5V228Z" stroke="white"/>
<path d="M128.474 219.072C127.858 219.072 127.306 218.936 126.818 218.664C126.338 218.392 125.958 218.012 125.678 217.524C125.398 217.036 125.258 216.468 125.258 215.82C125.258 215.172 125.398 214.608 125.678 214.128C125.958 213.64 126.338 213.26 126.818 212.988C127.306 212.716 127.858 212.58 128.474 212.58C129.01 212.58 129.494 212.7 129.926 212.94C130.358 213.18 130.702 213.54 130.958 214.02C131.222 214.5 131.354 215.1 131.354 215.82C131.354 216.54 131.226 217.14 130.97 217.62C130.722 218.1 130.382 218.464 129.95 218.712C129.518 218.952 129.026 219.072 128.474 219.072ZM128.57 218.064C128.97 218.064 129.33 217.972 129.65 217.788C129.978 217.604 130.234 217.344 130.418 217.008C130.61 216.664 130.706 216.268 130.706 215.82C130.706 215.364 130.61 214.972 130.418 214.644C130.234 214.308 129.978 214.048 129.65 213.864C129.33 213.68 128.97 213.588 128.57 213.588C128.162 213.588 127.798 213.68 127.478 213.864C127.158 214.048 126.902 214.308 126.71 214.644C126.518 214.972 126.422 215.364 126.422 215.82C126.422 216.268 126.518 216.664 126.71 217.008C126.902 217.344 127.158 217.604 127.478 217.788C127.798 217.972 128.162 218.064 128.57 218.064ZM130.742 219V217.284L130.814 215.808L130.694 214.332V210.096H131.846V219H130.742ZM137.974 219V217.656L137.914 217.404V215.112C137.914 214.624 137.77 214.248 137.482 213.984C137.202 213.712 136.778 213.576 136.21 213.576C135.834 213.576 135.466 213.64 135.106 213.768C134.746 213.888 134.442 214.052 134.194 214.26L133.714 213.396C134.042 213.132 134.434 212.932 134.89 212.796C135.354 212.652 135.838 212.58 136.342 212.58C137.214 212.58 137.886 212.792 138.358 213.216C138.83 213.64 139.066 214.288 139.066 215.16V219H137.974ZM135.886 219.072C135.414 219.072 134.998 218.992 134.638 218.832C134.286 218.672 134.014 218.452 133.822 218.172C133.63 217.884 133.534 217.56 133.534 217.2C133.534 216.856 133.614 216.544 133.774 216.264C133.942 215.984 134.21 215.76 134.578 215.592C134.954 215.424 135.458 215.34 136.09 215.34H138.106V216.168H136.138C135.562 216.168 135.174 216.264 134.974 216.456C134.774 216.648 134.674 216.88 134.674 217.152C134.674 217.464 134.798 217.716 135.046 217.908C135.294 218.092 135.638 218.184 136.078 218.184C136.51 218.184 136.886 218.088 137.206 217.896C137.534 217.704 137.77 217.424 137.914 217.056L138.142 217.848C137.99 218.224 137.722 218.524 137.338 218.748C136.954 218.964 136.47 219.072 135.886 219.072ZM143.381 219.072C142.741 219.072 142.245 218.9 141.893 218.556C141.541 218.212 141.365 217.72 141.365 217.08V211.248H142.517V217.032C142.517 217.376 142.601 217.64 142.769 217.824C142.945 218.008 143.193 218.1 143.513 218.1C143.873 218.1 144.173 218 144.413 217.8L144.773 218.628C144.597 218.78 144.385 218.892 144.137 218.964C143.897 219.036 143.645 219.072 143.381 219.072ZM140.285 213.588V212.64H144.341V213.588H140.285ZM150.114 219V217.656L150.054 217.404V215.112C150.054 214.624 149.91 214.248 149.622 213.984C149.342 213.712 148.918 213.576 148.35 213.576C147.974 213.576 147.606 213.64 147.246 213.768C146.886 213.888 146.582 214.052 146.334 214.26L145.854 213.396C146.182 213.132 146.574 212.932 147.03 212.796C147.494 212.652 147.978 212.58 148.482 212.58C149.354 212.58 150.026 212.792 150.498 213.216C150.97 213.64 151.206 214.288 151.206 215.16V219H150.114ZM148.026 219.072C147.554 219.072 147.138 218.992 146.778 218.832C146.426 218.672 146.154 218.452 145.962 218.172C145.77 217.884 145.674 217.56 145.674 217.2C145.674 216.856 145.754 216.544 145.914 216.264C146.082 215.984 146.35 215.76 146.718 215.592C147.094 215.424 147.598 215.34 148.23 215.34H150.246V216.168H148.278C147.702 216.168 147.314 216.264 147.114 216.456C146.914 216.648 146.814 216.88 146.814 217.152C146.814 217.464 146.938 217.716 147.186 217.908C147.434 218.092 147.778 218.184 148.218 218.184C148.65 218.184 149.026 218.088 149.346 217.896C149.674 217.704 149.91 217.424 150.054 217.056L150.282 217.848C150.13 218.224 149.862 218.524 149.478 218.748C149.094 218.964 148.61 219.072 148.026 219.072ZM105.094 234.072C104.414 234.072 103.814 233.932 103.294 233.652C102.782 233.372 102.382 232.988 102.094 232.5C101.814 232.012 101.674 231.452 101.674 230.82C101.674 230.188 101.81 229.628 102.082 229.14C102.362 228.652 102.742 228.272 103.222 228C103.71 227.72 104.258 227.58 104.866 227.58C105.482 227.58 106.026 227.716 106.498 227.988C106.97 228.26 107.338 228.644 107.602 229.14C107.874 229.628 108.01 230.2 108.01 230.856C108.01 230.904 108.006 230.96 107.998 231.024C107.998 231.088 107.994 231.148 107.986 231.204H102.574V230.376H107.386L106.918 230.664C106.926 230.256 106.842 229.892 106.666 229.572C106.49 229.252 106.246 229.004 105.934 228.828C105.63 228.644 105.274 228.552 104.866 228.552C104.466 228.552 104.11 228.644 103.798 228.828C103.486 229.004 103.242 229.256 103.066 229.584C102.89 229.904 102.802 230.272 102.802 230.688V230.88C102.802 231.304 102.898 231.684 103.09 232.02C103.29 232.348 103.566 232.604 103.918 232.788C104.27 232.972 104.674 233.064 105.13 233.064C105.506 233.064 105.846 233 106.15 232.872C106.462 232.744 106.734 232.552 106.966 232.296L107.602 233.04C107.314 233.376 106.954 233.632 106.522 233.808C106.098 233.984 105.622 234.072 105.094 234.072ZM113.006 227.58C113.526 227.58 113.982 227.68 114.374 227.88C114.774 228.08 115.086 228.384 115.31 228.792C115.534 229.2 115.646 229.716 115.646 230.34V234H114.494V230.472C114.494 229.856 114.342 229.392 114.038 229.08C113.742 228.768 113.322 228.612 112.778 228.612C112.37 228.612 112.014 228.692 111.71 228.852C111.406 229.012 111.17 229.248 111.002 229.56C110.842 229.872 110.762 230.26 110.762 230.724V234H109.61V227.64H110.714V229.356L110.534 228.9C110.742 228.484 111.062 228.16 111.494 227.928C111.926 227.696 112.43 227.58 113.006 227.58ZM120.562 236.4C119.978 236.4 119.41 236.316 118.858 236.148C118.314 235.988 117.87 235.756 117.526 235.452L118.078 234.564C118.374 234.82 118.738 235.02 119.17 235.164C119.602 235.316 120.054 235.392 120.526 235.392C121.278 235.392 121.83 235.216 122.182 234.864C122.534 234.512 122.71 233.976 122.71 233.256V231.912L122.83 230.652L122.77 229.38V227.64H123.862V233.136C123.862 234.256 123.582 235.08 123.022 235.608C122.462 236.136 121.642 236.4 120.562 236.4ZM120.418 233.736C119.802 233.736 119.25 233.608 118.762 233.352C118.282 233.088 117.898 232.724 117.61 232.26C117.33 231.796 117.19 231.26 117.19 230.652C117.19 230.036 117.33 229.5 117.61 229.044C117.898 228.58 118.282 228.22 118.762 227.964C119.25 227.708 119.802 227.58 120.418 227.58C120.962 227.58 121.458 227.692 121.906 227.916C122.354 228.132 122.71 228.468 122.974 228.924C123.246 229.38 123.382 229.956 123.382 230.652C123.382 231.34 123.246 231.912 122.974 232.368C122.71 232.824 122.354 233.168 121.906 233.4C121.458 233.624 120.962 233.736 120.418 233.736ZM120.55 232.728C120.974 232.728 121.35 232.64 121.678 232.464C122.006 232.288 122.262 232.044 122.446 231.732C122.638 231.42 122.734 231.06 122.734 230.652C122.734 230.244 122.638 229.884 122.446 229.572C122.262 229.26 122.006 229.02 121.678 228.852C121.35 228.676 120.974 228.588 120.55 228.588C120.126 228.588 119.746 228.676 119.41 228.852C119.082 229.02 118.822 229.26 118.63 229.572C118.446 229.884 118.354 230.244 118.354 230.652C118.354 231.06 118.446 231.42 118.63 231.732C118.822 232.044 119.082 232.288 119.41 232.464C119.746 232.64 120.126 232.728 120.55 232.728ZM126.063 234V227.64H127.215V234H126.063ZM126.639 226.416C126.415 226.416 126.227 226.344 126.075 226.2C125.931 226.056 125.859 225.88 125.859 225.672C125.859 225.456 125.931 225.276 126.075 225.132C126.227 224.988 126.415 224.916 126.639 224.916C126.863 224.916 127.047 224.988 127.191 225.132C127.343 225.268 127.419 225.44 127.419 225.648C127.419 225.864 127.347 226.048 127.203 226.2C127.059 226.344 126.871 226.416 126.639 226.416ZM132.81 227.58C133.33 227.58 133.786 227.68 134.178 227.88C134.578 228.08 134.89 228.384 135.114 228.792C135.338 229.2 135.45 229.716 135.45 230.34V234H134.298V230.472C134.298 229.856 134.146 229.392 133.842 229.08C133.546 228.768 133.126 228.612 132.582 228.612C132.174 228.612 131.818 228.692 131.514 228.852C131.21 229.012 130.974 229.248 130.806 229.56C130.646 229.872 130.566 230.26 130.566 230.724V234H129.414V227.64H130.518V229.356L130.338 228.9C130.546 228.484 130.866 228.16 131.298 227.928C131.73 227.696 132.234 227.58 132.81 227.58ZM140.414 234.072C139.734 234.072 139.134 233.932 138.614 233.652C138.102 233.372 137.702 232.988 137.414 232.5C137.134 232.012 136.994 231.452 136.994 230.82C136.994 230.188 137.13 229.628 137.402 229.14C137.682 228.652 138.062 228.272 138.542 228C139.03 227.72 139.578 227.58 140.186 227.58C140.802 227.58 141.346 227.716 141.818 227.988C142.29 228.26 142.658 228.644 142.922 229.14C143.194 229.628 143.33 230.2 143.33 230.856C143.33 230.904 143.326 230.96 143.318 231.024C143.318 231.088 143.314 231.148 143.306 231.204H137.894V230.376H142.706L142.238 230.664C142.246 230.256 142.162 229.892 141.986 229.572C141.81 229.252 141.566 229.004 141.254 228.828C140.95 228.644 140.594 228.552 140.186 228.552C139.786 228.552 139.43 228.644 139.118 228.828C138.806 229.004 138.562 229.256 138.386 229.584C138.21 229.904 138.122 230.272 138.122 230.688V230.88C138.122 231.304 138.218 231.684 138.41 232.02C138.61 232.348 138.886 232.604 139.238 232.788C139.59 232.972 139.994 233.064 140.45 233.064C140.826 233.064 141.166 233 141.47 232.872C141.782 232.744 142.054 232.552 142.286 232.296L142.922 233.04C142.634 233.376 142.274 233.632 141.842 233.808C141.418 233.984 140.942 234.072 140.414 234.072ZM147.762 234.072C147.082 234.072 146.482 233.932 145.962 233.652C145.45 233.372 145.05 232.988 144.762 232.5C144.482 232.012 144.342 231.452 144.342 230.82C144.342 230.188 144.478 229.628 144.75 229.14C145.03 228.652 145.41 228.272 145.89 228C146.378 227.72 146.926 227.58 147.534 227.58C148.15 227.58 148.694 227.716 149.166 227.988C149.638 228.26 150.006 228.644 150.27 229.14C150.542 229.628 150.678 230.2 150.678 230.856C150.678 230.904 150.674 230.96 150.666 231.024C150.666 231.088 150.662 231.148 150.654 231.204H145.242V230.376H150.054L149.586 230.664C149.594 230.256 149.51 229.892 149.334 229.572C149.158 229.252 148.914 229.004 148.602 228.828C148.298 228.644 147.942 228.552 147.534 228.552C147.134 228.552 146.778 228.644 146.466 228.828C146.154 229.004 145.91 229.256 145.734 229.584C145.558 229.904 145.47 230.272 145.47 230.688V230.88C145.47 231.304 145.566 231.684 145.758 232.02C145.958 232.348 146.234 232.604 146.586 232.788C146.938 232.972 147.342 233.064 147.798 233.064C148.174 233.064 148.514 233 148.818 232.872C149.13 232.744 149.402 232.552 149.634 232.296L150.27 233.04C149.982 233.376 149.622 233.632 149.19 233.808C148.766 233.984 148.29 234.072 147.762 234.072ZM152.278 234V227.64H153.382V229.368L153.274 228.936C153.45 228.496 153.746 228.16 154.162 227.928C154.578 227.696 155.09 227.58 155.698 227.58V228.696C155.65 228.688 155.602 228.684 155.554 228.684C155.514 228.684 155.474 228.684 155.434 228.684C154.818 228.684 154.33 228.868 153.97 229.236C153.61 229.604 153.43 230.136 153.43 230.832V234H152.278ZM157.117 234V227.64H158.269V234H157.117ZM157.693 226.416C157.469 226.416 157.281 226.344 157.129 226.2C156.985 226.056 156.913 225.88 156.913 225.672C156.913 225.456 156.985 225.276 157.129 225.132C157.281 224.988 157.469 224.916 157.693 224.916C157.917 224.916 158.101 224.988 158.245 225.132C158.397 225.268 158.473 225.44 158.473 225.648C158.473 225.864 158.401 226.048 158.257 226.2C158.113 226.344 157.925 226.416 157.693 226.416ZM163.865 227.58C164.385 227.58 164.841 227.68 165.233 227.88C165.633 228.08 165.945 228.384 166.169 228.792C166.393 229.2 166.505 229.716 166.505 230.34V234H165.353V230.472C165.353 229.856 165.201 229.392 164.897 229.08C164.601 228.768 164.181 228.612 163.637 228.612C163.229 228.612 162.873 228.692 162.569 228.852C162.265 229.012 162.029 229.248 161.861 229.56C161.701 229.872 161.621 230.26 161.621 230.724V234H160.469V227.64H161.573V229.356L161.393 228.9C161.601 228.484 161.921 228.16 162.353 227.928C162.785 227.696 163.289 227.58 163.865 227.58ZM171.421 236.4C170.837 236.4 170.269 236.316 169.717 236.148C169.173 235.988 168.729 235.756 168.385 235.452L168.937 234.564C169.233 234.82 169.597 235.02 170.029 235.164C170.461 235.316 170.913 235.392 171.385 235.392C172.137 235.392 172.689 235.216 173.041 234.864C173.393 234.512 173.569 233.976 173.569 233.256V231.912L173.689 230.652L173.629 229.38V227.64H174.721V233.136C174.721 234.256 174.441 235.08 173.881 235.608C173.321 236.136 172.501 236.4 171.421 236.4ZM171.277 233.736C170.661 233.736 170.109 233.608 169.621 233.352C169.141 233.088 168.757 232.724 168.469 232.26C168.189 231.796 168.049 231.26 168.049 230.652C168.049 230.036 168.189 229.5 168.469 229.044C168.757 228.58 169.141 228.22 169.621 227.964C170.109 227.708 170.661 227.58 171.277 227.58C171.821 227.58 172.317 227.692 172.765 227.916C173.213 228.132 173.569 228.468 173.833 228.924C174.105 229.38 174.241 229.956 174.241 230.652C174.241 231.34 174.105 231.912 173.833 232.368C173.569 232.824 173.213 233.168 172.765 233.4C172.317 233.624 171.821 233.736 171.277 233.736ZM171.409 232.728C171.833 232.728 172.209 232.64 172.537 232.464C172.865 232.288 173.121 232.044 173.305 231.732C173.497 231.42 173.593 231.06 173.593 230.652C173.593 230.244 173.497 229.884 173.305 229.572C173.121 229.26 172.865 229.02 172.537 228.852C172.209 228.676 171.833 228.588 171.409 228.588C170.985 228.588 170.605 228.676 170.269 228.852C169.941 229.02 169.681 229.26 169.489 229.572C169.305 229.884 169.213 230.244 169.213 230.652C169.213 231.06 169.305 231.42 169.489 231.732C169.681 232.044 169.941 232.288 170.269 232.464C170.605 232.64 170.985 232.728 171.409 232.728Z" fill="white"/>
<path d="M219.5 308C219.5 291.708 232.708 278.5 249 278.5H341.5V299C341.5 315.292 328.292 328.5 312 328.5H219.5V308Z" stroke="white"/>
<path d="M258.071 299.072C257.543 299.072 257.059 298.952 256.619 298.712C256.187 298.464 255.839 298.1 255.575 297.62C255.319 297.14 255.191 296.54 255.191 295.82C255.191 295.1 255.315 294.5 255.563 294.02C255.819 293.54 256.163 293.18 256.595 292.94C257.035 292.7 257.527 292.58 258.071 292.58C258.695 292.58 259.247 292.716 259.727 292.988C260.207 293.26 260.587 293.64 260.867 294.128C261.147 294.608 261.287 295.172 261.287 295.82C261.287 296.468 261.147 297.036 260.867 297.524C260.587 298.012 260.207 298.392 259.727 298.664C259.247 298.936 258.695 299.072 258.071 299.072ZM254.699 301.328V292.64H255.803V294.356L255.731 295.832L255.851 297.308V301.328H254.699ZM257.975 298.064C258.383 298.064 258.747 297.972 259.067 297.788C259.395 297.604 259.651 297.344 259.835 297.008C260.027 296.664 260.123 296.268 260.123 295.82C260.123 295.364 260.027 294.972 259.835 294.644C259.651 294.308 259.395 294.048 259.067 293.864C258.747 293.68 258.383 293.588 257.975 293.588C257.575 293.588 257.211 293.68 256.883 293.864C256.563 294.048 256.307 294.308 256.115 294.644C255.931 294.972 255.839 295.364 255.839 295.82C255.839 296.268 255.931 296.664 256.115 297.008C256.307 297.344 256.563 297.604 256.883 297.788C257.211 297.972 257.575 298.064 257.975 298.064ZM262.879 299V292.64H263.983V294.368L263.875 293.936C264.051 293.496 264.347 293.16 264.763 292.928C265.179 292.696 265.691 292.58 266.299 292.58V293.696C266.251 293.688 266.203 293.684 266.155 293.684C266.115 293.684 266.075 293.684 266.035 293.684C265.419 293.684 264.931 293.868 264.571 294.236C264.211 294.604 264.031 295.136 264.031 295.832V299H262.879ZM270.384 299.072C269.744 299.072 269.176 298.932 268.68 298.652C268.184 298.372 267.792 297.988 267.504 297.5C267.216 297.004 267.072 296.444 267.072 295.82C267.072 295.188 267.216 294.628 267.504 294.14C267.792 293.652 268.184 293.272 268.68 293C269.176 292.72 269.744 292.58 270.384 292.58C271.016 292.58 271.58 292.72 272.076 293C272.58 293.272 272.972 293.652 273.252 294.14C273.54 294.62 273.684 295.18 273.684 295.82C273.684 296.452 273.54 297.012 273.252 297.5C272.972 297.988 272.58 298.372 272.076 298.652C271.58 298.932 271.016 299.072 270.384 299.072ZM270.384 298.064C270.792 298.064 271.156 297.972 271.476 297.788C271.804 297.604 272.06 297.344 272.244 297.008C272.428 296.664 272.52 296.268 272.52 295.82C272.52 295.364 272.428 294.972 272.244 294.644C272.06 294.308 271.804 294.048 271.476 293.864C271.156 293.68 270.792 293.588 270.384 293.588C269.976 293.588 269.612 293.68 269.292 293.864C268.972 294.048 268.716 294.308 268.524 294.644C268.332 294.972 268.236 295.364 268.236 295.82C268.236 296.268 268.332 296.664 268.524 297.008C268.716 297.344 268.972 297.604 269.292 297.788C269.612 297.972 269.976 298.064 270.384 298.064ZM277.906 299.072C277.29 299.072 276.738 298.936 276.25 298.664C275.77 298.392 275.39 298.012 275.11 297.524C274.83 297.036 274.69 296.468 274.69 295.82C274.69 295.172 274.83 294.608 275.11 294.128C275.39 293.64 275.77 293.26 276.25 292.988C276.738 292.716 277.29 292.58 277.906 292.58C278.442 292.58 278.926 292.7 279.358 292.94C279.79 293.18 280.134 293.54 280.39 294.02C280.654 294.5 280.786 295.1 280.786 295.82C280.786 296.54 280.658 297.14 280.402 297.62C280.154 298.1 279.814 298.464 279.382 298.712C278.95 298.952 278.458 299.072 277.906 299.072ZM278.002 298.064C278.402 298.064 278.762 297.972 279.082 297.788C279.41 297.604 279.666 297.344 279.85 297.008C280.042 296.664 280.138 296.268 280.138 295.82C280.138 295.364 280.042 294.972 279.85 294.644C279.666 294.308 279.41 294.048 279.082 293.864C278.762 293.68 278.402 293.588 278.002 293.588C277.594 293.588 277.23 293.68 276.91 293.864C276.59 294.048 276.334 294.308 276.142 294.644C275.95 294.972 275.854 295.364 275.854 295.82C275.854 296.268 275.95 296.664 276.142 297.008C276.334 297.344 276.59 297.604 276.91 297.788C277.23 297.972 277.594 298.064 278.002 298.064ZM280.174 299V297.284L280.246 295.808L280.126 294.332V290.096H281.278V299H280.174ZM286.133 299.072C285.589 299.072 285.109 298.972 284.693 298.772C284.285 298.572 283.965 298.268 283.733 297.86C283.509 297.444 283.397 296.924 283.397 296.3V292.64H284.549V296.168C284.549 296.792 284.697 297.26 284.993 297.572C285.297 297.884 285.721 298.04 286.265 298.04C286.665 298.04 287.013 297.96 287.309 297.8C287.605 297.632 287.833 297.392 287.993 297.08C288.153 296.76 288.233 296.376 288.233 295.928V292.64H289.385V299H288.293V297.284L288.473 297.74C288.265 298.164 287.953 298.492 287.537 298.724C287.121 298.956 286.653 299.072 286.133 299.072ZM294.35 299.072C293.702 299.072 293.122 298.932 292.61 298.652C292.106 298.372 291.71 297.988 291.422 297.5C291.134 297.012 290.99 296.452 290.99 295.82C290.99 295.188 291.134 294.628 291.422 294.14C291.71 293.652 292.106 293.272 292.61 293C293.122 292.72 293.702 292.58 294.35 292.58C294.926 292.58 295.438 292.696 295.886 292.928C296.342 293.152 296.694 293.488 296.942 293.936L296.066 294.5C295.858 294.188 295.602 293.96 295.298 293.816C295.002 293.664 294.682 293.588 294.338 293.588C293.922 293.588 293.55 293.68 293.222 293.864C292.894 294.048 292.634 294.308 292.442 294.644C292.25 294.972 292.154 295.364 292.154 295.82C292.154 296.276 292.25 296.672 292.442 297.008C292.634 297.344 292.894 297.604 293.222 297.788C293.55 297.972 293.922 298.064 294.338 298.064C294.682 298.064 295.002 297.992 295.298 297.848C295.602 297.696 295.858 297.464 296.066 297.152L296.942 297.704C296.694 298.144 296.342 298.484 295.886 298.724C295.438 298.956 294.926 299.072 294.35 299.072ZM300.7 299.072C300.06 299.072 299.564 298.9 299.212 298.556C298.86 298.212 298.684 297.72 298.684 297.08V291.248H299.836V297.032C299.836 297.376 299.92 297.64 300.088 297.824C300.264 298.008 300.512 298.1 300.832 298.1C301.192 298.1 301.492 298 301.732 297.8L302.092 298.628C301.916 298.78 301.704 298.892 301.456 298.964C301.216 299.036 300.964 299.072 300.7 299.072ZM297.604 293.588V292.64H301.66V293.588H297.604ZM240.921 314.072C240.305 314.072 239.753 313.936 239.265 313.664C238.785 313.392 238.405 313.012 238.125 312.524C237.845 312.036 237.705 311.468 237.705 310.82C237.705 310.172 237.845 309.608 238.125 309.128C238.405 308.64 238.785 308.26 239.265 307.988C239.753 307.716 240.305 307.58 240.921 307.58C241.457 307.58 241.941 307.7 242.373 307.94C242.805 308.18 243.149 308.54 243.405 309.02C243.669 309.5 243.801 310.1 243.801 310.82C243.801 311.54 243.673 312.14 243.417 312.62C243.169 313.1 242.829 313.464 242.397 313.712C241.965 313.952 241.473 314.072 240.921 314.072ZM241.017 313.064C241.417 313.064 241.777 312.972 242.097 312.788C242.425 312.604 242.681 312.344 242.865 312.008C243.057 311.664 243.153 311.268 243.153 310.82C243.153 310.364 243.057 309.972 242.865 309.644C242.681 309.308 242.425 309.048 242.097 308.864C241.777 308.68 241.417 308.588 241.017 308.588C240.609 308.588 240.245 308.68 239.925 308.864C239.605 309.048 239.349 309.308 239.157 309.644C238.965 309.972 238.869 310.364 238.869 310.82C238.869 311.268 238.965 311.664 239.157 312.008C239.349 312.344 239.605 312.604 239.925 312.788C240.245 312.972 240.609 313.064 241.017 313.064ZM243.189 314V312.284L243.261 310.808L243.141 309.332V305.096H244.293V314H243.189ZM249.305 314.072C248.625 314.072 248.025 313.932 247.505 313.652C246.993 313.372 246.593 312.988 246.305 312.5C246.025 312.012 245.885 311.452 245.885 310.82C245.885 310.188 246.021 309.628 246.293 309.14C246.573 308.652 246.953 308.272 247.433 308C247.921 307.72 248.469 307.58 249.077 307.58C249.693 307.58 250.237 307.716 250.709 307.988C251.181 308.26 251.549 308.644 251.813 309.14C252.085 309.628 252.221 310.2 252.221 310.856C252.221 310.904 252.217 310.96 252.209 311.024C252.209 311.088 252.205 311.148 252.197 311.204H246.785V310.376H251.597L251.129 310.664C251.137 310.256 251.053 309.892 250.877 309.572C250.701 309.252 250.457 309.004 250.145 308.828C249.841 308.644 249.485 308.552 249.077 308.552C248.677 308.552 248.321 308.644 248.009 308.828C247.697 309.004 247.453 309.256 247.277 309.584C247.101 309.904 247.013 310.272 247.013 310.688V310.88C247.013 311.304 247.109 311.684 247.301 312.02C247.501 312.348 247.777 312.604 248.129 312.788C248.481 312.972 248.885 313.064 249.341 313.064C249.717 313.064 250.057 313 250.361 312.872C250.673 312.744 250.945 312.552 251.177 312.296L251.813 313.04C251.525 313.376 251.165 313.632 250.733 313.808C250.309 313.984 249.833 314.072 249.305 314.072ZM255.371 314L252.587 307.64H253.787L256.259 313.4H255.683L258.203 307.64H259.331L256.547 314H255.371ZM263.063 314.072C262.383 314.072 261.783 313.932 261.263 313.652C260.751 313.372 260.351 312.988 260.063 312.5C259.783 312.012 259.643 311.452 259.643 310.82C259.643 310.188 259.779 309.628 260.051 309.14C260.331 308.652 260.711 308.272 261.191 308C261.679 307.72 262.227 307.58 262.835 307.58C263.451 307.58 263.995 307.716 264.467 307.988C264.939 308.26 265.307 308.644 265.571 309.14C265.843 309.628 265.979 310.2 265.979 310.856C265.979 310.904 265.975 310.96 265.967 311.024C265.967 311.088 265.963 311.148 265.955 311.204H260.543V310.376H265.355L264.887 310.664C264.895 310.256 264.811 309.892 264.635 309.572C264.459 309.252 264.215 309.004 263.903 308.828C263.599 308.644 263.243 308.552 262.835 308.552C262.435 308.552 262.079 308.644 261.767 308.828C261.455 309.004 261.211 309.256 261.035 309.584C260.859 309.904 260.771 310.272 260.771 310.688V310.88C260.771 311.304 260.867 311.684 261.059 312.02C261.259 312.348 261.535 312.604 261.887 312.788C262.239 312.972 262.643 313.064 263.099 313.064C263.475 313.064 263.815 313 264.119 312.872C264.431 312.744 264.703 312.552 264.935 312.296L265.571 313.04C265.283 313.376 264.923 313.632 264.491 313.808C264.067 313.984 263.591 314.072 263.063 314.072ZM267.578 314V305.096H268.73V314H267.578ZM273.654 314.072C273.014 314.072 272.446 313.932 271.95 313.652C271.454 313.372 271.062 312.988 270.774 312.5C270.486 312.004 270.342 311.444 270.342 310.82C270.342 310.188 270.486 309.628 270.774 309.14C271.062 308.652 271.454 308.272 271.95 308C272.446 307.72 273.014 307.58 273.654 307.58C274.286 307.58 274.85 307.72 275.346 308C275.85 308.272 276.242 308.652 276.522 309.14C276.81 309.62 276.954 310.18 276.954 310.82C276.954 311.452 276.81 312.012 276.522 312.5C276.242 312.988 275.85 313.372 275.346 313.652C274.85 313.932 274.286 314.072 273.654 314.072ZM273.654 313.064C274.062 313.064 274.426 312.972 274.746 312.788C275.074 312.604 275.33 312.344 275.514 312.008C275.698 311.664 275.79 311.268 275.79 310.82C275.79 310.364 275.698 309.972 275.514 309.644C275.33 309.308 275.074 309.048 274.746 308.864C274.426 308.68 274.062 308.588 273.654 308.588C273.246 308.588 272.882 308.68 272.562 308.864C272.242 309.048 271.986 309.308 271.794 309.644C271.602 309.972 271.506 310.364 271.506 310.82C271.506 311.268 271.602 311.664 271.794 312.008C271.986 312.344 272.242 312.604 272.562 312.788C272.882 312.972 273.246 313.064 273.654 313.064ZM281.919 314.072C281.391 314.072 280.907 313.952 280.467 313.712C280.035 313.464 279.687 313.1 279.423 312.62C279.167 312.14 279.039 311.54 279.039 310.82C279.039 310.1 279.163 309.5 279.411 309.02C279.667 308.54 280.011 308.18 280.443 307.94C280.883 307.7 281.375 307.58 281.919 307.58C282.543 307.58 283.095 307.716 283.575 307.988C284.055 308.26 284.435 308.64 284.715 309.128C284.995 309.608 285.135 310.172 285.135 310.82C285.135 311.468 284.995 312.036 284.715 312.524C284.435 313.012 284.055 313.392 283.575 313.664C283.095 313.936 282.543 314.072 281.919 314.072ZM278.547 316.328V307.64H279.651V309.356L279.579 310.832L279.699 312.308V316.328H278.547ZM281.823 313.064C282.231 313.064 282.595 312.972 282.915 312.788C283.243 312.604 283.499 312.344 283.683 312.008C283.875 311.664 283.971 311.268 283.971 310.82C283.971 310.364 283.875 309.972 283.683 309.644C283.499 309.308 283.243 309.048 282.915 308.864C282.595 308.68 282.231 308.588 281.823 308.588C281.423 308.588 281.059 308.68 280.731 308.864C280.411 309.048 280.155 309.308 279.963 309.644C279.779 309.972 279.687 310.364 279.687 310.82C279.687 311.268 279.779 311.664 279.963 312.008C280.155 312.344 280.411 312.604 280.731 312.788C281.059 312.972 281.423 313.064 281.823 313.064ZM294.683 307.58C295.195 307.58 295.647 307.68 296.039 307.88C296.431 308.08 296.735 308.384 296.951 308.792C297.175 309.2 297.287 309.716 297.287 310.34V314H296.135V310.472C296.135 309.856 295.991 309.392 295.703 309.08C295.415 308.768 295.011 308.612 294.491 308.612C294.107 308.612 293.771 308.692 293.483 308.852C293.195 309.012 292.971 309.248 292.811 309.56C292.659 309.872 292.583 310.26 292.583 310.724V314H291.431V310.472C291.431 309.856 291.287 309.392 290.999 309.08C290.719 308.768 290.315 308.612 289.787 308.612C289.411 308.612 289.079 308.692 288.791 308.852C288.503 309.012 288.279 309.248 288.119 309.56C287.959 309.872 287.879 310.26 287.879 310.724V314H286.727V307.64H287.831V309.332L287.651 308.9C287.851 308.484 288.159 308.16 288.575 307.928C288.991 307.696 289.475 307.58 290.027 307.58C290.635 307.58 291.159 307.732 291.599 308.036C292.039 308.332 292.327 308.784 292.463 309.392L291.995 309.2C292.187 308.712 292.523 308.32 293.003 308.024C293.483 307.728 294.043 307.58 294.683 307.58ZM302.238 314.072C301.558 314.072 300.958 313.932 300.438 313.652C299.926 313.372 299.526 312.988 299.238 312.5C298.958 312.012 298.818 311.452 298.818 310.82C298.818 310.188 298.954 309.628 299.226 309.14C299.506 308.652 299.886 308.272 300.366 308C300.854 307.72 301.402 307.58 302.01 307.58C302.626 307.58 303.17 307.716 303.642 307.988C304.114 308.26 304.482 308.644 304.746 309.14C305.018 309.628 305.154 310.2 305.154 310.856C305.154 310.904 305.15 310.96 305.142 311.024C305.142 311.088 305.138 311.148 305.13 311.204H299.718V310.376H304.53L304.062 310.664C304.07 310.256 303.986 309.892 303.81 309.572C303.634 309.252 303.39 309.004 303.078 308.828C302.774 308.644 302.418 308.552 302.01 308.552C301.61 308.552 301.254 308.644 300.942 308.828C300.63 309.004 300.386 309.256 300.21 309.584C300.034 309.904 299.946 310.272 299.946 310.688V310.88C299.946 311.304 300.042 311.684 300.234 312.02C300.434 312.348 300.71 312.604 301.062 312.788C301.414 312.972 301.818 313.064 302.274 313.064C302.65 313.064 302.99 313 303.294 312.872C303.606 312.744 303.878 312.552 304.11 312.296L304.746 313.04C304.458 313.376 304.098 313.632 303.666 313.808C303.242 313.984 302.766 314.072 302.238 314.072ZM310.15 307.58C310.67 307.58 311.126 307.68 311.518 307.88C311.918 308.08 312.23 308.384 312.454 308.792C312.678 309.2 312.79 309.716 312.79 310.34V314H311.638V310.472C311.638 309.856 311.486 309.392 311.182 309.08C310.886 308.768 310.466 308.612 309.922 308.612C309.514 308.612 309.158 308.692 308.854 308.852C308.55 309.012 308.314 309.248 308.146 309.56C307.986 309.872 307.906 310.26 307.906 310.724V314H306.754V307.64H307.858V309.356L307.678 308.9C307.886 308.484 308.206 308.16 308.638 307.928C309.07 307.696 309.574 307.58 310.15 307.58ZM317.106 314.072C316.466 314.072 315.97 313.9 315.618 313.556C315.266 313.212 315.09 312.72 315.09 312.08V306.248H316.242V312.032C316.242 312.376 316.326 312.64 316.494 312.824C316.67 313.008 316.918 313.1 317.238 313.1C317.598 313.1 317.898 313 318.138 312.8L318.498 313.628C318.322 313.78 318.11 313.892 317.862 313.964C317.622 314.036 317.37 314.072 317.106 314.072ZM314.01 308.588V307.64H318.066V308.588H314.01Z" fill="white"/>
<path d="M481.5 308C481.5 291.708 494.708 278.5 511 278.5H603.5V299C603.5 315.292 590.292 328.5 574 328.5H481.5V308Z" stroke="white"/>
<path d="M516.702 299.072C516.158 299.072 515.666 298.952 515.226 298.712C514.794 298.464 514.45 298.1 514.194 297.62C513.946 297.14 513.822 296.54 513.822 295.82C513.822 295.1 513.95 294.5 514.206 294.02C514.47 293.54 514.818 293.18 515.25 292.94C515.69 292.7 516.174 292.58 516.702 292.58C517.326 292.58 517.878 292.716 518.358 292.988C518.838 293.26 519.218 293.64 519.498 294.128C519.778 294.608 519.918 295.172 519.918 295.82C519.918 296.468 519.778 297.036 519.498 297.524C519.218 298.012 518.838 298.392 518.358 298.664C517.878 298.936 517.326 299.072 516.702 299.072ZM513.33 299V290.096H514.482V294.332L514.362 295.808L514.434 297.284V299H513.33ZM516.606 298.064C517.014 298.064 517.378 297.972 517.698 297.788C518.026 297.604 518.282 297.344 518.466 297.008C518.658 296.664 518.754 296.268 518.754 295.82C518.754 295.364 518.658 294.972 518.466 294.644C518.282 294.308 518.026 294.048 517.698 293.864C517.378 293.68 517.014 293.588 516.606 293.588C516.206 293.588 515.842 293.68 515.514 293.864C515.194 294.048 514.938 294.308 514.746 294.644C514.562 294.972 514.47 295.364 514.47 295.82C514.47 296.268 514.562 296.664 514.746 297.008C514.938 297.344 515.194 297.604 515.514 297.788C515.842 297.972 516.206 298.064 516.606 298.064ZM521.51 299V290.096H522.662V299H521.51ZM527.586 299.072C526.946 299.072 526.378 298.932 525.882 298.652C525.386 298.372 524.994 297.988 524.706 297.5C524.418 297.004 524.274 296.444 524.274 295.82C524.274 295.188 524.418 294.628 524.706 294.14C524.994 293.652 525.386 293.272 525.882 293C526.378 292.72 526.946 292.58 527.586 292.58C528.218 292.58 528.782 292.72 529.278 293C529.782 293.272 530.174 293.652 530.454 294.14C530.742 294.62 530.886 295.18 530.886 295.82C530.886 296.452 530.742 297.012 530.454 297.5C530.174 297.988 529.782 298.372 529.278 298.652C528.782 298.932 528.218 299.072 527.586 299.072ZM527.586 298.064C527.994 298.064 528.358 297.972 528.678 297.788C529.006 297.604 529.262 297.344 529.446 297.008C529.63 296.664 529.722 296.268 529.722 295.82C529.722 295.364 529.63 294.972 529.446 294.644C529.262 294.308 529.006 294.048 528.678 293.864C528.358 293.68 527.994 293.588 527.586 293.588C527.178 293.588 526.814 293.68 526.494 293.864C526.174 294.048 525.918 294.308 525.726 294.644C525.534 294.972 525.438 295.364 525.438 295.82C525.438 296.268 525.534 296.664 525.726 297.008C525.918 297.344 526.174 297.604 526.494 297.788C526.814 297.972 527.178 298.064 527.586 298.064ZM535.263 301.4C534.679 301.4 534.111 301.316 533.559 301.148C533.015 300.988 532.571 300.756 532.227 300.452L532.779 299.564C533.075 299.82 533.439 300.02 533.871 300.164C534.303 300.316 534.755 300.392 535.227 300.392C535.979 300.392 536.531 300.216 536.883 299.864C537.235 299.512 537.411 298.976 537.411 298.256V296.912L537.531 295.652L537.471 294.38V292.64H538.563V298.136C538.563 299.256 538.283 300.08 537.723 300.608C537.163 301.136 536.343 301.4 535.263 301.4ZM535.119 298.736C534.503 298.736 533.951 298.608 533.463 298.352C532.983 298.088 532.599 297.724 532.311 297.26C532.031 296.796 531.891 296.26 531.891 295.652C531.891 295.036 532.031 294.5 532.311 294.044C532.599 293.58 532.983 293.22 533.463 292.964C533.951 292.708 534.503 292.58 535.119 292.58C535.663 292.58 536.159 292.692 536.607 292.916C537.055 293.132 537.411 293.468 537.675 293.924C537.947 294.38 538.083 294.956 538.083 295.652C538.083 296.34 537.947 296.912 537.675 297.368C537.411 297.824 537.055 298.168 536.607 298.4C536.159 298.624 535.663 298.736 535.119 298.736ZM535.251 297.728C535.675 297.728 536.051 297.64 536.379 297.464C536.707 297.288 536.963 297.044 537.147 296.732C537.339 296.42 537.435 296.06 537.435 295.652C537.435 295.244 537.339 294.884 537.147 294.572C536.963 294.26 536.707 294.02 536.379 293.852C536.051 293.676 535.675 293.588 535.251 293.588C534.827 293.588 534.447 293.676 534.111 293.852C533.783 294.02 533.523 294.26 533.331 294.572C533.147 294.884 533.055 295.244 533.055 295.652C533.055 296.06 533.147 296.42 533.331 296.732C533.523 297.044 533.783 297.288 534.111 297.464C534.447 297.64 534.827 297.728 535.251 297.728ZM543.548 301.4C542.964 301.4 542.396 301.316 541.844 301.148C541.3 300.988 540.856 300.756 540.512 300.452L541.064 299.564C541.36 299.82 541.724 300.02 542.156 300.164C542.588 300.316 543.04 300.392 543.512 300.392C544.264 300.392 544.816 300.216 545.168 299.864C545.52 299.512 545.696 298.976 545.696 298.256V296.912L545.816 295.652L545.756 294.38V292.64H546.848V298.136C546.848 299.256 546.568 300.08 546.008 300.608C545.448 301.136 544.628 301.4 543.548 301.4ZM543.404 298.736C542.788 298.736 542.236 298.608 541.748 298.352C541.268 298.088 540.884 297.724 540.596 297.26C540.316 296.796 540.176 296.26 540.176 295.652C540.176 295.036 540.316 294.5 540.596 294.044C540.884 293.58 541.268 293.22 541.748 292.964C542.236 292.708 542.788 292.58 543.404 292.58C543.948 292.58 544.444 292.692 544.892 292.916C545.34 293.132 545.696 293.468 545.96 293.924C546.232 294.38 546.368 294.956 546.368 295.652C546.368 296.34 546.232 296.912 545.96 297.368C545.696 297.824 545.34 298.168 544.892 298.4C544.444 298.624 543.948 298.736 543.404 298.736ZM543.536 297.728C543.96 297.728 544.336 297.64 544.664 297.464C544.992 297.288 545.248 297.044 545.432 296.732C545.624 296.42 545.72 296.06 545.72 295.652C545.72 295.244 545.624 294.884 545.432 294.572C545.248 294.26 544.992 294.02 544.664 293.852C544.336 293.676 543.96 293.588 543.536 293.588C543.112 293.588 542.732 293.676 542.396 293.852C542.068 294.02 541.808 294.26 541.616 294.572C541.432 294.884 541.34 295.244 541.34 295.652C541.34 296.06 541.432 296.42 541.616 296.732C541.808 297.044 542.068 297.288 542.396 297.464C542.732 297.64 543.112 297.728 543.536 297.728ZM549.049 299V292.64H550.201V299H549.049ZM549.625 291.416C549.401 291.416 549.213 291.344 549.061 291.2C548.917 291.056 548.845 290.88 548.845 290.672C548.845 290.456 548.917 290.276 549.061 290.132C549.213 289.988 549.401 289.916 549.625 289.916C549.849 289.916 550.033 289.988 550.177 290.132C550.329 290.268 550.405 290.44 550.405 290.648C550.405 290.864 550.333 291.048 550.189 291.2C550.045 291.344 549.857 291.416 549.625 291.416ZM555.797 292.58C556.317 292.58 556.773 292.68 557.165 292.88C557.565 293.08 557.877 293.384 558.101 293.792C558.325 294.2 558.437 294.716 558.437 295.34V299H557.285V295.472C557.285 294.856 557.133 294.392 556.829 294.08C556.533 293.768 556.113 293.612 555.569 293.612C555.161 293.612 554.805 293.692 554.501 293.852C554.197 294.012 553.961 294.248 553.793 294.56C553.633 294.872 553.553 295.26 553.553 295.724V299H552.401V292.64H553.505V294.356L553.325 293.9C553.533 293.484 553.853 293.16 554.285 292.928C554.717 292.696 555.221 292.58 555.797 292.58ZM563.353 301.4C562.769 301.4 562.201 301.316 561.649 301.148C561.105 300.988 560.661 300.756 560.317 300.452L560.869 299.564C561.165 299.82 561.529 300.02 561.961 300.164C562.393 300.316 562.845 300.392 563.317 300.392C564.069 300.392 564.621 300.216 564.973 299.864C565.325 299.512 565.501 298.976 565.501 298.256V296.912L565.621 295.652L565.561 294.38V292.64H566.653V298.136C566.653 299.256 566.373 300.08 565.813 300.608C565.253 301.136 564.433 301.4 563.353 301.4ZM563.209 298.736C562.593 298.736 562.041 298.608 561.553 298.352C561.073 298.088 560.689 297.724 560.401 297.26C560.121 296.796 559.981 296.26 559.981 295.652C559.981 295.036 560.121 294.5 560.401 294.044C560.689 293.58 561.073 293.22 561.553 292.964C562.041 292.708 562.593 292.58 563.209 292.58C563.753 292.58 564.249 292.692 564.697 292.916C565.145 293.132 565.501 293.468 565.765 293.924C566.037 294.38 566.173 294.956 566.173 295.652C566.173 296.34 566.037 296.912 565.765 297.368C565.501 297.824 565.145 298.168 564.697 298.4C564.249 298.624 563.753 298.736 563.209 298.736ZM563.341 297.728C563.765 297.728 564.141 297.64 564.469 297.464C564.797 297.288 565.053 297.044 565.237 296.732C565.429 296.42 565.525 296.06 565.525 295.652C565.525 295.244 565.429 294.884 565.237 294.572C565.053 294.26 564.797 294.02 564.469 293.852C564.141 293.676 563.765 293.588 563.341 293.588C562.917 293.588 562.537 293.676 562.201 293.852C561.873 294.02 561.613 294.26 561.421 294.572C561.237 294.884 561.145 295.244 561.145 295.652C561.145 296.06 561.237 296.42 561.421 296.732C561.613 297.044 561.873 297.288 562.201 297.464C562.537 297.64 562.917 297.728 563.341 297.728ZM517.958 314V312.656L517.898 312.404V310.112C517.898 309.624 517.754 309.248 517.466 308.984C517.186 308.712 516.762 308.576 516.194 308.576C515.818 308.576 515.45 308.64 515.09 308.768C514.73 308.888 514.426 309.052 514.178 309.26L513.698 308.396C514.026 308.132 514.418 307.932 514.874 307.796C515.338 307.652 515.822 307.58 516.326 307.58C517.198 307.58 517.87 307.792 518.342 308.216C518.814 308.64 519.05 309.288 519.05 310.16V314H517.958ZM515.87 314.072C515.398 314.072 514.982 313.992 514.622 313.832C514.27 313.672 513.998 313.452 513.806 313.172C513.614 312.884 513.518 312.56 513.518 312.2C513.518 311.856 513.598 311.544 513.758 311.264C513.926 310.984 514.194 310.76 514.562 310.592C514.938 310.424 515.442 310.34 516.074 310.34H518.09V311.168H516.122C515.546 311.168 515.158 311.264 514.958 311.456C514.758 311.648 514.658 311.88 514.658 312.152C514.658 312.464 514.782 312.716 515.03 312.908C515.278 313.092 515.622 313.184 516.062 313.184C516.494 313.184 516.87 313.088 517.19 312.896C517.518 312.704 517.754 312.424 517.898 312.056L518.126 312.848C517.974 313.224 517.706 313.524 517.322 313.748C516.938 313.964 516.454 314.072 515.87 314.072ZM523.954 314.072C523.306 314.072 522.726 313.932 522.214 313.652C521.71 313.372 521.314 312.988 521.026 312.5C520.738 312.012 520.594 311.452 520.594 310.82C520.594 310.188 520.738 309.628 521.026 309.14C521.314 308.652 521.71 308.272 522.214 308C522.726 307.72 523.306 307.58 523.954 307.58C524.53 307.58 525.042 307.696 525.49 307.928C525.946 308.152 526.298 308.488 526.546 308.936L525.67 309.5C525.462 309.188 525.206 308.96 524.902 308.816C524.606 308.664 524.286 308.588 523.942 308.588C523.526 308.588 523.154 308.68 522.826 308.864C522.498 309.048 522.238 309.308 522.046 309.644C521.854 309.972 521.758 310.364 521.758 310.82C521.758 311.276 521.854 311.672 522.046 312.008C522.238 312.344 522.498 312.604 522.826 312.788C523.154 312.972 523.526 313.064 523.942 313.064C524.286 313.064 524.606 312.992 524.902 312.848C525.206 312.696 525.462 312.464 525.67 312.152L526.546 312.704C526.298 313.144 525.946 313.484 525.49 313.724C525.042 313.956 524.53 314.072 523.954 314.072ZM530.303 314.072C529.663 314.072 529.167 313.9 528.815 313.556C528.463 313.212 528.287 312.72 528.287 312.08V306.248H529.439V312.032C529.439 312.376 529.523 312.64 529.691 312.824C529.867 313.008 530.115 313.1 530.435 313.1C530.795 313.1 531.095 313 531.335 312.8L531.695 313.628C531.519 313.78 531.307 313.892 531.059 313.964C530.819 314.036 530.567 314.072 530.303 314.072ZM527.207 308.588V307.64H531.263V308.588H527.207ZM533.088 314V307.64H534.24V314H533.088ZM533.664 306.416C533.44 306.416 533.252 306.344 533.1 306.2C532.956 306.056 532.884 305.88 532.884 305.672C532.884 305.456 532.956 305.276 533.1 305.132C533.252 304.988 533.44 304.916 533.664 304.916C533.888 304.916 534.072 304.988 534.216 305.132C534.368 305.268 534.444 305.44 534.444 305.648C534.444 305.864 534.372 306.048 534.228 306.2C534.084 306.344 533.896 306.416 533.664 306.416ZM538.108 314L535.324 307.64H536.524L538.996 313.4H538.42L540.94 307.64H542.068L539.284 314H538.108ZM543.143 314V307.64H544.295V314H543.143ZM543.719 306.416C543.495 306.416 543.307 306.344 543.155 306.2C543.011 306.056 542.939 305.88 542.939 305.672C542.939 305.456 543.011 305.276 543.155 305.132C543.307 304.988 543.495 304.916 543.719 304.916C543.943 304.916 544.127 304.988 544.271 305.132C544.423 305.268 544.499 305.44 544.499 305.648C544.499 305.864 544.427 306.048 544.283 306.2C544.139 306.344 543.951 306.416 543.719 306.416ZM548.678 314.072C548.038 314.072 547.542 313.9 547.19 313.556C546.838 313.212 546.662 312.72 546.662 312.08V306.248H547.814V312.032C547.814 312.376 547.898 312.64 548.066 312.824C548.242 313.008 548.49 313.1 548.81 313.1C549.17 313.1 549.47 313 549.71 312.8L550.07 313.628C549.894 313.78 549.682 313.892 549.434 313.964C549.194 314.036 548.942 314.072 548.678 314.072ZM545.582 308.588V307.64H549.638V308.588H545.582ZM551.463 314V307.64H552.615V314H551.463ZM552.039 306.416C551.815 306.416 551.627 306.344 551.475 306.2C551.331 306.056 551.259 305.88 551.259 305.672C551.259 305.456 551.331 305.276 551.475 305.132C551.627 304.988 551.815 304.916 552.039 304.916C552.263 304.916 552.447 304.988 552.591 305.132C552.743 305.268 552.819 305.44 552.819 305.648C552.819 305.864 552.747 306.048 552.603 306.2C552.459 306.344 552.271 306.416 552.039 306.416ZM557.647 314.072C556.967 314.072 556.367 313.932 555.847 313.652C555.335 313.372 554.935 312.988 554.647 312.5C554.367 312.012 554.227 311.452 554.227 310.82C554.227 310.188 554.363 309.628 554.635 309.14C554.915 308.652 555.295 308.272 555.775 308C556.263 307.72 556.811 307.58 557.419 307.58C558.035 307.58 558.579 307.716 559.051 307.988C559.523 308.26 559.891 308.644 560.155 309.14C560.427 309.628 560.563 310.2 560.563 310.856C560.563 310.904 560.559 310.96 560.551 311.024C560.551 311.088 560.547 311.148 560.539 311.204H555.127V310.376H559.939L559.471 310.664C559.479 310.256 559.395 309.892 559.219 309.572C559.043 309.252 558.799 309.004 558.487 308.828C558.183 308.644 557.827 308.552 557.419 308.552C557.019 308.552 556.663 308.644 556.351 308.828C556.039 309.004 555.795 309.256 555.619 309.584C555.443 309.904 555.355 310.272 555.355 310.688V310.88C555.355 311.304 555.451 311.684 555.643 312.02C555.843 312.348 556.119 312.604 556.471 312.788C556.823 312.972 557.227 313.064 557.683 313.064C558.059 313.064 558.399 313 558.703 312.872C559.015 312.744 559.287 312.552 559.519 312.296L560.155 313.04C559.867 313.376 559.507 313.632 559.075 313.808C558.651 313.984 558.175 314.072 557.647 314.072ZM563.986 314.072C563.458 314.072 562.954 314 562.474 313.856C562.002 313.712 561.63 313.536 561.358 313.328L561.838 312.416C562.11 312.6 562.446 312.756 562.846 312.884C563.246 313.012 563.654 313.076 564.07 313.076C564.606 313.076 564.99 313 565.222 312.848C565.462 312.696 565.582 312.484 565.582 312.212C565.582 312.012 565.51 311.856 565.366 311.744C565.222 311.632 565.03 311.548 564.79 311.492C564.558 311.436 564.298 311.388 564.01 311.348C563.722 311.3 563.434 311.244 563.146 311.18C562.858 311.108 562.594 311.012 562.354 310.892C562.114 310.764 561.922 310.592 561.778 310.376C561.634 310.152 561.562 309.856 561.562 309.488C561.562 309.104 561.67 308.768 561.886 308.48C562.102 308.192 562.406 307.972 562.798 307.82C563.198 307.66 563.67 307.58 564.214 307.58C564.63 307.58 565.05 307.632 565.474 307.736C565.906 307.832 566.258 307.972 566.53 308.156L566.038 309.068C565.75 308.876 565.45 308.744 565.138 308.672C564.826 308.6 564.514 308.564 564.202 308.564C563.698 308.564 563.322 308.648 563.074 308.816C562.826 308.976 562.702 309.184 562.702 309.44C562.702 309.656 562.774 309.824 562.918 309.944C563.07 310.056 563.262 310.144 563.494 310.208C563.734 310.272 563.998 310.328 564.286 310.376C564.574 310.416 564.862 310.472 565.15 310.544C565.438 310.608 565.698 310.7 565.93 310.82C566.17 310.94 566.362 311.108 566.506 311.324C566.658 311.54 566.734 311.828 566.734 312.188C566.734 312.572 566.622 312.904 566.398 313.184C566.174 313.464 565.858 313.684 565.45 313.844C565.042 313.996 564.554 314.072 563.986 314.072Z" fill="white"/>
<path d="M332.5 387C332.5 370.708 345.708 357.5 362 357.5H454.5V378C454.5 394.292 441.292 407.5 425 407.5H332.5V387Z" stroke="white"/>
<path d="M359.415 376.464L359.439 374.988L363.099 371.64H364.491L361.683 374.4L361.059 374.928L359.415 376.464ZM358.479 378V369.096H359.631V378H358.479ZM363.339 378L360.843 374.904L361.587 373.98L364.755 378H363.339ZM369.187 371.58C369.707 371.58 370.163 371.68 370.555 371.88C370.955 372.08 371.267 372.384 371.491 372.792C371.715 373.2 371.827 373.716 371.827 374.34V378H370.675V374.472C370.675 373.856 370.523 373.392 370.219 373.08C369.923 372.768 369.503 372.612 368.959 372.612C368.551 372.612 368.195 372.692 367.891 372.852C367.587 373.012 367.351 373.248 367.183 373.56C367.023 373.872 366.943 374.26 366.943 374.724V378H365.791V371.64H366.895V373.356L366.715 372.9C366.923 372.484 367.243 372.16 367.675 371.928C368.107 371.696 368.611 371.58 369.187 371.58ZM376.683 378.072C376.043 378.072 375.475 377.932 374.979 377.652C374.483 377.372 374.091 376.988 373.803 376.5C373.515 376.004 373.371 375.444 373.371 374.82C373.371 374.188 373.515 373.628 373.803 373.14C374.091 372.652 374.483 372.272 374.979 372C375.475 371.72 376.043 371.58 376.683 371.58C377.315 371.58 377.879 371.72 378.375 372C378.879 372.272 379.271 372.652 379.551 373.14C379.839 373.62 379.983 374.18 379.983 374.82C379.983 375.452 379.839 376.012 379.551 376.5C379.271 376.988 378.879 377.372 378.375 377.652C377.879 377.932 377.315 378.072 376.683 378.072ZM376.683 377.064C377.091 377.064 377.455 376.972 377.775 376.788C378.103 376.604 378.359 376.344 378.543 376.008C378.727 375.664 378.819 375.268 378.819 374.82C378.819 374.364 378.727 373.972 378.543 373.644C378.359 373.308 378.103 373.048 377.775 372.864C377.455 372.68 377.091 372.588 376.683 372.588C376.275 372.588 375.911 372.68 375.591 372.864C375.271 373.048 375.015 373.308 374.823 373.644C374.631 373.972 374.535 374.364 374.535 374.82C374.535 375.268 374.631 375.664 374.823 376.008C375.015 376.344 375.271 376.604 375.591 376.788C375.911 376.972 376.275 377.064 376.683 377.064ZM382.745 378L380.381 371.64H381.473L383.573 377.4H383.057L385.241 371.64H386.213L388.349 377.4H387.845L389.993 371.64H391.025L388.649 378H387.545L385.541 372.744H385.877L383.849 378H382.745ZM392.194 378V369.096H393.346V378H392.194ZM398.377 378.072C397.697 378.072 397.097 377.932 396.577 377.652C396.065 377.372 395.665 376.988 395.377 376.5C395.097 376.012 394.957 375.452 394.957 374.82C394.957 374.188 395.093 373.628 395.365 373.14C395.645 372.652 396.025 372.272 396.505 372C396.993 371.72 397.541 371.58 398.149 371.58C398.765 371.58 399.309 371.716 399.781 371.988C400.253 372.26 400.621 372.644 400.885 373.14C401.157 373.628 401.293 374.2 401.293 374.856C401.293 374.904 401.289 374.96 401.281 375.024C401.281 375.088 401.277 375.148 401.269 375.204H395.857V374.376H400.669L400.201 374.664C400.209 374.256 400.125 373.892 399.949 373.572C399.773 373.252 399.529 373.004 399.217 372.828C398.913 372.644 398.557 372.552 398.149 372.552C397.749 372.552 397.393 372.644 397.081 372.828C396.769 373.004 396.525 373.256 396.349 373.584C396.173 373.904 396.085 374.272 396.085 374.688V374.88C396.085 375.304 396.181 375.684 396.373 376.02C396.573 376.348 396.849 376.604 397.201 376.788C397.553 376.972 397.957 377.064 398.413 377.064C398.789 377.064 399.129 377 399.433 376.872C399.745 376.744 400.017 376.552 400.249 376.296L400.885 377.04C400.597 377.376 400.237 377.632 399.805 377.808C399.381 377.984 398.905 378.072 398.377 378.072ZM405.521 378.072C404.905 378.072 404.353 377.936 403.865 377.664C403.385 377.392 403.005 377.012 402.725 376.524C402.445 376.036 402.305 375.468 402.305 374.82C402.305 374.172 402.445 373.608 402.725 373.128C403.005 372.64 403.385 372.26 403.865 371.988C404.353 371.716 404.905 371.58 405.521 371.58C406.057 371.58 406.541 371.7 406.973 371.94C407.405 372.18 407.749 372.54 408.005 373.02C408.269 373.5 408.401 374.1 408.401 374.82C408.401 375.54 408.273 376.14 408.017 376.62C407.769 377.1 407.429 377.464 406.997 377.712C406.565 377.952 406.073 378.072 405.521 378.072ZM405.617 377.064C406.017 377.064 406.377 376.972 406.697 376.788C407.025 376.604 407.281 376.344 407.465 376.008C407.657 375.664 407.753 375.268 407.753 374.82C407.753 374.364 407.657 373.972 407.465 373.644C407.281 373.308 407.025 373.048 406.697 372.864C406.377 372.68 406.017 372.588 405.617 372.588C405.209 372.588 404.845 372.68 404.525 372.864C404.205 373.048 403.949 373.308 403.757 373.644C403.565 373.972 403.469 374.364 403.469 374.82C403.469 375.268 403.565 375.664 403.757 376.008C403.949 376.344 404.205 376.604 404.525 376.788C404.845 376.972 405.209 377.064 405.617 377.064ZM407.789 378V376.284L407.861 374.808L407.741 373.332V369.096H408.893V378H407.789ZM413.856 380.4C413.272 380.4 412.704 380.316 412.152 380.148C411.608 379.988 411.164 379.756 410.82 379.452L411.372 378.564C411.668 378.82 412.032 379.02 412.464 379.164C412.896 379.316 413.348 379.392 413.82 379.392C414.572 379.392 415.124 379.216 415.476 378.864C415.828 378.512 416.004 377.976 416.004 377.256V375.912L416.124 374.652L416.064 373.38V371.64H417.156V377.136C417.156 378.256 416.876 379.08 416.316 379.608C415.756 380.136 414.936 380.4 413.856 380.4ZM413.712 377.736C413.096 377.736 412.544 377.608 412.056 377.352C411.576 377.088 411.192 376.724 410.904 376.26C410.624 375.796 410.484 375.26 410.484 374.652C410.484 374.036 410.624 373.5 410.904 373.044C411.192 372.58 411.576 372.22 412.056 371.964C412.544 371.708 413.096 371.58 413.712 371.58C414.256 371.58 414.752 371.692 415.2 371.916C415.648 372.132 416.004 372.468 416.268 372.924C416.54 373.38 416.676 373.956 416.676 374.652C416.676 375.34 416.54 375.912 416.268 376.368C416.004 376.824 415.648 377.168 415.2 377.4C414.752 377.624 414.256 377.736 413.712 377.736ZM413.844 376.728C414.268 376.728 414.644 376.64 414.972 376.464C415.3 376.288 415.556 376.044 415.74 375.732C415.932 375.42 416.028 375.06 416.028 374.652C416.028 374.244 415.932 373.884 415.74 373.572C415.556 373.26 415.3 373.02 414.972 372.852C414.644 372.676 414.268 372.588 413.844 372.588C413.42 372.588 413.04 372.676 412.704 372.852C412.376 373.02 412.116 373.26 411.924 373.572C411.74 373.884 411.648 374.244 411.648 374.652C411.648 375.06 411.74 375.42 411.924 375.732C412.116 376.044 412.376 376.288 412.704 376.464C413.04 376.64 413.42 376.728 413.844 376.728ZM422.19 378.072C421.51 378.072 420.91 377.932 420.39 377.652C419.878 377.372 419.478 376.988 419.19 376.5C418.91 376.012 418.77 375.452 418.77 374.82C418.77 374.188 418.906 373.628 419.178 373.14C419.458 372.652 419.838 372.272 420.318 372C420.806 371.72 421.354 371.58 421.962 371.58C422.578 371.58 423.122 371.716 423.594 371.988C424.066 372.26 424.434 372.644 424.698 373.14C424.97 373.628 425.106 374.2 425.106 374.856C425.106 374.904 425.102 374.96 425.094 375.024C425.094 375.088 425.09 375.148 425.082 375.204H419.67V374.376H424.482L424.014 374.664C424.022 374.256 423.938 373.892 423.762 373.572C423.586 373.252 423.342 373.004 423.03 372.828C422.726 372.644 422.37 372.552 421.962 372.552C421.562 372.552 421.206 372.644 420.894 372.828C420.582 373.004 420.338 373.256 420.162 373.584C419.986 373.904 419.898 374.272 419.898 374.688V374.88C419.898 375.304 419.994 375.684 420.186 376.02C420.386 376.348 420.662 376.604 421.014 376.788C421.366 376.972 421.77 377.064 422.226 377.064C422.602 377.064 422.942 377 423.246 376.872C423.558 376.744 423.83 376.552 424.062 376.296L424.698 377.04C424.41 377.376 424.05 377.632 423.618 377.808C423.194 377.984 422.718 378.072 422.19 378.072ZM371.418 393.072C370.89 393.072 370.386 393 369.906 392.856C369.434 392.712 369.062 392.536 368.79 392.328L369.27 391.416C369.542 391.6 369.878 391.756 370.278 391.884C370.678 392.012 371.086 392.076 371.502 392.076C372.038 392.076 372.422 392 372.654 391.848C372.894 391.696 373.014 391.484 373.014 391.212C373.014 391.012 372.942 390.856 372.798 390.744C372.654 390.632 372.462 390.548 372.222 390.492C371.99 390.436 371.73 390.388 371.442 390.348C371.154 390.3 370.866 390.244 370.578 390.18C370.29 390.108 370.026 390.012 369.786 389.892C369.546 389.764 369.354 389.592 369.21 389.376C369.066 389.152 368.994 388.856 368.994 388.488C368.994 388.104 369.102 387.768 369.318 387.48C369.534 387.192 369.838 386.972 370.23 386.82C370.63 386.66 371.102 386.58 371.646 386.58C372.062 386.58 372.482 386.632 372.906 386.736C373.338 386.832 373.69 386.972 373.962 387.156L373.47 388.068C373.182 387.876 372.882 387.744 372.57 387.672C372.258 387.6 371.946 387.564 371.634 387.564C371.13 387.564 370.754 387.648 370.506 387.816C370.258 387.976 370.134 388.184 370.134 388.44C370.134 388.656 370.206 388.824 370.35 388.944C370.502 389.056 370.694 389.144 370.926 389.208C371.166 389.272 371.43 389.328 371.718 389.376C372.006 389.416 372.294 389.472 372.582 389.544C372.87 389.608 373.13 389.7 373.362 389.82C373.602 389.94 373.794 390.108 373.938 390.324C374.09 390.54 374.166 390.828 374.166 391.188C374.166 391.572 374.054 391.904 373.83 392.184C373.606 392.464 373.29 392.684 372.882 392.844C372.474 392.996 371.986 393.072 371.418 393.072ZM379.002 386.58C379.522 386.58 379.978 386.68 380.37 386.88C380.77 387.08 381.082 387.384 381.306 387.792C381.53 388.2 381.642 388.716 381.642 389.34V393H380.49V389.472C380.49 388.856 380.338 388.392 380.034 388.08C379.738 387.768 379.318 387.612 378.774 387.612C378.366 387.612 378.01 387.692 377.706 387.852C377.402 388.012 377.166 388.248 376.998 388.56C376.838 388.872 376.758 389.26 376.758 389.724V393H375.606V384.096H376.758V388.356L376.53 387.9C376.738 387.484 377.058 387.16 377.49 386.928C377.922 386.696 378.426 386.58 379.002 386.58ZM387.722 393V391.656L387.662 391.404V389.112C387.662 388.624 387.518 388.248 387.23 387.984C386.95 387.712 386.526 387.576 385.958 387.576C385.582 387.576 385.214 387.64 384.854 387.768C384.494 387.888 384.19 388.052 383.942 388.26L383.462 387.396C383.79 387.132 384.182 386.932 384.638 386.796C385.102 386.652 385.586 386.58 386.09 386.58C386.962 386.58 387.634 386.792 388.106 387.216C388.578 387.64 388.814 388.288 388.814 389.16V393H387.722ZM385.634 393.072C385.162 393.072 384.746 392.992 384.386 392.832C384.034 392.672 383.762 392.452 383.57 392.172C383.378 391.884 383.282 391.56 383.282 391.2C383.282 390.856 383.362 390.544 383.522 390.264C383.69 389.984 383.958 389.76 384.326 389.592C384.702 389.424 385.206 389.34 385.838 389.34H387.854V390.168H385.886C385.31 390.168 384.922 390.264 384.722 390.456C384.522 390.648 384.422 390.88 384.422 391.152C384.422 391.464 384.546 391.716 384.794 391.908C385.042 392.092 385.386 392.184 385.826 392.184C386.258 392.184 386.634 392.088 386.954 391.896C387.282 391.704 387.518 391.424 387.662 391.056L387.89 391.848C387.738 392.224 387.47 392.524 387.086 392.748C386.702 392.964 386.218 393.072 385.634 393.072ZM390.946 393V386.64H392.05V388.368L391.942 387.936C392.118 387.496 392.414 387.16 392.83 386.928C393.246 386.696 393.758 386.58 394.366 386.58V387.696C394.318 387.688 394.27 387.684 394.222 387.684C394.182 387.684 394.142 387.684 394.102 387.684C393.486 387.684 392.998 387.868 392.638 388.236C392.278 388.604 392.098 389.136 392.098 389.832V393H390.946ZM395.785 393V386.64H396.937V393H395.785ZM396.361 385.416C396.137 385.416 395.949 385.344 395.797 385.2C395.653 385.056 395.581 384.88 395.581 384.672C395.581 384.456 395.653 384.276 395.797 384.132C395.949 383.988 396.137 383.916 396.361 383.916C396.585 383.916 396.769 383.988 396.913 384.132C397.065 384.268 397.141 384.44 397.141 384.648C397.141 384.864 397.069 385.048 396.925 385.2C396.781 385.344 396.593 385.416 396.361 385.416ZM402.533 386.58C403.053 386.58 403.509 386.68 403.901 386.88C404.301 387.08 404.613 387.384 404.837 387.792C405.061 388.2 405.173 388.716 405.173 389.34V393H404.021V389.472C404.021 388.856 403.869 388.392 403.565 388.08C403.269 387.768 402.849 387.612 402.305 387.612C401.897 387.612 401.541 387.692 401.237 387.852C400.933 388.012 400.697 388.248 400.529 388.56C400.369 388.872 400.289 389.26 400.289 389.724V393H399.137V386.64H400.241V388.356L400.061 387.9C400.269 387.484 400.589 387.16 401.021 386.928C401.453 386.696 401.957 386.58 402.533 386.58ZM410.089 395.4C409.505 395.4 408.937 395.316 408.385 395.148C407.841 394.988 407.397 394.756 407.053 394.452L407.605 393.564C407.901 393.82 408.265 394.02 408.697 394.164C409.129 394.316 409.581 394.392 410.053 394.392C410.805 394.392 411.357 394.216 411.709 393.864C412.061 393.512 412.237 392.976 412.237 392.256V390.912L412.357 389.652L412.297 388.38V386.64H413.389V392.136C413.389 393.256 413.109 394.08 412.549 394.608C411.989 395.136 411.169 395.4 410.089 395.4ZM409.945 392.736C409.329 392.736 408.777 392.608 408.289 392.352C407.809 392.088 407.425 391.724 407.137 391.26C406.857 390.796 406.717 390.26 406.717 389.652C406.717 389.036 406.857 388.5 407.137 388.044C407.425 387.58 407.809 387.22 408.289 386.964C408.777 386.708 409.329 386.58 409.945 386.58C410.489 386.58 410.985 386.692 411.433 386.916C411.881 387.132 412.237 387.468 412.501 387.924C412.773 388.38 412.909 388.956 412.909 389.652C412.909 390.34 412.773 390.912 412.501 391.368C412.237 391.824 411.881 392.168 411.433 392.4C410.985 392.624 410.489 392.736 409.945 392.736ZM410.077 391.728C410.501 391.728 410.877 391.64 411.205 391.464C411.533 391.288 411.789 391.044 411.973 390.732C412.165 390.42 412.261 390.06 412.261 389.652C412.261 389.244 412.165 388.884 411.973 388.572C411.789 388.26 411.533 388.02 411.205 387.852C410.877 387.676 410.501 387.588 410.077 387.588C409.653 387.588 409.273 387.676 408.937 387.852C408.609 388.02 408.349 388.26 408.157 388.572C407.973 388.884 407.881 389.244 407.881 389.652C407.881 390.06 407.973 390.42 408.157 390.732C408.349 391.044 408.609 391.288 408.937 391.464C409.273 391.64 409.653 391.728 410.077 391.728Z" fill="white"/>
<path d="M415 200C402.975 212.924 382.533 246.324 396.963 276.535C411.393 306.746 402.975 333.433 396.963 343" stroke="white"/>
<path d="M596.5 217C596.5 200.708 609.708 187.5 626 187.5H685.5V208C685.5 224.292 672.292 237.5 656 237.5H596.5V217Z" stroke="white"/>
<path d="M628.385 208.072C627.745 208.072 627.249 207.9 626.897 207.556C626.545 207.212 626.369 206.72 626.369 206.08V200.248H627.521V206.032C627.521 206.376 627.605 206.64 627.773 206.824C627.949 207.008 628.197 207.1 628.517 207.1C628.877 207.1 629.177 207 629.417 206.8L629.777 207.628C629.601 207.78 629.389 207.892 629.141 207.964C628.901 208.036 628.649 208.072 628.385 208.072ZM625.289 202.588V201.64H629.345V202.588H625.289ZM633.791 208.072C633.111 208.072 632.511 207.932 631.991 207.652C631.479 207.372 631.079 206.988 630.791 206.5C630.511 206.012 630.371 205.452 630.371 204.82C630.371 204.188 630.507 203.628 630.779 203.14C631.059 202.652 631.439 202.272 631.919 202C632.407 201.72 632.955 201.58 633.563 201.58C634.179 201.58 634.723 201.716 635.195 201.988C635.667 202.26 636.035 202.644 636.299 203.14C636.571 203.628 636.707 204.2 636.707 204.856C636.707 204.904 636.703 204.96 636.695 205.024C636.695 205.088 636.691 205.148 636.683 205.204H631.271V204.376H636.083L635.615 204.664C635.623 204.256 635.539 203.892 635.363 203.572C635.187 203.252 634.943 203.004 634.631 202.828C634.327 202.644 633.971 202.552 633.563 202.552C633.163 202.552 632.807 202.644 632.495 202.828C632.183 203.004 631.939 203.256 631.763 203.584C631.587 203.904 631.499 204.272 631.499 204.688V204.88C631.499 205.304 631.595 205.684 631.787 206.02C631.987 206.348 632.263 206.604 632.615 206.788C632.967 206.972 633.371 207.064 633.827 207.064C634.203 207.064 634.543 207 634.847 206.872C635.159 206.744 635.431 206.552 635.663 206.296L636.299 207.04C636.011 207.376 635.651 207.632 635.219 207.808C634.795 207.984 634.319 208.072 633.791 208.072ZM642.079 208V206.656L642.019 206.404V204.112C642.019 203.624 641.875 203.248 641.587 202.984C641.307 202.712 640.883 202.576 640.315 202.576C639.939 202.576 639.571 202.64 639.211 202.768C638.851 202.888 638.547 203.052 638.299 203.26L637.819 202.396C638.147 202.132 638.539 201.932 638.995 201.796C639.459 201.652 639.943 201.58 640.447 201.58C641.319 201.58 641.991 201.792 642.463 202.216C642.935 202.64 643.171 203.288 643.171 204.16V208H642.079ZM639.991 208.072C639.519 208.072 639.103 207.992 638.743 207.832C638.391 207.672 638.119 207.452 637.927 207.172C637.735 206.884 637.639 206.56 637.639 206.2C637.639 205.856 637.719 205.544 637.879 205.264C638.047 204.984 638.315 204.76 638.683 204.592C639.059 204.424 639.563 204.34 640.195 204.34H642.211V205.168H640.243C639.667 205.168 639.279 205.264 639.079 205.456C638.879 205.648 638.779 205.88 638.779 206.152C638.779 206.464 638.903 206.716 639.151 206.908C639.399 207.092 639.743 207.184 640.183 207.184C640.615 207.184 640.991 207.088 641.311 206.896C641.639 206.704 641.875 206.424 642.019 206.056L642.247 206.848C642.095 207.224 641.827 207.524 641.443 207.748C641.059 207.964 640.575 208.072 639.991 208.072ZM653.259 201.58C653.771 201.58 654.223 201.68 654.615 201.88C655.007 202.08 655.311 202.384 655.527 202.792C655.751 203.2 655.863 203.716 655.863 204.34V208H654.711V204.472C654.711 203.856 654.567 203.392 654.279 203.08C653.991 202.768 653.587 202.612 653.067 202.612C652.683 202.612 652.347 202.692 652.059 202.852C651.771 203.012 651.547 203.248 651.387 203.56C651.235 203.872 651.159 204.26 651.159 204.724V208H650.007V204.472C650.007 203.856 649.863 203.392 649.575 203.08C649.295 202.768 648.891 202.612 648.363 202.612C647.987 202.612 647.655 202.692 647.367 202.852C647.079 203.012 646.855 203.248 646.695 203.56C646.535 203.872 646.455 204.26 646.455 204.724V208H645.303V201.64H646.407V203.332L646.227 202.9C646.427 202.484 646.735 202.16 647.151 201.928C647.567 201.696 648.051 201.58 648.603 201.58C649.211 201.58 649.735 201.732 650.175 202.036C650.615 202.332 650.903 202.784 651.039 203.392L650.571 203.2C650.763 202.712 651.099 202.32 651.579 202.024C652.059 201.728 652.619 201.58 653.259 201.58ZM628.202 223L625.838 216.64H626.93L629.03 222.4H628.514L630.698 216.64H631.67L633.806 222.4H633.302L635.45 216.64H636.482L634.106 223H633.002L630.998 217.744H631.334L629.306 223H628.202ZM640.199 223.072C639.559 223.072 638.991 222.932 638.495 222.652C637.999 222.372 637.607 221.988 637.319 221.5C637.031 221.004 636.887 220.444 636.887 219.82C636.887 219.188 637.031 218.628 637.319 218.14C637.607 217.652 637.999 217.272 638.495 217C638.991 216.72 639.559 216.58 640.199 216.58C640.831 216.58 641.395 216.72 641.891 217C642.395 217.272 642.787 217.652 643.067 218.14C643.355 218.62 643.499 219.18 643.499 219.82C643.499 220.452 643.355 221.012 643.067 221.5C642.787 221.988 642.395 222.372 641.891 222.652C641.395 222.932 640.831 223.072 640.199 223.072ZM640.199 222.064C640.607 222.064 640.971 221.972 641.291 221.788C641.619 221.604 641.875 221.344 642.059 221.008C642.243 220.664 642.335 220.268 642.335 219.82C642.335 219.364 642.243 218.972 642.059 218.644C641.875 218.308 641.619 218.048 641.291 217.864C640.971 217.68 640.607 217.588 640.199 217.588C639.791 217.588 639.427 217.68 639.107 217.864C638.787 218.048 638.531 218.308 638.339 218.644C638.147 218.972 638.051 219.364 638.051 219.82C638.051 220.268 638.147 220.664 638.339 221.008C638.531 221.344 638.787 221.604 639.107 221.788C639.427 221.972 639.791 222.064 640.199 222.064ZM645.092 223V216.64H646.196V218.368L646.088 217.936C646.264 217.496 646.56 217.16 646.976 216.928C647.392 216.696 647.904 216.58 648.512 216.58V217.696C648.464 217.688 648.416 217.684 648.368 217.684C648.328 217.684 648.288 217.684 648.248 217.684C647.632 217.684 647.144 217.868 646.784 218.236C646.424 218.604 646.244 219.136 646.244 219.832V223H645.092ZM650.868 221.464L650.892 219.988L654.552 216.64H655.944L653.136 219.4L652.512 219.928L650.868 221.464ZM649.932 223V214.096H651.084V223H649.932ZM654.792 223L652.296 219.904L653.04 218.98L656.208 223H654.792Z" fill="white"/>
<path d="M631.5 120C631.5 103.708 644.708 90.5 661 90.5H744.5V111C744.5 127.292 731.292 140.5 715 140.5H631.5V120Z" stroke="white"/>
<path d="M663.312 114.4C662.728 114.4 662.16 114.316 661.608 114.148C661.064 113.988 660.62 113.756 660.276 113.452L660.828 112.564C661.124 112.82 661.488 113.02 661.92 113.164C662.352 113.316 662.804 113.392 663.276 113.392C664.028 113.392 664.58 113.216 664.932 112.864C665.284 112.512 665.46 111.976 665.46 111.256V109.912L665.58 108.652L665.52 107.38V105.64H666.612V111.136C666.612 112.256 666.332 113.08 665.772 113.608C665.212 114.136 664.392 114.4 663.312 114.4ZM663.168 111.736C662.552 111.736 662 111.608 661.512 111.352C661.032 111.088 660.648 110.724 660.36 110.26C660.08 109.796 659.94 109.26 659.94 108.652C659.94 108.036 660.08 107.5 660.36 107.044C660.648 106.58 661.032 106.22 661.512 105.964C662 105.708 662.552 105.58 663.168 105.58C663.712 105.58 664.208 105.692 664.656 105.916C665.104 106.132 665.46 106.468 665.724 106.924C665.996 107.38 666.132 107.956 666.132 108.652C666.132 109.34 665.996 109.912 665.724 110.368C665.46 110.824 665.104 111.168 664.656 111.4C664.208 111.624 663.712 111.736 663.168 111.736ZM663.3 110.728C663.724 110.728 664.1 110.64 664.428 110.464C664.756 110.288 665.012 110.044 665.196 109.732C665.388 109.42 665.484 109.06 665.484 108.652C665.484 108.244 665.388 107.884 665.196 107.572C665.012 107.26 664.756 107.02 664.428 106.852C664.1 106.676 663.724 106.588 663.3 106.588C662.876 106.588 662.496 106.676 662.16 106.852C661.832 107.02 661.572 107.26 661.38 107.572C661.196 107.884 661.104 108.244 661.104 108.652C661.104 109.06 661.196 109.42 661.38 109.732C661.572 110.044 661.832 110.288 662.16 110.464C662.496 110.64 662.876 110.728 663.3 110.728ZM668.813 112V105.64H669.917V107.368L669.809 106.936C669.985 106.496 670.281 106.16 670.697 105.928C671.113 105.696 671.625 105.58 672.233 105.58V106.696C672.185 106.688 672.137 106.684 672.089 106.684C672.049 106.684 672.009 106.684 671.969 106.684C671.353 106.684 670.865 106.868 670.505 107.236C670.145 107.604 669.965 108.136 669.965 108.832V112H668.813ZM677.132 112V110.656L677.072 110.404V108.112C677.072 107.624 676.928 107.248 676.64 106.984C676.36 106.712 675.936 106.576 675.368 106.576C674.992 106.576 674.624 106.64 674.264 106.768C673.904 106.888 673.6 107.052 673.352 107.26L672.872 106.396C673.2 106.132 673.592 105.932 674.048 105.796C674.512 105.652 674.996 105.58 675.5 105.58C676.372 105.58 677.044 105.792 677.516 106.216C677.988 106.64 678.224 107.288 678.224 108.16V112H677.132ZM675.044 112.072C674.572 112.072 674.156 111.992 673.796 111.832C673.444 111.672 673.172 111.452 672.98 111.172C672.788 110.884 672.692 110.56 672.692 110.2C672.692 109.856 672.772 109.544 672.932 109.264C673.1 108.984 673.368 108.76 673.736 108.592C674.112 108.424 674.616 108.34 675.248 108.34H677.264V109.168H675.296C674.72 109.168 674.332 109.264 674.132 109.456C673.932 109.648 673.832 109.88 673.832 110.152C673.832 110.464 673.956 110.716 674.204 110.908C674.452 111.092 674.796 111.184 675.236 111.184C675.668 111.184 676.044 111.088 676.364 110.896C676.692 110.704 676.928 110.424 677.072 110.056L677.3 110.848C677.148 111.224 676.88 111.524 676.496 111.748C676.112 111.964 675.628 112.072 675.044 112.072ZM683.728 112.072C683.2 112.072 682.716 111.952 682.276 111.712C681.844 111.464 681.496 111.1 681.232 110.62C680.976 110.14 680.848 109.54 680.848 108.82C680.848 108.1 680.972 107.5 681.22 107.02C681.476 106.54 681.82 106.18 682.252 105.94C682.692 105.7 683.184 105.58 683.728 105.58C684.352 105.58 684.904 105.716 685.384 105.988C685.864 106.26 686.244 106.64 686.524 107.128C686.804 107.608 686.944 108.172 686.944 108.82C686.944 109.468 686.804 110.036 686.524 110.524C686.244 111.012 685.864 111.392 685.384 111.664C684.904 111.936 684.352 112.072 683.728 112.072ZM680.356 114.328V105.64H681.46V107.356L681.388 108.832L681.508 110.308V114.328H680.356ZM683.632 111.064C684.04 111.064 684.404 110.972 684.724 110.788C685.052 110.604 685.308 110.344 685.492 110.008C685.684 109.664 685.78 109.268 685.78 108.82C685.78 108.364 685.684 107.972 685.492 107.644C685.308 107.308 685.052 107.048 684.724 106.864C684.404 106.68 684.04 106.588 683.632 106.588C683.232 106.588 682.868 106.68 682.54 106.864C682.22 107.048 681.964 107.308 681.772 107.644C681.588 107.972 681.496 108.364 681.496 108.82C681.496 109.268 681.588 109.664 681.772 110.008C681.964 110.344 682.22 110.604 682.54 110.788C682.868 110.972 683.232 111.064 683.632 111.064ZM691.931 105.58C692.451 105.58 692.907 105.68 693.299 105.88C693.699 106.08 694.011 106.384 694.235 106.792C694.459 107.2 694.571 107.716 694.571 108.34V112H693.419V108.472C693.419 107.856 693.267 107.392 692.963 107.08C692.667 106.768 692.247 106.612 691.703 106.612C691.295 106.612 690.939 106.692 690.635 106.852C690.331 107.012 690.095 107.248 689.927 107.56C689.767 107.872 689.687 108.26 689.687 108.724V112H688.535V103.096H689.687V107.356L689.459 106.9C689.667 106.484 689.987 106.16 690.419 105.928C690.851 105.696 691.355 105.58 691.931 105.58ZM696.703 112V105.64H697.855V112H696.703ZM697.279 104.416C697.055 104.416 696.867 104.344 696.715 104.2C696.571 104.056 696.499 103.88 696.499 103.672C696.499 103.456 696.571 103.276 696.715 103.132C696.867 102.988 697.055 102.916 697.279 102.916C697.503 102.916 697.687 102.988 697.831 103.132C697.983 103.268 698.059 103.44 698.059 103.648C698.059 103.864 697.987 104.048 697.843 104.2C697.699 104.344 697.511 104.416 697.279 104.416ZM702.827 112.072C702.179 112.072 701.599 111.932 701.087 111.652C700.583 111.372 700.187 110.988 699.899 110.5C699.611 110.012 699.467 109.452 699.467 108.82C699.467 108.188 699.611 107.628 699.899 107.14C700.187 106.652 700.583 106.272 701.087 106C701.599 105.72 702.179 105.58 702.827 105.58C703.403 105.58 703.915 105.696 704.363 105.928C704.819 106.152 705.171 106.488 705.419 106.936L704.543 107.5C704.335 107.188 704.079 106.96 703.775 106.816C703.479 106.664 703.159 106.588 702.815 106.588C702.399 106.588 702.027 106.68 701.699 106.864C701.371 107.048 701.111 107.308 700.919 107.644C700.727 107.972 700.631 108.364 700.631 108.82C700.631 109.276 700.727 109.672 700.919 110.008C701.111 110.344 701.371 110.604 701.699 110.788C702.027 110.972 702.399 111.064 702.815 111.064C703.159 111.064 703.479 110.992 703.775 110.848C704.079 110.696 704.335 110.464 704.543 110.152L705.419 110.704C705.171 111.144 704.819 111.484 704.363 111.724C703.915 111.956 703.403 112.072 702.827 112.072ZM710.858 112V110.656L710.798 110.404V108.112C710.798 107.624 710.654 107.248 710.366 106.984C710.086 106.712 709.662 106.576 709.094 106.576C708.718 106.576 708.35 106.64 707.99 106.768C707.63 106.888 707.326 107.052 707.078 107.26L706.598 106.396C706.926 106.132 707.318 105.932 707.774 105.796C708.238 105.652 708.722 105.58 709.226 105.58C710.098 105.58 710.77 105.792 711.242 106.216C711.714 106.64 711.95 107.288 711.95 108.16V112H710.858ZM708.77 112.072C708.298 112.072 707.882 111.992 707.522 111.832C707.17 111.672 706.898 111.452 706.706 111.172C706.514 110.884 706.418 110.56 706.418 110.2C706.418 109.856 706.498 109.544 706.658 109.264C706.826 108.984 707.094 108.76 707.462 108.592C707.838 108.424 708.342 108.34 708.974 108.34H710.99V109.168H709.022C708.446 109.168 708.058 109.264 707.858 109.456C707.658 109.648 707.558 109.88 707.558 110.152C707.558 110.464 707.682 110.716 707.93 110.908C708.178 111.092 708.522 111.184 708.962 111.184C709.394 111.184 709.77 111.088 710.09 110.896C710.418 110.704 710.654 110.424 710.798 110.056L711.026 110.848C710.874 111.224 710.606 111.524 710.222 111.748C709.838 111.964 709.354 112.072 708.77 112.072ZM714.082 112V103.096H715.234V112H714.082ZM672.548 127.072C671.932 127.072 671.38 126.936 670.892 126.664C670.412 126.392 670.032 126.012 669.752 125.524C669.472 125.036 669.332 124.468 669.332 123.82C669.332 123.172 669.472 122.608 669.752 122.128C670.032 121.64 670.412 121.26 670.892 120.988C671.38 120.716 671.932 120.58 672.548 120.58C673.084 120.58 673.568 120.7 674 120.94C674.432 121.18 674.776 121.54 675.032 122.02C675.296 122.5 675.428 123.1 675.428 123.82C675.428 124.54 675.3 125.14 675.044 125.62C674.796 126.1 674.456 126.464 674.024 126.712C673.592 126.952 673.1 127.072 672.548 127.072ZM672.644 126.064C673.044 126.064 673.404 125.972 673.724 125.788C674.052 125.604 674.308 125.344 674.492 125.008C674.684 124.664 674.78 124.268 674.78 123.82C674.78 123.364 674.684 122.972 674.492 122.644C674.308 122.308 674.052 122.048 673.724 121.864C673.404 121.68 673.044 121.588 672.644 121.588C672.236 121.588 671.872 121.68 671.552 121.864C671.232 122.048 670.976 122.308 670.784 122.644C670.592 122.972 670.496 123.364 670.496 123.82C670.496 124.268 670.592 124.664 670.784 125.008C670.976 125.344 671.232 125.604 671.552 125.788C671.872 125.972 672.236 126.064 672.644 126.064ZM674.816 127V125.284L674.888 123.808L674.768 122.332V118.096H675.92V127H674.816ZM680.932 127.072C680.252 127.072 679.652 126.932 679.132 126.652C678.62 126.372 678.22 125.988 677.932 125.5C677.652 125.012 677.512 124.452 677.512 123.82C677.512 123.188 677.648 122.628 677.92 122.14C678.2 121.652 678.58 121.272 679.06 121C679.548 120.72 680.096 120.58 680.704 120.58C681.32 120.58 681.864 120.716 682.336 120.988C682.808 121.26 683.176 121.644 683.44 122.14C683.712 122.628 683.848 123.2 683.848 123.856C683.848 123.904 683.844 123.96 683.836 124.024C683.836 124.088 683.832 124.148 683.824 124.204H678.412V123.376H683.224L682.756 123.664C682.764 123.256 682.68 122.892 682.504 122.572C682.328 122.252 682.084 122.004 681.772 121.828C681.468 121.644 681.112 121.552 680.704 121.552C680.304 121.552 679.948 121.644 679.636 121.828C679.324 122.004 679.08 122.256 678.904 122.584C678.728 122.904 678.64 123.272 678.64 123.688V123.88C678.64 124.304 678.736 124.684 678.928 125.02C679.128 125.348 679.404 125.604 679.756 125.788C680.108 125.972 680.512 126.064 680.968 126.064C681.344 126.064 681.684 126 681.988 125.872C682.3 125.744 682.572 125.552 682.804 125.296L683.44 126.04C683.152 126.376 682.792 126.632 682.36 126.808C681.936 126.984 681.46 127.072 680.932 127.072ZM687.271 127.072C686.743 127.072 686.239 127 685.759 126.856C685.287 126.712 684.915 126.536 684.643 126.328L685.123 125.416C685.395 125.6 685.731 125.756 686.131 125.884C686.531 126.012 686.939 126.076 687.355 126.076C687.891 126.076 688.275 126 688.507 125.848C688.747 125.696 688.867 125.484 688.867 125.212C688.867 125.012 688.795 124.856 688.651 124.744C688.507 124.632 688.315 124.548 688.075 124.492C687.843 124.436 687.583 124.388 687.295 124.348C687.007 124.3 686.719 124.244 686.431 124.18C686.143 124.108 685.879 124.012 685.639 123.892C685.399 123.764 685.207 123.592 685.063 123.376C684.919 123.152 684.847 122.856 684.847 122.488C684.847 122.104 684.955 121.768 685.171 121.48C685.387 121.192 685.691 120.972 686.083 120.82C686.483 120.66 686.955 120.58 687.499 120.58C687.915 120.58 688.335 120.632 688.759 120.736C689.191 120.832 689.543 120.972 689.815 121.156L689.323 122.068C689.035 121.876 688.735 121.744 688.423 121.672C688.111 121.6 687.799 121.564 687.487 121.564C686.983 121.564 686.607 121.648 686.359 121.816C686.111 121.976 685.987 122.184 685.987 122.44C685.987 122.656 686.059 122.824 686.203 122.944C686.355 123.056 686.547 123.144 686.779 123.208C687.019 123.272 687.283 123.328 687.571 123.376C687.859 123.416 688.147 123.472 688.435 123.544C688.723 123.608 688.983 123.7 689.215 123.82C689.455 123.94 689.647 124.108 689.791 124.324C689.943 124.54 690.019 124.828 690.019 125.188C690.019 125.572 689.907 125.904 689.683 126.184C689.459 126.464 689.143 126.684 688.735 126.844C688.327 126.996 687.839 127.072 687.271 127.072ZM691.459 127V120.64H692.611V127H691.459ZM692.035 119.416C691.811 119.416 691.623 119.344 691.471 119.2C691.327 119.056 691.255 118.88 691.255 118.672C691.255 118.456 691.327 118.276 691.471 118.132C691.623 117.988 691.811 117.916 692.035 117.916C692.259 117.916 692.443 117.988 692.587 118.132C692.739 118.268 692.815 118.44 692.815 118.648C692.815 118.864 692.743 119.048 692.599 119.2C692.455 119.344 692.267 119.416 692.035 119.416ZM697.595 129.4C697.011 129.4 696.443 129.316 695.891 129.148C695.347 128.988 694.903 128.756 694.559 128.452L695.111 127.564C695.407 127.82 695.771 128.02 696.203 128.164C696.635 128.316 697.087 128.392 697.559 128.392C698.311 128.392 698.863 128.216 699.215 127.864C699.567 127.512 699.743 126.976 699.743 126.256V124.912L699.863 123.652L699.803 122.38V120.64H700.895V126.136C700.895 127.256 700.615 128.08 700.055 128.608C699.495 129.136 698.675 129.4 697.595 129.4ZM697.451 126.736C696.835 126.736 696.283 126.608 695.795 126.352C695.315 126.088 694.931 125.724 694.643 125.26C694.363 124.796 694.223 124.26 694.223 123.652C694.223 123.036 694.363 122.5 694.643 122.044C694.931 121.58 695.315 121.22 695.795 120.964C696.283 120.708 696.835 120.58 697.451 120.58C697.995 120.58 698.491 120.692 698.939 120.916C699.387 121.132 699.743 121.468 700.007 121.924C700.279 122.38 700.415 122.956 700.415 123.652C700.415 124.34 700.279 124.912 700.007 125.368C699.743 125.824 699.387 126.168 698.939 126.4C698.491 126.624 697.995 126.736 697.451 126.736ZM697.583 125.728C698.007 125.728 698.383 125.64 698.711 125.464C699.039 125.288 699.295 125.044 699.479 124.732C699.671 124.42 699.767 124.06 699.767 123.652C699.767 123.244 699.671 122.884 699.479 122.572C699.295 122.26 699.039 122.02 698.711 121.852C698.383 121.676 698.007 121.588 697.583 121.588C697.159 121.588 696.779 121.676 696.443 121.852C696.115 122.02 695.855 122.26 695.663 122.572C695.479 122.884 695.387 123.244 695.387 123.652C695.387 124.06 695.479 124.42 695.663 124.732C695.855 125.044 696.115 125.288 696.443 125.464C696.779 125.64 697.159 125.728 697.583 125.728ZM706.492 120.58C707.012 120.58 707.468 120.68 707.86 120.88C708.26 121.08 708.572 121.384 708.796 121.792C709.02 122.2 709.132 122.716 709.132 123.34V127H707.98V123.472C707.98 122.856 707.828 122.392 707.524 122.08C707.228 121.768 706.808 121.612 706.264 121.612C705.856 121.612 705.5 121.692 705.196 121.852C704.892 122.012 704.656 122.248 704.488 122.56C704.328 122.872 704.248 123.26 704.248 123.724V127H703.096V120.64H704.2V122.356L704.02 121.9C704.228 121.484 704.548 121.16 704.98 120.928C705.412 120.696 705.916 120.58 706.492 120.58Z" fill="white"/>
</svg>
