<svg width="411" height="173" viewBox="0 0 411 173" fill="none" xmlns="http://www.w3.org/2000/svg">
<path d="M20.0849 76.1262C16.4399 94.2003 27.5054 110.293 33.4937 116.08C76.9317 159.065 90.2264 110.013 117.522 136.358C144.819 162.703 215.545 134.46 260.534 120.775C305.522 107.09 309.813 117.173 362.364 122.479C414.915 127.784 413.783 56.3675 393.298 41.4327C372.813 26.4978 310.773 51.3283 285.035 58.3796C259.296 65.4309 221.814 64.8631 183.525 38.4808C145.236 12.0984 94.7796 49.8928 54.0242 25.4058C21.4199 5.81628 11.2685 20.7316 10.2683 30.638C15.0592 38.2699 23.7298 58.052 20.0849 76.1262Z" stroke="#D2B0FF" stroke-dasharray="2 2"/>
</svg>
